<svg width="160" height="100" viewBox="0 0 160 100" fill="none" xmlns="http://www.w3.org/2000/svg">
<path d="M18.23 30.8257H141.381" stroke="#DED8D5" stroke-width="1.9678" stroke-miterlimit="10"/>
<path d="M139.773 98.9479H19.8382C18.9498 98.9479 18.23 98.2278 18.23 97.3398V24.361C18.23 23.4727 18.9501 22.7528 19.8382 22.7528H139.773C140.662 22.7528 141.381 23.4729 141.381 24.361V97.3395C141.381 98.2278 140.661 98.9479 139.773 98.9479Z" stroke="#DED8D5" stroke-width="1.9678" stroke-miterlimit="10"/>
<path d="M26.3461 26.8715C26.3461 27.4937 25.8418 27.9981 25.2195 27.9981C24.5973 27.9981 24.093 27.4937 24.093 26.8715C24.093 26.2493 24.5973 25.745 25.2195 25.745C25.8418 25.7452 26.3461 26.2496 26.3461 26.8715Z" fill="#FFB1A5"/>
<path d="M30.724 26.8715C30.724 27.4937 30.2197 27.998 29.5975 27.998C28.9753 27.998 28.4709 27.4937 28.4709 26.8715C28.4709 26.2493 28.9753 25.745 29.5975 25.745C30.2197 25.7452 30.724 26.2495 30.724 26.8715Z" fill="#EAD254"/>
<path d="M35.1022 26.8715C35.1022 27.4937 34.5979 27.998 33.9757 27.998C33.3534 27.998 32.8491 27.4937 32.8491 26.8715C32.8491 26.2493 33.3534 25.745 33.9757 25.745C34.5979 25.745 35.1022 26.2495 35.1022 26.8715Z" fill="#00857B"/>
<path d="M157.38 58.0169H128.437C127.621 58.0169 126.959 57.3555 126.959 56.5395V29.7717C126.959 28.9557 127.621 28.2943 128.437 28.2943H157.38C158.196 28.2943 158.857 28.9557 158.857 29.7717V56.5397C158.857 57.3555 158.196 58.0169 157.38 58.0169Z" fill="#EDEDED"/>
<path d="M157.38 58.0169H128.437C127.621 58.0169 126.959 57.3555 126.959 56.5395V29.7717C126.959 28.9557 127.621 28.2943 128.437 28.2943H157.38C158.196 28.2943 158.857 28.9557 158.857 29.7717V56.5397C158.857 57.3555 158.196 58.0169 157.38 58.0169Z" stroke="#DED8D5" stroke-width="1.9678" stroke-miterlimit="10"/>
<path d="M135.434 50.2851H150.477C151.297 50.2851 151.962 49.6202 151.962 48.8V36.4715C151.962 35.6512 151.297 34.9864 150.477 34.9864H135.434C134.614 34.9864 133.949 35.6512 133.949 36.4715V48.8C133.949 49.6202 134.614 50.2851 135.434 50.2851Z" fill="#C98BD2"/>
<path d="M147.065 45.1797H140.024H138.752V39.6047H147.065V40.9983V45.1797Z" stroke="#F5F5F5" stroke-width="1.6466" stroke-miterlimit="10" stroke-linecap="round" stroke-linejoin="round"/>
<path d="M138.752 39.6047L142.908 42.8802L147.065 39.6047" stroke="#F5F5F5" stroke-width="1.6466" stroke-miterlimit="10" stroke-linecap="round" stroke-linejoin="round"/>
<path d="M30.0112 80.4314H2.40891C1.63084 80.4314 1 79.8006 1 79.0225V54.9569C1 54.1789 1.63084 53.548 2.40891 53.548H30.0114C30.7895 53.548 31.4203 54.1789 31.4203 54.9569V79.0225C31.4203 79.8006 30.7895 80.4314 30.0112 80.4314Z" fill="#EDEDED"/>
<path d="M30.0112 80.4314H2.40891C1.63084 80.4314 1 79.8006 1 79.0225V54.9569C1 54.1789 1.63084 53.548 2.40891 53.548H30.0114C30.7895 53.548 31.4203 54.1789 31.4203 54.9569V79.0225C31.4203 79.8006 30.7895 80.4314 30.0112 80.4314Z" stroke="#DED8D5" stroke-width="1.9678" stroke-miterlimit="10"/>
<path d="M23.2964 75.252H8.98041C8.07608 75.252 7.34314 74.5188 7.34314 73.6148V59.7896C7.34314 58.8852 8.07632 58.1523 8.98041 58.1523H23.2961C24.2004 58.1523 24.9334 58.8855 24.9334 59.7896V73.6148C24.9336 74.5188 24.2004 75.252 23.2964 75.252Z" fill="#FFB1A5"/>
<path d="M12.7289 63.345C10.7975 65.2765 10.7975 68.447 12.7289 70.3784C14.6604 72.3099 17.8309 72.3099 19.7624 70.3784C21.6939 68.447 21.6939 65.2765 19.7624 63.345C17.8309 61.4135 14.6604 61.4135 12.7289 63.345ZM19.751 64.0612H18.166C18.007 63.5633 17.8023 63.0656 17.5498 62.5674C18.4277 62.834 19.1917 63.362 19.751 64.0612ZM14.4195 66.571C14.4202 65.9283 14.4962 65.2856 14.655 64.6429H17.8363C17.9954 65.2856 18.0711 65.9283 18.0718 66.571H14.4195ZM18.0524 67.1525C18.0085 67.7952 17.8921 68.4378 17.7106 69.0805H14.7805C14.599 68.4378 14.4826 67.7952 14.4387 67.1525H18.0524ZM16.2457 62.3751C16.4846 62.3751 16.7194 62.3938 16.9483 62.4298C17.2531 62.9738 17.4918 63.5174 17.6694 64.0614H14.8217C14.9993 63.5176 15.238 62.9738 15.5428 62.4298C15.7719 62.3938 16.0067 62.3751 16.2457 62.3751ZM14.9416 62.5677C14.689 63.0656 14.4843 63.5635 14.3253 64.0614H12.7403C13.2996 63.362 14.0636 62.8338 14.9416 62.5677ZM12.3452 64.6427H14.1605C14.0015 65.2854 13.9179 65.928 13.9063 66.5707H11.7684C11.8133 65.8728 12.0172 65.218 12.3452 64.6427ZM12.3452 69.0808C12.0172 68.5056 11.813 67.8506 11.7684 67.1527H13.9152C13.9465 67.7954 14.0486 68.4381 14.218 69.0808H12.3452ZM12.7405 69.6623H14.3899C14.5544 70.1661 14.7588 70.6702 15.003 71.174C14.0991 70.9141 13.3127 70.3777 12.7405 69.6623ZM16.2457 71.3486C16.0464 71.3486 15.8501 71.3355 15.6577 71.3104C15.3835 70.7609 15.1502 70.2117 14.9623 69.6623H17.5288C17.3409 70.2117 17.1073 70.7609 16.8333 71.3104C16.6412 71.3355 16.4449 71.3486 16.2457 71.3486ZM17.4888 71.174C17.7327 70.6702 17.9374 70.1663 18.1019 69.6623H19.7513C19.1789 70.3777 18.3924 70.9141 17.4888 71.174ZM20.1461 69.0808H18.2733C18.4427 68.4381 18.5448 67.7954 18.5762 67.1527H20.7227C20.6783 67.8506 20.4741 68.5054 20.1461 69.0808ZM20.7229 66.571H18.5853C18.5737 65.9283 18.4901 65.2856 18.331 64.6429H20.1464C20.4741 65.218 20.6781 65.8728 20.7229 66.571Z" fill="#F5F5F5"/>
<path d="M28.3662 15.7216H3.35978C2.84313 15.7216 2.42438 15.3029 2.42438 14.7862C2.42438 14.2696 2.84313 13.8508 3.35978 13.8508H28.366C28.8826 13.8508 29.3014 14.2696 29.3014 14.7862C29.3016 15.3029 28.8829 15.7216 28.3662 15.7216Z" fill="#C98BD2"/>
<path d="M158.399 76.804H146.262C145.745 76.804 145.326 76.3852 145.326 75.8686C145.326 75.3519 145.745 74.9332 146.262 74.9332H158.399C158.915 74.9332 159.334 75.3519 159.334 75.8686C159.334 76.3852 158.915 76.804 158.399 76.804Z" fill="#56DFED"/>
<path d="M149.898 87.6247H148.415C148.025 87.6247 147.709 87.3088 147.709 86.9191V85.527C147.709 85.1373 148.025 84.8214 148.415 84.8214H149.898C150.288 84.8214 150.604 85.1373 150.604 85.527V86.9191C150.604 87.3088 150.288 87.6247 149.898 87.6247Z" fill="#C98BD2"/>
<path d="M9.31645 94.1052H7.83331C7.44366 94.1052 7.12775 93.7893 7.12775 93.3996V92.0075C7.12775 91.6178 7.44366 91.3019 7.83331 91.3019H9.31645C9.7061 91.3019 10.022 91.6178 10.022 92.0075V93.3996C10.022 93.7893 9.7061 94.1052 9.31645 94.1052Z" fill="#FFB1A5"/>
<path d="M122.827 14.7554H98.1447C97.7345 14.7554 97.4019 14.423 97.4019 14.0126V7.98633C97.4019 7.57621 97.7345 7.24353 98.1447 7.24353H122.827C123.237 7.24353 123.57 7.57621 123.57 7.98633V14.0126C123.569 14.423 123.237 14.7554 122.827 14.7554Z" fill="#FFB1A5"/>
<path d="M100.966 9.92027H118.52" stroke="#F5F5F5" stroke-width="1.1803" stroke-miterlimit="10"/>
<path d="M100.966 11.7218H108.116" stroke="#F5F5F5" stroke-width="1.1803" stroke-miterlimit="10"/>
<path d="M100.252 13.9056V16.8331L103.934 13.9056H100.252Z" fill="#FFB1A5"/>
<path d="M62.186 15.2023H50.238C49.0774 15.2023 48.1366 14.2614 48.1366 13.1009V1.99312C48.1366 1.1132 48.8498 0.399994 49.7297 0.399994H62.186C63.0659 0.399994 63.7791 1.1132 63.7791 1.99312V13.6094C63.7791 14.4891 63.0659 15.2023 62.186 15.2023Z" fill="#56DFED"/>
<path d="M59.6085 8.89583L58.7177 8.00506C58.5586 7.83021 58.352 7.73477 58.1451 7.73477C57.9382 7.73477 57.7315 7.83021 57.5724 7.98928L57.0634 8.49829C57.0316 8.48251 56.9998 8.46648 56.968 8.45069C56.9044 8.41888 56.8568 8.4031 56.8089 8.37104C56.3317 8.06894 55.9024 7.67115 55.4888 7.16214C55.2979 6.92366 55.1549 6.70097 55.0752 6.51009C55.2025 6.39887 55.3137 6.27161 55.4252 6.16014C55.4728 6.1123 55.5206 6.0647 55.5682 6.01711C55.7431 5.84226 55.8385 5.63535 55.8385 5.42869C55.8385 5.22178 55.7431 5.01511 55.5682 4.84026L55.1228 4.39488C55.0752 4.34728 55.0274 4.29944 54.9795 4.23581C54.8841 4.14038 54.7729 4.02915 54.6774 3.93371C54.5184 3.77465 54.3117 3.67921 54.1048 3.67921C53.8981 3.67921 53.7073 3.75886 53.5322 3.93371L52.9756 4.49032C52.7689 4.69698 52.6416 4.96752 52.6098 5.26962C52.578 5.74682 52.7053 6.1922 52.8165 6.47852C53.071 7.21023 53.4685 7.86227 54.057 8.56216C54.7726 9.40509 55.6156 10.0732 56.6018 10.5504C56.9675 10.7252 57.4765 10.9321 58.0334 10.9797C58.0652 10.9797 58.097 10.9797 58.1448 10.9797C58.5266 10.9797 58.8447 10.8367 59.0992 10.5662C59.0992 10.5662 59.0992 10.5661 59.1153 10.5504C59.1947 10.4549 59.2901 10.3595 59.4016 10.264C59.4652 10.2004 59.5446 10.121 59.6082 10.0574C59.9424 9.70695 59.9424 9.22975 59.6085 8.89583ZM59.2425 9.72273C59.1789 9.78636 59.1153 9.84998 59.0516 9.91361C58.9404 10.009 58.845 10.1205 58.7335 10.2317C58.5744 10.3908 58.3996 10.4702 58.1609 10.4702C58.129 10.4702 58.1133 10.4702 58.0815 10.4702C57.6043 10.4384 57.1589 10.2475 56.8407 10.0885C55.9342 9.64307 55.1388 9.02284 54.4708 8.22751C53.9299 7.57546 53.5642 6.95498 53.3097 6.30293C53.1506 5.92118 53.087 5.61907 53.1188 5.31672C53.1346 5.14187 53.1982 4.98281 53.3415 4.85556L53.8824 4.31473C53.9299 4.26713 54.0096 4.20351 54.105 4.20351C54.2005 4.20351 54.2641 4.25135 54.3277 4.31473C54.4232 4.41017 54.5186 4.50561 54.6141 4.60105C54.6619 4.64889 54.7095 4.71227 54.7731 4.76012L55.2185 5.2055C55.2663 5.2531 55.33 5.34854 55.33 5.42819C55.33 5.52363 55.2663 5.60304 55.2185 5.65089C55.1709 5.69848 55.1231 5.74633 55.0755 5.79392C54.9322 5.9372 54.8052 6.06421 54.6779 6.19146C54.6779 6.19146 54.6779 6.19146 54.6621 6.20725C54.5031 6.36631 54.5349 6.50935 54.5667 6.60479V6.62057C54.6779 6.90689 54.853 7.1614 55.0915 7.47953C55.5369 8.03614 56.0141 8.46574 56.5389 8.79965C56.6025 8.84725 56.6819 8.87931 56.7455 8.91088C56.8092 8.94269 56.8568 8.95847 56.9046 8.99053L56.9206 9.00632C57.0797 9.08573 57.2388 9.05391 57.366 8.92666L57.9226 8.37005C57.9705 8.32246 58.0499 8.25883 58.1453 8.25883C58.2247 8.25883 58.3044 8.32246 58.352 8.37005L59.2428 9.26082C59.3858 9.4046 59.3858 9.56366 59.2425 9.72273Z" fill="#F5F5F5"/>
<mask id="mask0_214_596" style="mask-type:luminance" maskUnits="userSpaceOnUse" x="29" y="16" width="114" height="83">
<path d="M142.837 16.7041H29.5737V98.7487H142.837V16.7041Z" fill="white"/>
</mask>
<g mask="url(#mask0_214_596)">
<path d="M114.159 71.2468L105.157 70.048L105.228 70.9419L97.5313 71.9669C97.5313 71.9669 92.5701 84.4132 96.9426 111.786H103.203L105.457 84.0302H106.257L108.44 111.786H114.7C119.072 84.4132 114.159 71.2468 114.159 71.2468Z" fill="#8E716C"/>
<path d="M102.594 84.0303H109.126" stroke="#282828" stroke-width="1.2333" stroke-miterlimit="10" stroke-linecap="round" stroke-linejoin="round"/>
<path d="M119.416 58.1168C118.646 56.8874 114.32 56.9311 114.092 56.9042C112.922 56.7671 114.841 66.0733 117.274 74.2081C117.741 75.7677 119.457 76.5801 120.956 75.9448C120.972 75.9379 120.988 75.931 121.004 75.9241C122.19 75.422 122.864 74.1632 122.626 72.8979C121.469 66.7596 120.307 59.538 119.416 58.1168Z" fill="#FFB1A5"/>
<path d="M120.447 61.4818L114.924 63.6252L114.406 61.0046L120.125 59.5777L120.447 61.4818Z" fill="#F3978E"/>
<path d="M121.49 66.7246C121.49 66.7246 118.874 70.2386 118.999 70.0771C119.123 69.9156 121.051 64.3983 121.051 64.3983L121.49 66.7246Z" fill="#F3978E"/>
<path d="M125.232 62.0012L117.732 71.7188C116.747 72.9946 117.061 74.8395 118.413 75.7169C119.763 76.5929 121.573 76.1325 122.339 74.7179L128.582 63.2L125.232 62.0012Z" fill="#FFB1A5"/>
<path d="M127.173 64.4967C125.547 63.9714 124.655 62.2276 125.18 60.6017C125.705 58.9758 127.449 58.0835 129.075 58.6088C130.701 59.1341 131.593 60.8779 131.068 62.5038C130.543 64.1298 128.799 65.022 127.173 64.4967Z" fill="#FFB1A5"/>
<path d="M130.38 59.6932C130.38 59.6932 131.226 58.814 129.725 58.1979C128.223 57.5819 126.366 57.7232 125.18 60.6017L130.38 59.6932Z" fill="#FFB1A5"/>
<path d="M131.936 53.552L135.076 54.9136C135.251 54.9893 135.314 55.1964 135.218 55.3762L131.087 63.0928C130.991 63.2726 130.771 63.3569 130.596 63.2812L127.456 61.9196C127.281 61.8439 127.218 61.6368 127.314 61.457L131.445 53.7404C131.541 53.5606 131.761 53.4763 131.936 53.552Z" fill="#372F5F"/>
<path d="M131.636 53.4154L134.776 54.7769C134.951 54.8526 135.014 55.0598 134.918 55.2396L130.787 62.9561C130.691 63.1359 130.471 63.2203 130.296 63.1445L127.156 61.783C126.981 61.7073 126.918 61.5001 127.014 61.3203L131.145 53.6038C131.241 53.424 131.461 53.3397 131.636 53.4154Z" fill="#261B43"/>
<path d="M131.281 54.2006L134.041 55.3969L130.674 61.6858L127.915 60.4895L131.281 54.2006Z" fill="#E6E6E6"/>
<path d="M134.041 55.3969L127.915 60.4895L131.281 54.2006L134.041 55.3969Z" fill="#F5F5F5"/>
<path d="M128.823 57.9417C128.823 57.9417 129.522 58.0781 130.153 58.4357C130.431 58.593 130.574 58.9141 130.496 59.2241C130.426 59.5067 130.189 59.7173 129.9 59.7536L128.268 59.9595C128.268 59.9595 127.416 61.4276 126.303 61.5926L127.324 59.015L128.823 57.9417Z" fill="#FFB1A5"/>
<path d="M107.973 45.8798C107.793 45.8788 119.55 47.5067 121.491 60.9122L115.39 61.8468L114.159 71.9669H97.1391L93.76 53.2686C93.76 53.2686 97.5307 47.8643 104.533 45.8795L107.973 45.8798Z" fill="#56DFED"/>
<path d="M115.39 61.8468L115.919 55.9937" stroke="#282828" stroke-width="1.2333" stroke-miterlimit="10" stroke-linecap="round" stroke-linejoin="round"/>
<path d="M109.091 46.0714V41.4151H103.634V46.1261C103.355 46.2095 102.89 46.3777 102.168 46.7207L106.424 49.2559L110.775 46.7207C110.775 46.7207 110.084 46.319 109.091 46.0714Z" fill="#FFB1A5"/>
<path d="M103.583 41.984C103.583 41.984 104.563 44.586 107.179 44.3616C109.584 44.1552 109.201 40.549 109.201 40.549L103.583 41.984Z" fill="#282828"/>
<path d="M101.203 38.5233C100.348 39.2991 98.4357 36.3565 99.2621 35.5304C100.089 34.7042 100.719 36.0004 100.719 36.0004L101.088 36.8786L101.366 38.0683L101.432 38.3798L101.203 38.5233Z" fill="#F3978E"/>
<path d="M99.6616 36.5728C99.6616 36.5728 100.309 36.2816 100.884 37.2202" stroke="#282828" stroke-width="0.9928" stroke-miterlimit="10" stroke-linecap="round" stroke-linejoin="round"/>
<path d="M111.318 38.434C112.105 39.2794 114.259 36.5092 113.506 35.6162C112.752 34.7232 112.014 35.9612 112.014 35.9612L111.572 36.8051L111.194 37.9669L111.102 38.2717L111.318 38.434Z" fill="#F3978E"/>
<path d="M113.019 36.6209C113.019 36.6209 112.399 36.2759 111.747 37.1625" stroke="#282828" stroke-width="0.9928" stroke-miterlimit="10" stroke-linecap="round" stroke-linejoin="round"/>
<path d="M99.7032 32.7237C99.7032 36.6187 102.673 38.4658 106.336 38.4658C109.999 38.4658 112.969 36.6189 112.969 32.7237C112.969 28.8286 109.999 26.1788 106.336 26.1788C102.673 26.1788 99.7032 28.8284 99.7032 32.7237Z" fill="#282828"/>
<path d="M100.605 32.9944C100.605 35.3856 100.943 37.449 101.28 38.9134C101.61 40.3472 102.539 41.3492 103.852 42.1557L104.092 42.3026C105.481 43.1559 107.276 43.1759 108.686 42.3534C110.109 41.5241 111.105 40.4306 111.412 38.892C111.969 36.0934 112.03 32.9942 112.03 32.9942C112.03 32.9942 112.561 26.9578 106.399 27.0752C100.237 27.1928 100.605 32.9944 100.605 32.9944Z" fill="#FFB1A5"/>
<path d="M105.943 36.4394V37.2747C105.943 37.3242 105.953 37.3716 105.97 37.415C106.039 37.5856 106.236 37.6675 106.414 37.6202L106.797 37.5186" stroke="#282828" stroke-width="1.2316" stroke-miterlimit="10" stroke-linecap="round" stroke-linejoin="round"/>
<path d="M104.964 33.2001L101.901 33.9177C101.901 33.9177 102.041 33.1384 103.293 32.8553C104.546 32.5722 104.964 33.2001 104.964 33.2001Z" fill="#282828"/>
<path d="M107.682 33.2001L110.639 33.9177C110.639 33.9177 110.504 33.1384 109.294 32.8553C108.085 32.5722 107.682 33.2001 107.682 33.2001Z" fill="#282828"/>
<path d="M103.8 35.9646C104.086 35.9646 104.317 35.7341 104.317 35.4497C104.317 35.1653 104.086 34.9348 103.8 34.9348C103.515 34.9348 103.284 35.1653 103.284 35.4497C103.284 35.7341 103.515 35.9646 103.8 35.9646Z" fill="#282828"/>
<path d="M109.213 35.4497C109.213 35.7341 108.981 35.9646 108.696 35.9646C108.411 35.9646 108.18 35.7341 108.18 35.4497C108.18 35.1654 108.411 34.9348 108.696 34.9348C108.982 34.9345 109.213 35.1651 109.213 35.4497Z" fill="#282828"/>
<path d="M104.317 38.5926H108.299C108.299 38.5926 106.534 40.7396 104.317 38.5926Z" fill="#F5F5F5"/>
<path d="M105.135 37.2031C105.993 36.3454 105.993 34.955 105.135 34.0973C104.277 33.2397 102.887 33.2397 102.029 34.0973C101.172 34.955 101.172 36.3454 102.029 37.2031C102.887 38.0607 104.277 38.0607 105.135 37.2031Z" stroke="#C98BD2" stroke-width="1.3423" stroke-miterlimit="10"/>
<path d="M110.53 37.2031C111.388 36.3454 111.388 34.955 110.53 34.0973C109.672 33.2397 108.282 33.2397 107.424 34.0973C106.567 34.955 106.567 36.3454 107.424 37.2031C108.282 38.0607 109.672 38.0607 110.53 37.2031Z" stroke="#C98BD2" stroke-width="1.3423" stroke-miterlimit="10"/>
<path d="M105.779 35.6497C105.779 35.6497 106.299 35.1644 106.782 35.6497" stroke="#C98BD2" stroke-width="1.3423" stroke-miterlimit="10"/>
<path d="M101.387 35.6497L100.695 35.6322" stroke="#C98BD2" stroke-width="1.3423" stroke-miterlimit="10"/>
<path d="M111.174 35.6497L111.87 35.6322" stroke="#C98BD2" stroke-width="1.3423" stroke-miterlimit="10"/>
<path d="M111.951 34.9957C111.951 34.9957 109.487 31.6654 110.056 28.2915C110.056 28.2915 111.884 29.2116 112.36 31.5868C112.836 33.9617 111.951 34.9957 111.951 34.9957Z" fill="#282828"/>
<path d="M100.601 35.2214C100.601 35.2214 103.462 31.4388 102.894 28.0649C102.894 28.0649 100.91 29.2116 100.433 31.5865C99.9571 33.9617 100.601 35.2214 100.601 35.2214Z" fill="#282828"/>
<path d="M111.744 29.6203C111.744 29.6203 108.581 33.0832 99.9265 32.4904C99.9265 32.4904 101.252 27.4086 105.446 26.8676C105.446 26.8676 110.289 26.2893 111.744 29.6203Z" fill="#282828"/>
<path d="M115.607 26.2352C115.971 23.9823 114.439 21.861 112.186 21.4972C109.933 21.1334 107.812 22.6649 107.448 24.9179C107.085 27.1709 108.616 29.2922 110.869 29.6559C113.122 30.0197 115.243 28.4882 115.607 26.2352Z" fill="#282828"/>
<path d="M61.0786 71.2374L53.3823 70.2125L53.4526 69.3185L44.4507 70.5173C44.4507 70.5173 39.5376 83.6838 43.9101 111.057H50.1709L52.3534 83.3008H53.1537L55.407 111.057H61.6678C66.0395 83.6838 61.0786 71.2374 61.0786 71.2374Z" fill="#282828"/>
<path d="M60.4646 33.7905C59.4229 32.5651 58.5889 31.1355 57.8801 29.1293C57.1191 26.9758 54.6275 27.8511 54.6275 27.8511C54.6275 27.8511 52.5513 25.18 49.4269 26.1102C46.3026 27.0404 45.217 29.2639 45.1533 31.9071C45.0897 34.5503 43.0105 34.9639 41.4095 38.0217C38.5831 43.4201 43.3417 47.9669 52.0038 46.7057L52.0154 46.6216C52.8682 46.8805 53.9138 46.9937 55.19 46.918C65.5962 46.3003 64.592 38.6461 60.4646 33.7905Z" fill="#282828"/>
<path d="M57.058 37.7938C57.9132 38.5697 59.8257 35.6271 58.9993 34.8009C58.1729 33.9747 57.5425 35.2709 57.5425 35.2709L57.1736 36.1494L56.8952 37.3391L56.8291 37.6505L57.058 37.7938Z" fill="#F3978E"/>
<path d="M58.5998 35.8431C58.5998 35.8431 57.9524 35.5518 57.3773 36.4904" stroke="#282828" stroke-width="0.9928" stroke-miterlimit="10" stroke-linecap="round" stroke-linejoin="round"/>
<path d="M46.9435 37.7045C46.1569 38.5499 44.0024 35.7797 44.7561 34.8867C45.5097 33.9937 46.2474 35.2317 46.2474 35.2317L46.6893 36.0756L47.0673 37.2374L47.1596 37.5422L46.9435 37.7045Z" fill="#F3978E"/>
<path d="M45.2419 35.8914C45.2419 35.8914 45.8624 35.5464 46.5147 36.433" stroke="#282828" stroke-width="0.9928" stroke-miterlimit="10" stroke-linecap="round" stroke-linejoin="round"/>
<path d="M58.558 31.9939C58.558 35.889 55.5883 37.7361 51.925 37.7361C48.2618 37.7361 45.2921 35.8892 45.2921 31.9939C45.2921 28.0987 48.2618 25.4491 51.925 25.4491C55.5885 25.4491 58.558 28.0989 58.558 31.9939Z" fill="#282828"/>
<path d="M54.6277 40.6856H49.1711V47.7513H54.6277V40.6856Z" fill="#FFB1A5"/>
<path d="M48.3746 40.2449C48.3746 40.2449 49.8935 43.2763 51.7621 43.7495C52.2615 43.876 52.7944 43.8326 53.2758 43.662C53.9792 43.4127 54.8709 42.3641 55.0226 41.2037L55.0929 40.5408C55.0929 40.5408 51.768 42.3515 48.3746 40.2449Z" fill="#282828"/>
<path d="M57.6566 32.265C57.6566 34.6561 57.3187 36.7196 56.9816 38.1839C56.6514 39.6178 55.7221 40.6198 54.4091 41.4262L54.1699 41.5732C52.7807 42.4264 50.9856 42.4464 49.575 41.624C48.1523 40.7946 47.1562 39.7011 46.8497 38.1625C46.2921 35.3642 46.2312 32.2647 46.2312 32.2647C46.2312 32.2647 45.7007 26.2283 51.8624 26.3457C58.024 26.4631 57.6566 32.265 57.6566 32.265Z" fill="#FFB1A5"/>
<path d="M51.5134 36.0367V36.5329C51.5134 36.5822 51.523 36.6296 51.5403 36.673C51.6089 36.8431 51.8059 36.9247 51.984 36.8776L52.367 36.7763" stroke="#282828" stroke-width="1.2298" stroke-miterlimit="10" stroke-linecap="round" stroke-linejoin="round"/>
<path d="M52.7971 32.7646L56.0754 33.5405C56.0754 33.5405 55.9264 32.698 54.5853 32.392C53.244 32.0857 52.7971 32.7646 52.7971 32.7646Z" fill="#282828"/>
<path d="M51.076 32.7646L47.7559 33.5405C47.7559 33.5405 47.9068 32.698 49.2651 32.392C50.6232 32.0857 51.076 32.7646 51.076 32.7646Z" fill="#282828"/>
<path d="M49.8867 34.7992C49.8867 35.0828 49.6554 35.3126 49.3703 35.3126C49.085 35.3126 48.8539 35.0828 48.8539 34.7992C48.8539 34.5156 49.0852 34.2857 49.3703 34.2857C49.6556 34.2857 49.8867 34.5158 49.8867 34.7992Z" fill="#282828"/>
<path d="M54.7825 34.7992C54.7825 35.0828 54.5511 35.3126 54.266 35.3126C53.9807 35.3126 53.7496 35.0828 53.7496 34.7992C53.7496 34.5156 53.981 34.2857 54.266 34.2857C54.5514 34.2857 54.7825 34.5158 54.7825 34.7992Z" fill="#282828"/>
<path d="M49.5455 37.7361H54.0781C54.0781 37.7361 53.7582 38.9815 51.7029 38.9815C50.1377 38.9815 49.5455 37.7361 49.5455 37.7361Z" fill="#F5F5F5"/>
<path d="M46.3105 34.2662C46.3105 34.2662 48.774 30.936 48.2058 27.562C48.2058 27.562 46.3774 28.4822 45.9012 30.8573C45.425 33.2319 46.3105 34.2662 46.3105 34.2662Z" fill="#282828"/>
<path d="M57.6606 34.1553C57.6606 34.1553 54.7989 30.7093 55.3671 27.3354C55.3671 27.3354 57.3519 28.4822 57.8281 30.857C58.3043 33.2319 57.6606 34.1553 57.6606 34.1553Z" fill="#282828"/>
<path d="M46.5172 28.8908C46.5172 28.8908 49.3439 32.6901 57.9983 32.0975C57.9983 32.0975 57.0097 26.6794 52.8155 26.1381C52.8155 26.1381 47.9727 25.5598 46.5172 28.8908Z" fill="#282828"/>
<path d="M38.6279 87.9499C38.5021 88.148 45.831 56.0615 43.6551 56.5466C43.4566 56.5907 39.6457 56.9446 39.0792 58.0963C37.4372 61.4345 36.2599 87.7065 36.2599 87.7065L38.6279 87.9499Z" fill="#FFB1A5"/>
<path d="M36.2598 87.7068C36.2598 87.7068 35.0785 93.1878 39.5442 93.787C39.8384 93.8265 40.1228 93.6529 40.2197 93.3722L40.2325 93.335C40.3393 93.0252 40.1842 92.6933 39.8851 92.5596C39.157 92.2341 38.0276 91.4116 38.5881 89.5435C38.5881 89.5435 39.2335 89.4644 39.5899 90.6683C39.6816 90.9781 40.0291 91.1337 40.3176 90.9885C40.5147 90.8893 40.6254 90.6775 40.5978 90.4587C40.4907 89.6153 40.0663 87.5852 38.4387 87.0404L36.2598 87.7068Z" fill="#FFB1A5"/>
<path d="M37.7628 65.806C37.7628 65.806 41.9856 71.7528 42.0078 71.6379C42.03 71.523 43.4845 63.2885 43.4845 63.2885L38.3604 61.069L37.7628 65.806Z" fill="#F3978E"/>
<path d="M49.4957 46.588C49.676 46.587 39.0595 46.7772 37.1191 60.1824L43.2204 61.1171L44.4505 71.2371H61.4708L64.8499 52.5388C64.8499 52.5388 62.4476 48.4877 55.4458 46.503L49.4957 46.588Z" fill="#00857B"/>
<path d="M44.3066 48.2085C44.3066 48.2085 45.807 50.2002 51.9544 50.2002C58.0445 50.2002 59.6019 48.1042 59.6019 48.1042C59.6019 48.1042 56.0117 46.0983 51.8456 45.4494C51.8456 45.4494 48.1257 46.1118 44.3066 48.2085Z" fill="#FFB1A5"/>
<path d="M65.1943 90.6763L65.2091 117.41H78.4346L79.4511 90.6763H65.1943Z" fill="#005683"/>
<path d="M93.9104 90.6763L93.8956 117.41H80.6702L79.6537 90.6763H93.9104Z" fill="#005683"/>
<path d="M86.6872 90.6763H73.0127V99.9642H86.6872V90.6763Z" fill="#005683"/>
<path d="M102.266 67.3456C103.086 76.4047 102.221 83.0053 102.46 99.6747L94.5661 100.005L93.3898 68.8033L102.266 67.3456Z" fill="#FFB1A5"/>
<path d="M94.3635 74.4148C94.3635 74.4148 99.2519 73.9672 102.594 71.7627L102.506 69.8226L94.3608 70.9318L94.3635 74.4148Z" fill="#F3978E"/>
<path d="M86.5215 46.4882C86.5215 46.4882 102.048 50.3928 104.861 70.101C104.861 70.101 97.2623 73.3955 89.6468 71.9785L91.3601 65.3867L86.5215 46.4882Z" fill="#C98BD2"/>
<path d="M40.1431 54.6829L51.7039 68.3357L48.1662 78.2984C48.1662 78.2984 39.3793 66.0819 35.431 56.6393L40.1431 54.6829Z" fill="#FFB1A5"/>
<path d="M40.5232 55.1757C40.5232 55.1757 36.4637 57.4692 35.4311 56.6396C33.6267 55.1897 32.1354 49.8826 32.1354 49.8826C32.1354 49.8826 39.7266 47.0206 39.6554 47.1326C39.5844 47.2443 40.5232 55.1757 40.5232 55.1757Z" fill="#FFB1A5"/>
<path d="M40.5232 55.1757C40.4514 54.767 42.0285 50.3581 42.5691 48.7048C42.6996 48.306 42.4246 47.8687 41.9918 47.7859C41.7099 47.7319 41.2638 47.7666 41.0527 48.1708L39.1486 51.4252L40.5232 55.1757Z" fill="#FFB1A5"/>
<path d="M40.384 50.4096L39.0767 43.9057C38.9993 43.4728 38.5642 43.1747 38.1304 43.2566C37.7549 43.3276 37.5073 43.662 37.5516 44.0386L38.1213 48.8816L40.384 50.4096Z" fill="#FFB1A5"/>
<path d="M37.7845 48.0105L36.0091 43.3661C35.8624 42.9594 35.4046 42.734 35.0004 42.8694C34.65 42.9868 34.4535 43.3399 34.5363 43.7024L35.8537 49.069L37.7845 48.0105Z" fill="#FFB1A5"/>
<path d="M35.8764 49.38L33.6302 44.8164C33.424 44.393 32.9111 44.1962 32.4901 44.3794C32.0946 44.5513 31.9195 44.9994 32.0889 45.4068L33.8795 49.7151L35.8764 49.38Z" fill="#FFB1A5"/>
<path d="M32.1355 49.8826L30.373 47.087C30.227 46.758 30.3616 46.3893 30.681 46.2433C30.9866 46.1037 31.3641 46.2135 31.5617 46.4995L33.8793 49.7149L32.1355 49.8826Z" fill="#FFB1A5"/>
<path d="M40.0289 49.9208C40.0289 49.9208 37.382 49.6431 37.11 53.1707" stroke="#282828" stroke-width="1.5317" stroke-miterlimit="10" stroke-linecap="round" stroke-linejoin="round"/>
<path d="M45.8217 73.6389C45.8217 73.6389 47.9961 81.1638 52.3288 80.1633C56.6618 79.1628 63.4149 69.9086 63.4149 69.9086L61.9034 54.1071L49.7418 69.0751L45.8217 73.6389Z" fill="#FFB1A5"/>
<path d="M53.514 64.4254C53.514 64.4254 57.6199 70.6186 61.1223 72.8024L63.4149 69.9086L54.571 63.0673L53.514 64.4254Z" fill="#F3978E"/>
<path d="M71.4779 46.1466C71.4779 46.1466 59.4234 48.8638 52.9996 62.8735C52.9996 62.8735 56.8808 68.7217 63.1032 71.321L67.269 66.2176L71.4779 46.1466Z" fill="#C98BD2"/>
<path d="M71.4778 46.1032C66.7689 48.5186 63.8086 51.7218 63.8086 51.7218L64.7376 92.6746H94.4119L94.3157 51.9332C94.3157 51.9332 90.5751 48.2729 86.5213 46.4884C83.0783 44.9725 74.8253 44.3863 71.4778 46.1032Z" fill="#C98BD2"/>
<path d="M85.5193 66.0585C83.2398 66.0585 81.392 64.2106 81.392 61.9312V57.8036H89.6469V61.9312C89.6469 64.2106 87.799 66.0585 85.5193 66.0585Z" stroke="#282828" stroke-width="1.3968" stroke-miterlimit="10" stroke-linecap="round" stroke-linejoin="round"/>
<path d="M94.3638 72.1306L94.7487 58.7338" stroke="#282828" stroke-width="1.3968" stroke-miterlimit="10" stroke-linecap="round" stroke-linejoin="round"/>
<path d="M64.2646 69.8978L63.6234 58.285" stroke="#282828" stroke-width="1.3968" stroke-miterlimit="10" stroke-linecap="round" stroke-linejoin="round"/>
<path d="M71.8256 31.1453L70.5886 25.0256C70.519 24.5272 70.3257 23.7578 70.5624 23.0352C70.9543 21.8393 72.3943 19.5426 74.8553 20.5942L75.3872 23.0172C75.3872 23.0172 72.8313 23.5331 71.8061 26.8767L71.8256 31.1453Z" fill="#282828"/>
<path d="M74.674 21.8576C74.6291 22.6616 73.9193 26.18 71.4243 27.4617C71.4243 27.4617 69.2388 22.7745 74.674 21.8576Z" fill="#282828"/>
<path d="M83.4269 44.9764V34.5849H73.8475V44.9764L70.9958 46.2763C70.9958 46.2763 71.6647 50.5832 78.7376 50.6786C85.8107 50.7741 86.5212 46.4882 86.5212 46.4882L83.4269 44.9764Z" fill="#FFB1A5"/>
<path d="M74.8552 20.5944C74.8552 20.5944 76.6133 15.9566 82.0347 18.4223C85.3159 19.9145 86.235 21.9155 86.6261 23.3331C86.7561 23.8041 86.8079 24.5462 86.7726 24.9866L85.4611 31.1453L80.3416 22.6243L75.3874 23.0172L74.8552 20.5944Z" fill="#282828"/>
<path d="M85.4611 31.1453C85.4611 31.1453 86.107 30.1182 87.439 30.6232C88.771 31.1285 88.1685 34.3634 86.1704 34.7757C86.1704 34.7757 85.4542 34.9318 84.8925 34.4416C84.8925 34.4416 85.3837 32.0521 85.4611 31.1453Z" fill="#F3978E"/>
<path d="M87.1748 31.7646C87.1748 31.7646 86.0588 31.3922 85.267 33.0354" stroke="#282828" stroke-width="1.3968" stroke-miterlimit="10" stroke-linecap="round" stroke-linejoin="round"/>
<path d="M71.8255 31.1453C71.8255 31.1453 71.1797 30.1182 69.8477 30.6232C68.5157 31.1285 69.1182 34.3634 71.1163 34.7757C71.1163 34.7757 71.8324 34.9318 72.3942 34.4416C72.3942 34.4416 71.9027 32.0521 71.8255 31.1453Z" fill="#F3978E"/>
<path d="M70.1118 31.7646C70.1118 31.7646 71.2277 31.3922 72.0196 33.0354" stroke="#282828" stroke-width="1.3968" stroke-miterlimit="10" stroke-linecap="round" stroke-linejoin="round"/>
<path d="M85.5945 28.0755C85.5952 30.0257 85.4036 34.1057 84.2048 36.5274C83.079 38.8012 81.2174 40.0249 78.7766 40.0977C76.3356 40.1707 74.5173 39.2298 73.0601 36.2788C71.6029 33.3279 71.6724 28.1117 71.6724 28.1117C71.6724 28.1117 71.6724 21.1451 78.5579 21.1451C85.8098 21.1451 85.5945 28.0755 85.5945 28.0755Z" fill="#FFB1A5"/>
<path d="M73.9197 37.7334C73.9197 37.7334 74.7219 41.8037 78.2645 42.2716C82.3415 42.8097 83.4274 37.837 83.4274 37.837C83.4274 37.837 81.6259 40.0945 78.7767 40.0979C75.5991 40.1016 73.9197 37.7334 73.9197 37.7334Z" fill="#282828"/>
<path d="M78.1423 30.9678V32.5801C78.1423 32.6494 78.1557 32.7158 78.1801 32.7764C78.2755 33.0151 78.5505 33.1296 78.7991 33.0635L79.3335 32.9214" stroke="#282828" stroke-width="1.3968" stroke-miterlimit="10" stroke-linecap="round" stroke-linejoin="round"/>
<path d="M76.109 30.1978C76.109 30.5441 75.8284 30.8247 75.4821 30.8247C75.1359 30.8247 74.8552 30.5441 74.8552 30.1978C74.8552 29.8516 75.1359 29.5709 75.4821 29.5709C75.8284 29.5709 76.109 29.8516 76.109 30.1978Z" fill="#282828"/>
<path d="M81.9856 30.1978C81.9856 30.5441 81.705 30.8247 81.3587 30.8247C81.0125 30.8247 80.7318 30.5441 80.7318 30.1978C80.7318 29.8516 81.0125 29.5709 81.3587 29.5709C81.7052 29.5709 81.9856 29.8516 81.9856 30.1978Z" fill="#282828"/>
<path d="M79.7545 27.0796L83.9689 28.1682C83.9689 28.1682 83.7773 26.9862 82.0532 26.5566C80.3291 26.127 79.7545 27.0796 79.7545 27.0796Z" fill="#282828"/>
<path d="M77.1358 27.0796L72.9214 28.1682C72.9214 28.1682 73.113 26.9862 74.8371 26.5566C76.5612 26.127 77.1358 27.0796 77.1358 27.0796Z" fill="#282828"/>
<path d="M76.2974 34.2046C76.2974 34.2046 76.9191 34.681 78.5539 34.681C80.0407 34.681 80.9692 34.2046 80.9692 34.2046" stroke="#282828" stroke-width="1.3968" stroke-miterlimit="10" stroke-linecap="round" stroke-linejoin="round"/>
<path d="M75.3136 33.0445C76.7846 33.0445 77.977 31.852 77.977 30.3811C77.977 28.9101 76.7846 27.7176 75.3136 27.7176C73.8426 27.7176 72.6501 28.9101 72.6501 30.3811C72.6501 31.852 73.8426 33.0445 75.3136 33.0445Z" stroke="#F5F5F5" stroke-width="1.9514" stroke-miterlimit="10"/>
<path d="M81.8567 33.0445C83.3276 33.0445 84.5201 31.852 84.5201 30.3811C84.5201 28.9101 83.3276 27.7176 81.8567 27.7176C80.3857 27.7176 79.1932 28.9101 79.1932 30.3811C79.1932 31.852 80.3857 33.0445 81.8567 33.0445Z" stroke="#F5F5F5" stroke-width="1.9514" stroke-miterlimit="10"/>
<path d="M77.9769 30.3811C77.9769 30.3811 78.6078 29.7924 79.1932 30.3811" stroke="#F5F5F5" stroke-width="1.9514" stroke-miterlimit="10"/>
<path d="M72.6501 30.3811L71.7568 30.3584" stroke="#F5F5F5" stroke-width="1.9514" stroke-miterlimit="10"/>
<path d="M84.5204 30.3811L85.5172 30.3648" stroke="#F5F5F5" stroke-width="1.9514" stroke-miterlimit="10"/>
<path d="M73.9197 22.0164C73.9197 22.0164 75.1989 25.6503 80.9706 25.5388C84.8925 25.4631 85.8297 28.3011 85.8297 28.3011C85.8297 28.3011 85.147 21.9565 84.9675 22.0164C84.788 22.0763 78.9997 20.4719 78.9997 20.4719L73.9197 22.0164Z" fill="#282828"/>
</g>
</svg>
