<svg width="209" height="91" viewBox="0 0 209 91" fill="none" xmlns="http://www.w3.org/2000/svg">
<path d="M222.592 52.7456C222.598 53.4937 222.583 54.2841 222.55 55.1092C222.543 55.2634 222.537 55.4205 222.529 55.5774C222.499 56.1981 222.459 56.838 222.408 57.4925C222.395 57.6412 222.384 57.7901 222.371 57.9407C222.356 58.1215 222.34 58.304 222.323 58.4866C222.252 59.258 222.167 60.0478 222.067 60.8504C222.047 61.013 222.026 61.1746 222.005 61.3371C221.904 62.1141 221.79 62.905 221.661 63.7023C221.635 63.8648 221.607 64.031 221.579 64.1945C221.448 64.978 221.305 65.7672 221.148 66.5591C221.115 66.7254 221.08 66.8917 221.047 67.057C220.919 67.6819 220.781 68.3067 220.638 68.9307C220.561 69.2596 220.483 69.5876 220.403 69.9146C220.208 70.7086 219.999 71.4981 219.777 72.2804C219.731 72.4439 219.684 72.6057 219.636 72.7694C219.402 73.5672 219.156 74.3569 218.893 75.1339C218.838 75.2984 218.781 75.463 218.724 75.6275C218.493 76.2903 218.251 76.944 218 77.5841C217.862 77.9352 217.72 78.2818 217.576 78.6247C217.233 79.4386 216.869 80.2299 216.488 80.9911C216.405 81.1567 216.321 81.3214 216.237 81.4842C215.804 82.3141 215.349 83.1058 214.869 83.8502C214.768 84.0085 214.666 84.1642 214.56 84.3181C213.979 85.1808 213.362 85.975 212.711 86.6838C212.502 86.9131 212.29 87.1341 212.073 87.3442C211.028 88.3634 209.9 89.1705 208.687 89.7125C208.598 89.7523 208.509 89.791 208.419 89.828C208.397 89.8372 208.374 89.8464 208.352 89.8557C208.176 89.9269 207.999 89.9917 207.82 90.0519L198.374 90.1151L171.672 90.2942L138.529 90.2689L125.573 90.2582L99.9379 90.2391L22.5061 90.1801C22.5061 90.1801 8.10017 81.7556 8.02292 67.0027C8.02185 66.7992 8.02337 66.5966 8.02754 66.3913C8.19824 58.5046 10.2322 43.4651 28.3578 35.5684C29.6596 35.0021 31.0454 34.4711 32.5197 33.9825C33.8376 33.5458 35.2259 33.1434 36.6896 32.778C38.5499 32.3138 40.529 31.9102 42.6365 31.5752C42.8431 31.5413 43.0515 31.5092 43.2606 31.478C44.2678 31.3258 45.2324 31.1474 46.157 30.9427C70.57 25.5653 67.5141 2.88748 99.7423 1.13827C102.693 0.976854 105.94 0.992647 109.531 1.21203C115.045 1.55091 119.594 2.87028 123.661 4.42854C127.963 6.07406 131.727 7.9861 135.526 9.27752L135.786 9.36557C139.513 10.6053 143.285 11.2307 147.644 10.4095C147.855 10.371 148.069 10.3269 148.284 10.2802C153.11 9.22841 157.618 8.44919 161.829 7.91707C161.916 7.90659 162.003 7.89521 162.09 7.88465C172.211 6.62897 180.613 6.81679 187.604 8.11973C187.691 8.13567 187.779 8.15168 187.864 8.16945C190.884 8.74584 193.638 9.53167 196.152 10.5004C196.854 10.7705 197.536 11.0544 198.201 11.3529C198.221 11.3619 198.241 11.37 198.262 11.3799C198.373 11.4304 198.483 11.481 198.593 11.5315C198.699 11.5802 198.804 11.6298 198.91 11.6785C198.92 11.6831 198.929 11.6885 198.939 11.693C199.758 12.0802 200.549 12.4893 201.312 12.9179C202.218 13.4269 203.086 13.9635 203.916 14.5267C204.152 14.687 204.386 14.8491 204.616 15.014C205.661 15.7577 206.644 16.5464 207.572 17.3719C207.755 17.5343 207.935 17.6985 208.114 17.8636C208.929 18.6204 209.7 19.4075 210.429 20.2231C210.616 20.432 210.799 20.6418 210.98 20.8535C211.633 21.6184 212.251 22.4054 212.835 23.2136C212.954 23.3772 213.07 23.5418 213.186 23.7063C213.725 24.4755 214.235 25.264 214.719 26.0672C214.824 26.2409 214.928 26.4174 215.03 26.5929C215.47 27.348 215.886 28.116 216.281 28.895C216.427 29.1863 216.572 29.4775 216.713 29.7715C216.958 30.2804 217.194 30.7947 217.421 31.3127C217.611 31.7461 217.796 32.1812 217.975 32.6193C218.292 33.3996 218.593 34.1864 218.876 34.9816C218.935 35.1455 218.993 35.3104 219.049 35.4744C219.24 36.0245 219.424 36.5774 219.6 37.134C219.674 37.3672 219.747 37.6023 219.818 37.8373C219.869 38.0013 219.919 38.1689 219.969 38.3347C220.011 38.4787 220.053 38.6226 220.095 38.7657C220.261 39.3433 220.422 39.9238 220.576 40.5061C220.592 40.5689 220.609 40.6327 220.626 40.6974C220.668 40.8614 220.711 41.0254 220.753 41.1895C220.952 41.9741 221.14 42.7615 221.317 43.5518C221.353 43.714 221.388 43.8772 221.425 44.0394C221.596 44.826 221.757 45.6144 221.909 46.4029C221.941 46.567 221.972 46.7311 222.003 46.8952C222.095 47.3802 222.182 47.8642 222.267 48.3475C222.301 48.548 222.334 48.7586 222.363 48.9775C222.375 49.0687 222.387 49.1626 222.398 49.2584C222.423 49.4617 222.446 49.6733 222.465 49.8904C222.531 50.6091 222.572 51.4009 222.587 52.2531C222.59 52.4152 222.591 52.5804 222.592 52.7456Z" fill="#EBF3FA"/>
<path d="M222.363 48.9772L222.407 57.4924C222.395 57.6412 222.384 57.79 222.371 57.9406C222.356 58.1214 222.34 58.304 222.323 58.4865C222.251 59.2579 222.166 60.0478 222.067 60.8503C222.047 61.0129 222.026 61.1745 222.005 61.337C221.904 62.114 221.79 62.9049 221.66 63.7022C221.634 63.8648 221.607 64.0309 221.579 64.1944C221.448 64.978 221.305 65.7671 221.148 66.5591C221.115 66.7253 221.08 66.8916 221.046 67.0569C220.919 67.6818 220.781 68.3066 220.638 68.9306C220.561 69.2595 220.483 69.5876 220.403 69.9146C220.208 70.7086 219.999 71.4981 219.777 72.2804C219.731 72.4439 219.683 72.6056 219.636 72.7693C219.402 73.5671 219.155 74.3568 218.893 75.1338C218.838 75.2983 218.781 75.4629 218.724 75.6274C218.493 76.2902 218.251 76.944 218 77.584C217.862 77.9351 217.72 78.2817 217.576 78.6247C217.233 79.4386 216.869 80.2298 216.488 80.991C216.405 81.1566 216.321 81.3213 216.237 81.4841C215.804 82.314 215.349 83.1058 214.869 83.8501C214.768 84.0085 214.665 84.1642 214.56 84.318C213.979 85.1807 213.362 85.975 212.711 86.6838C212.502 86.913 212.29 87.134 212.073 87.3441C211.028 88.3634 209.9 89.1704 208.687 89.7124C208.598 89.7522 208.509 89.7909 208.419 89.8279C208.397 89.8371 208.374 89.8464 208.352 89.8556L138.529 90.2687L125.573 90.2581L99.9377 90.239L22.506 90.1799C22.506 90.1799 8.09999 81.7555 8.02274 67.0026C8.02167 66.799 8.02319 66.5964 8.02736 66.3912C8.19806 58.5044 10.232 43.4649 28.3576 35.5682L28.3948 42.6682L32.5648 42.6464L32.5195 33.9824C33.8375 33.5457 35.2257 33.1433 36.6894 32.7779C38.5497 32.3138 40.5288 31.9102 42.6363 31.5752C42.8429 31.5412 43.0513 31.5092 43.2604 31.4779C44.2676 31.3257 45.2322 31.1473 46.1569 30.9427L46.2121 41.489L50.8207 41.4649L50.8078 39.0013L56.2437 38.9947L56.2228 35.0026L57.3172 34.9969L57.3131 34.2067L57.4575 34.2059L57.4617 34.9962L61.6585 34.9742L61.6585 34.9751L62.4986 34.9707L62.4944 34.1796L62.639 34.1788L62.6431 34.9699L63.6553 34.9646L63.6969 42.9041L70.1682 42.8702L70.1835 45.7919L73.78 45.7731L73.7711 44.076L77.1071 44.0585L77.0718 37.3226L78.7347 37.3139L78.7182 34.1714L78.97 34.17L78.9865 37.3126L82.9739 37.2917L82.9431 31.4027L83.3341 31.4006L83.365 37.2897L86.0028 37.2759L86.0024 37.1946L85.998 37.1947L85.9941 36.4473L85.9984 36.4473L85.9947 35.7392L85.9904 35.7393L85.9843 34.5631L85.9886 34.5631L85.9846 33.8103L85.9803 33.8103L85.9742 32.6341L85.9785 32.6341L85.9745 31.8822L85.9702 31.8822L85.9641 30.7052L85.9684 30.7051L85.9641 29.893L85.9598 29.893L85.9536 28.7159L85.958 28.7159L85.9526 27.682L85.9482 27.682L85.9421 26.5049L85.9464 26.5049L85.9423 25.7247L86.7279 25.7206L86.7233 24.8401L86.8497 24.8394L86.8543 25.7199L92.6767 25.6895L92.6721 24.8089L92.7976 24.8083L92.8022 25.6888L93.8646 25.6832L93.8968 31.8406L94.6452 31.8412L94.6452 31.8367L94.6391 31.8367L94.6329 30.6596L94.639 30.6596L94.6347 29.8474L94.6287 29.8475L94.6225 28.6704L94.6286 28.6704L94.6243 27.861L94.6183 27.861L94.6121 26.6841L94.6182 26.684L94.6182 26.6804L101.679 26.6434L101.679 26.6471L102.892 26.6407C102.956 26.6723 103.018 26.7021 103.082 26.7337L103.117 33.4531L108.278 33.4261L108.325 42.2497L112.494 42.2278L112.408 25.9101L113.316 25.9053L113.31 24.7639L113.472 24.763L113.478 25.9045L116.771 25.8873L116.765 24.7458L116.929 24.7449L116.935 25.8864L121.597 25.862L121.591 24.7205L121.755 24.7196L121.761 25.8611L124.694 25.8458L124.688 24.7043L124.851 24.7034L124.857 25.8449L126.063 25.8386L126.143 41.0705L130.75 41.0464L130.738 38.5828L136.173 38.5762L136.153 34.5841L137.247 34.5784L137.243 33.7882L137.387 33.7874L137.391 34.5776L141.588 34.5557L141.588 34.5566L142.427 34.5522L142.423 33.7611L142.568 33.7603L142.572 34.5514L143.584 34.5461L143.626 42.4856L150.098 42.4517L150.113 45.3734L153.71 45.3546L153.701 43.6574L157.037 43.64L157.002 36.9041L158.664 36.8954L158.648 33.7529L158.9 33.7515L158.916 36.8941L162.904 36.8732L162.873 30.9842L163.264 30.9821L163.295 36.8712L165.933 36.8573L165.932 36.7761L165.928 36.7761L165.924 36.0288L165.928 36.0288L165.924 35.3207L165.92 35.3207L165.914 34.1446L165.918 34.1445L165.914 33.3918L165.91 33.3918L165.904 32.2156L165.908 32.2156L165.904 31.4637L165.9 31.4637L165.894 30.2867L165.898 30.2866L165.894 29.4745L165.889 29.4745L165.883 28.2974L165.888 28.2974L165.882 27.2635L165.878 27.2635L165.872 26.0864L165.876 26.0864L165.872 25.3062L166.658 25.3021L166.654 24.4216L166.779 24.4209L166.784 25.3014L172.605 25.2709L172.601 24.3904L172.727 24.3898L172.732 25.2703L173.794 25.2647L173.826 31.4221L174.564 31.4228L174.575 31.4227L174.575 31.4182L174.569 31.4182L174.563 30.2411L174.569 30.2411L174.564 29.4289L174.558 29.429L174.552 28.2519L174.558 28.2519L174.554 27.4424L174.548 27.4425L174.542 26.2655L174.548 26.2655L174.548 26.2619L181.608 26.2249L181.608 26.2285L182.821 26.2222C182.884 26.2537 182.947 26.2835 183.01 26.3152L183.045 33.0346L191.709 32.9892L191.755 41.8137L195.925 41.7919L195.84 25.4732L196.747 25.4685L196.741 24.327L196.904 24.3262L196.91 25.4676L200.203 25.4504L200.197 24.3089L200.36 24.3081L200.365 25.4496L205.029 25.4251L205.023 24.2837L205.185 24.2828L205.191 25.4243L209.494 25.4018L209.574 40.6346L214.182 40.6104L214.169 38.1458L219.605 38.1392L219.6 37.1337C219.674 37.3669 219.747 37.602 219.818 37.837C219.868 38.001 219.919 38.1686 219.969 38.3345C220.011 38.4784 220.052 38.6223 220.095 38.7654C220.261 39.343 220.422 39.9235 220.575 40.5058C220.592 40.5686 220.609 40.6324 220.626 40.6971C220.668 40.8611 220.71 41.0252 220.753 41.1892C220.952 41.9738 221.14 42.7612 221.316 43.5515C221.353 43.7137 221.388 43.8769 221.424 44.0391C221.596 44.8257 221.757 45.6141 221.908 46.4026C221.94 46.5667 221.972 46.7308 222.003 46.8949C222.094 47.3799 222.182 47.8639 222.266 48.3472C222.301 48.5477 222.333 48.7584 222.363 48.9772Z" fill="#D5E5FB"/>
<path d="M126.065 25.8383L115.647 25.8929L115.66 28.475L126.079 28.4205L126.065 25.8383Z" fill="#E2EEFD"/>
<path d="M126.086 29.8125L115.668 29.8671L115.681 32.4492L126.1 32.3947L126.086 29.8125Z" fill="#E2EEFD"/>
<path d="M126.107 33.8696L115.689 33.9242L115.703 36.5063L126.121 36.4518L126.107 33.8696Z" fill="#E2EEFD"/>
<path d="M126.129 37.9913L115.711 38.0459L115.724 40.6281L126.142 40.5735L126.129 37.9913Z" fill="#E2EEFD"/>
<path d="M126.15 41.9683L115.732 42.0228L115.745 44.605L126.163 44.5505L126.15 41.9683Z" fill="#E2EEFD"/>
<path d="M170.747 25.2811L165.886 25.3065L165.894 26.8747L170.755 26.8492L170.747 25.2811Z" fill="#E2EEFD"/>
<path d="M170.76 27.6947L165.899 27.7202L165.907 29.2883L170.768 29.2629L170.76 27.6947Z" fill="#E2EEFD"/>
<path d="M170.773 30.1586L165.912 30.184L165.92 31.7522L170.781 31.7267L170.773 30.1586Z" fill="#E2EEFD"/>
<path d="M170.786 32.6618L165.925 32.6872L165.933 34.2553L170.794 34.2299L170.786 32.6618Z" fill="#E2EEFD"/>
<path d="M170.798 35.077L165.938 35.1024L165.946 36.6706L170.807 36.6451L170.798 35.077Z" fill="#E2EEFD"/>
<path d="M170.812 37.7352L165.951 37.7607L165.96 39.3288L170.82 39.3034L170.812 37.7352Z" fill="#E2EEFD"/>
<path d="M170.825 40.1489L165.964 40.1743L165.972 41.7425L170.833 41.717L170.825 40.1489Z" fill="#E2EEFD"/>
<path d="M170.838 42.6127L165.977 42.6381L165.985 44.2063L170.846 44.1809L170.838 42.6127Z" fill="#E2EEFD"/>
<path d="M170.851 45.1159L165.99 45.1413L165.998 46.7094L170.859 46.684L170.851 45.1159Z" fill="#E2EEFD"/>
<path d="M170.864 47.5311L166.003 47.5566L166.011 49.1247L170.872 49.0993L170.864 47.5311Z" fill="#E2EEFD"/>
<path d="M179.747 26.2623L174.538 26.2896L174.546 27.8577L179.755 27.8304L179.747 26.2623Z" fill="#E2EEFD"/>
<path d="M179.759 28.676L174.55 28.7032L174.559 30.2714L179.768 30.2441L179.759 28.676Z" fill="#E2EEFD"/>
<path d="M179.772 31.1397L174.563 31.167L174.571 32.7351L179.78 32.7079L179.772 31.1397Z" fill="#E2EEFD"/>
<path d="M179.785 33.6429L174.576 33.6702L174.584 35.2383L179.793 35.2111L179.785 33.6429Z" fill="#E2EEFD"/>
<path d="M179.798 36.0582L174.589 36.0855L174.597 37.6536L179.806 37.6264L179.798 36.0582Z" fill="#E2EEFD"/>
<path d="M179.811 38.5763L174.602 38.6036L174.61 40.1717L179.819 40.1445L179.811 38.5763Z" fill="#E2EEFD"/>
<path d="M179.824 40.99L174.615 41.0172L174.623 42.5854L179.832 42.5581L179.824 40.99Z" fill="#E2EEFD"/>
<path d="M179.837 43.4537L174.628 43.481L174.636 45.0491L179.845 45.0219L179.837 43.4537Z" fill="#E2EEFD"/>
<path d="M179.85 45.9569L174.641 45.9841L174.649 47.5524L179.858 47.5251L179.85 45.9569Z" fill="#E2EEFD"/>
<path d="M179.863 48.3722L174.653 48.3994L174.662 49.9676L179.871 49.9403L179.863 48.3722Z" fill="#E2EEFD"/>
<path d="M179.877 51.1422L174.668 51.1695L174.676 52.7376L179.885 52.7104L179.877 51.1422Z" fill="#E2EEFD"/>
<path d="M179.89 53.5558L174.681 53.5831L174.689 55.1512L179.898 55.124L179.89 53.5558Z" fill="#E2EEFD"/>
<path d="M179.902 56.0197L174.693 56.0469L174.702 57.6151L179.911 57.5878L179.902 56.0197Z" fill="#E2EEFD"/>
<path d="M179.916 58.5229L174.707 58.5502L174.715 60.1183L179.924 60.091L179.916 58.5229Z" fill="#E2EEFD"/>
<path d="M179.928 60.9381L174.719 60.9653L174.727 62.5335L179.937 62.5062L179.928 60.9381Z" fill="#E2EEFD"/>
<path d="M209.494 25.4015L200.01 25.4511L200.023 28.0333L209.508 27.9836L209.494 25.4015Z" fill="#E2EEFD"/>
<path d="M209.515 29.3757L200.03 29.4253L200.044 32.0075L209.529 31.9578L209.515 29.3757Z" fill="#E2EEFD"/>
<path d="M209.536 33.4328L200.052 33.4824L200.065 36.0646L209.55 36.0149L209.536 33.4328Z" fill="#E2EEFD"/>
<path d="M209.558 37.5545L200.073 37.6042L200.087 40.1863L209.572 40.1367L209.558 37.5545Z" fill="#E2EEFD"/>
<path d="M209.579 41.5315L200.094 41.5811L200.108 44.1633L209.592 44.1136L209.579 41.5315Z" fill="#E2EEFD"/>
<path d="M91.1029 25.6981L85.8938 25.7254L85.902 27.2935L91.1111 27.2662L91.1029 25.6981Z" fill="#E2EEFD"/>
<path d="M91.1157 28.1118L85.9066 28.139L85.9148 29.7072L91.1239 29.6799L91.1157 28.1118Z" fill="#E2EEFD"/>
<path d="M91.1284 30.5756L85.9193 30.6029L85.9275 32.171L91.1366 32.1437L91.1284 30.5756Z" fill="#E2EEFD"/>
<path d="M91.1416 33.0788L85.9325 33.106L85.9407 34.6742L91.1498 34.6469L91.1416 33.0788Z" fill="#E2EEFD"/>
<path d="M91.1543 35.494L85.9452 35.5213L85.9534 37.0894L91.1625 37.0621L91.1543 35.494Z" fill="#E2EEFD"/>
<path d="M91.1681 38.1522L85.959 38.1795L85.9672 39.7476L91.1763 39.7204L91.1681 38.1522Z" fill="#E2EEFD"/>
<path d="M91.1809 40.5659L85.9718 40.5932L85.98 42.1613L91.1891 42.134L91.1809 40.5659Z" fill="#E2EEFD"/>
<path d="M91.1938 43.0297L85.9847 43.0569L85.993 44.6252L91.2021 44.5979L91.1938 43.0297Z" fill="#E2EEFD"/>
<path d="M91.2069 45.5329L85.9978 45.5602L86.006 47.1283L91.2151 47.101L91.2069 45.5329Z" fill="#E2EEFD"/>
<path d="M91.2196 47.9482L86.0105 47.9754L86.0187 49.5436L91.2278 49.5163L91.2196 47.9482Z" fill="#E2EEFD"/>
<path d="M100.64 26.6765L94.7196 26.7075L94.7278 28.2756L100.648 28.2446L100.64 26.6765Z" fill="#E2EEFD"/>
<path d="M100.653 29.0902L94.7323 29.1212L94.7405 30.6893L100.661 30.6583L100.653 29.0902Z" fill="#E2EEFD"/>
<path d="M100.665 31.5539L94.7451 31.5849L94.7533 33.1531L100.674 33.1221L100.665 31.5539Z" fill="#E2EEFD"/>
<path d="M100.679 34.0571L94.7582 34.0881L94.7664 35.6563L100.687 35.6253L100.679 34.0571Z" fill="#E2EEFD"/>
<path d="M100.691 36.4724L94.771 36.5034L94.7792 38.0716L100.7 38.0406L100.691 36.4724Z" fill="#E2EEFD"/>
<path d="M100.705 38.9905L94.7842 39.0215L94.7924 40.5897L100.713 40.5587L100.705 38.9905Z" fill="#E2EEFD"/>
<path d="M100.717 41.4042L94.7969 41.4352L94.8051 43.0033L100.725 42.9723L100.717 41.4042Z" fill="#E2EEFD"/>
<path d="M100.73 43.8679L94.8097 43.8989L94.8179 45.4671L100.738 45.4361L100.73 43.8679Z" fill="#E2EEFD"/>
<path d="M100.743 46.3711L94.8228 46.4021L94.831 47.9703L100.751 47.9393L100.743 46.3711Z" fill="#E2EEFD"/>
<path d="M100.756 48.7864L94.8356 48.8174L94.8438 50.3855L100.764 50.3545L100.756 48.7864Z" fill="#E2EEFD"/>
<path d="M100.77 51.5564L94.8499 51.5874L94.8581 53.1555L100.778 53.1246L100.77 51.5564Z" fill="#E2EEFD"/>
<path d="M100.783 53.97L94.8625 54.001L94.8708 55.5692L100.791 55.5382L100.783 53.97Z" fill="#E2EEFD"/>
<path d="M100.796 56.4339L94.8754 56.4649L94.8836 58.033L100.804 58.002L100.796 56.4339Z" fill="#E2EEFD"/>
<path d="M100.809 58.9371L94.8885 58.9681L94.8968 60.5362L100.817 60.5052L100.809 58.9371Z" fill="#E2EEFD"/>
<path d="M100.822 61.3523L94.9012 61.3833L94.9095 62.9514L100.83 62.9204L100.822 61.3523Z" fill="#E2EEFD"/>
<path d="M88.2489 16.9195C88.2489 16.9195 89.947 14.082 94.0447 14.3749C94.0447 14.3749 99.9667 9.62935 106.329 13.682C106.329 13.682 113.065 12.6343 118.067 14.4971C121.402 15.7392 122.508 17.0545 122.508 17.0545L88.2489 16.9195Z" fill="#F8FCFF"/>
<path d="M124.938 24.6884C124.938 24.6884 126.038 22.7586 128.693 22.9585C128.693 22.9585 132.529 19.7315 136.652 22.4892C136.652 22.4892 141.016 21.7778 144.258 23.0457C146.419 23.8911 147.136 24.786 147.136 24.786L124.938 24.6884Z" fill="#F8FCFF"/>
<path d="M156.219 16.0312C156.219 16.0312 157.22 14.1544 159.638 14.3497C159.638 14.3497 163.13 11.212 166.886 13.8958C166.886 13.8958 170.86 13.2052 173.812 14.4396C175.78 15.2626 176.433 16.1334 176.433 16.1334L156.219 16.0312Z" fill="#F8FCFF"/>
<path d="M130.455 84.991L194.356 84.6565L215.927 82.5995C215.927 82.5995 212.015 72.9978 210.962 72.8587C209.908 72.7197 132.418 73.27 132.418 73.27L130.455 84.991Z" fill="#1D2949"/>
<path d="M225.152 83.5479C223.565 84.207 213.953 84.402 213.953 84.402C213.953 84.402 214.109 72.6195 204.214 74.0445C194.319 75.4694 196.102 85.2387 196.102 85.2387L148.502 86.3377C148.502 86.3377 149.21 73.9138 138.706 75.2754C129.979 76.4064 132.275 86.376 132.275 86.376C127.771 86.6318 125.352 85.9653 124.068 85.2631C124.067 85.2631 124.067 85.2622 124.067 85.2622C123.1 83.9149 123.656 83.1206 123.711 82.9813C123.765 82.842 123.559 80.5412 123.53 80.2084C123.513 80.0213 123.916 79.5422 124.272 79.159C124.566 78.8427 124.583 78.3587 124.309 78.0246L123.83 77.4399C123.283 76.7724 123.154 75.856 123.495 75.0636L124.43 72.8928C124.43 72.8928 124.43 72.8928 124.431 72.8919C127.488 67.5763 151.668 66.0033 151.668 66.0033C155.331 63.8728 158.368 62.2873 160.745 61.1347C164.536 59.2964 168.86 57.5004 173.051 57.0639C184.399 55.8818 193.741 57.1046 196.032 57.4638C198.708 57.8834 212.183 63.6675 213.198 64.1682C214.211 64.6689 222.468 65.3114 223.529 65.4348C224.59 65.5573 224.563 66.6178 224.563 66.6178L224.714 67.5574L225.287 71.1363L225.426 72.0102C226.2 72.3915 226.206 73.4957 226.206 73.4957C226.206 73.4957 226.738 82.8888 225.152 83.5479Z" fill="#52B69A"/>
<path d="M145.364 88.153C148.212 85.2751 148.187 80.6335 145.31 77.7856C142.432 74.9377 137.79 74.9621 134.942 77.8399C132.094 80.7178 132.119 85.3594 134.996 88.2073C137.874 91.0551 142.516 91.0308 145.364 88.153Z" fill="#2C3A64"/>
<path d="M140.184 88.7296C137.023 88.7462 134.438 86.1878 134.421 83.0265C134.405 79.8653 136.963 77.28 140.124 77.2634C143.286 77.2469 145.871 79.8053 145.888 82.9665C145.904 86.1277 143.346 88.7131 140.184 88.7296ZM140.127 77.7935C137.258 77.8085 134.936 80.1548 134.951 83.0238C134.966 85.8928 137.313 88.2146 140.182 88.1996C143.051 88.1845 145.373 85.8383 145.357 82.9693C145.342 80.1003 142.996 77.7785 140.127 77.7935Z" fill="#AFCDFB"/>
<path d="M141.162 88.4651L139.108 88.4759L139.738 82.8427L138.956 77.4996L141.304 77.6322L140.549 82.8385L141.162 88.4651Z" fill="#AFCDFB"/>
<path d="M135.911 86.5919L134.875 84.8183L140.069 82.5478L144.306 79.1998L145.365 81.2999L140.478 83.2485L135.911 86.5919Z" fill="#AFCDFB"/>
<path d="M135.058 80.9016L136.177 79.1795L140.538 82.8005L145.432 85.0831L144.031 86.9724L140.096 83.4809L135.058 80.9016Z" fill="#AFCDFB"/>
<path d="M138.23 82.9963C138.225 81.94 139.077 81.0791 140.133 81.0736C141.19 81.0681 142.05 81.9199 142.056 82.9763C142.061 84.0327 141.21 84.8936 140.153 84.8991C139.097 84.9047 138.236 84.0527 138.23 82.9963Z" fill="#AFCDFB"/>
<path d="M212.302 84.3188C213.212 80.3737 210.752 76.4381 206.807 75.5283C202.861 74.6186 198.926 77.0792 198.016 81.0243C197.106 84.9694 199.567 88.9051 203.512 89.8148C207.457 90.7246 211.393 88.2639 212.302 84.3188Z" fill="#2C3A64"/>
<path d="M205.185 88.3895C202.023 88.406 199.438 85.8477 199.422 82.6864C199.405 79.5252 201.963 76.9399 205.125 76.9233C208.286 76.9068 210.871 79.4651 210.888 82.6264C210.904 85.7876 208.346 88.3729 205.185 88.3895ZM205.127 77.4534C202.258 77.4684 199.937 79.8146 199.952 82.6836C199.967 85.5527 202.313 87.8745 205.182 87.8594C208.051 87.8444 210.373 85.4982 210.358 82.6292C210.343 79.7601 207.996 77.4383 205.127 77.4534Z" fill="#AFCDFB"/>
<path d="M206.162 88.1248L204.108 88.1356L204.737 82.5024L203.956 77.1593L206.304 77.2919L205.549 82.4982L206.162 88.1248Z" fill="#AFCDFB"/>
<path d="M200.911 86.2516L199.875 84.478L205.068 82.2075L209.305 78.8595L210.364 80.9596L205.478 82.9082L200.911 86.2516Z" fill="#AFCDFB"/>
<path d="M200.058 80.5614L201.177 78.8392L205.538 82.4603L210.432 84.7428L209.031 86.6322L205.096 83.1407L200.058 80.5614Z" fill="#AFCDFB"/>
<path d="M203.23 82.6561C203.225 81.5997 204.077 80.7388 205.133 80.7333C206.189 80.7278 207.05 81.5797 207.056 82.636C207.061 83.6924 206.209 84.5533 205.153 84.5588C204.097 84.5644 203.236 83.7124 203.23 82.6561Z" fill="#AFCDFB"/>
<path d="M133.024 73.5252L131.153 75.5748C130.884 75.8692 130.505 76.0377 130.107 76.0398L124.335 76.07C123.995 76.0718 123.778 75.7068 123.942 75.4088L124.106 75.1133C124.308 74.7477 124.557 74.4176 124.845 74.1306C124.846 74.1297 124.847 74.1297 124.847 74.1297C125.651 73.3274 126.749 72.8563 127.918 72.8502L132.713 72.8251C133.078 72.8232 133.27 73.2559 133.024 73.5252Z" fill="#AFCDFB"/>
<path d="M126.943 83.0654L125.306 83.074C124.764 83.0768 124.267 83.3723 124.005 83.8465L123.949 83.9472C123.893 84.0489 123.967 84.1734 124.083 84.1728L126.053 84.1625C126.189 84.1618 126.319 84.1043 126.41 84.0039L127.049 83.3043C127.133 83.2124 127.067 83.0647 126.943 83.0654Z" fill="#1D2949"/>
<path d="M206.114 65.0242L181.647 65.7334C181.167 65.7474 180.77 65.3635 180.768 64.8841L180.738 59.2463C180.736 58.8025 181.097 58.4431 181.541 58.447C191.976 58.5374 195.554 58.8096 197.702 59.5382C199.597 60.1808 204.035 62.841 206.328 64.1908C206.715 64.4186 206.563 65.0112 206.114 65.0242Z" fill="#AFCDFB"/>
<path d="M178.605 58.4258C179.002 58.428 179.39 58.4308 179.77 58.4336L179.809 65.7869L156.205 66.4709C155.897 66.4798 155.768 66.082 156.022 65.9086C158.771 64.0351 167.98 58.3609 178.605 58.4258Z" fill="#AFCDFB"/>
<path d="M206.03 65.0266L206.017 65.0272L206.012 64.005C206.096 64.0547 206.177 64.1025 206.256 64.1488C206.664 64.3886 206.504 65.013 206.03 65.0266Z" fill="#AFCDFB"/>
<path d="M180.774 66.0788L177.882 65.8649L178.033 57.9995L180.732 57.9854L180.774 66.0788Z" fill="#739AF0"/>
<path d="M199.085 65.9829L197.736 65.99L197.699 58.9278L199.053 59.7305L199.085 65.9829Z" fill="#739AF0"/>
<path d="M159.138 63.984L159.87 66.3647L155.933 66.4787C155.703 66.4854 155.602 66.1915 155.788 66.0564C156.674 65.4122 158.316 64.2642 159.138 63.984Z" fill="#2C3A64"/>
<path d="M155.763 66.6762C155.602 66.677 155.46 66.5761 155.409 66.4227C155.357 66.2665 155.412 66.0979 155.547 66.003L155.629 65.946C155.714 65.8864 155.809 65.8209 155.913 65.7495C155.999 65.6908 156.092 65.6288 156.19 65.563L156.339 65.4642C156.451 65.3896 156.57 65.3119 156.697 65.2303C156.787 65.1722 156.88 65.1124 156.977 65.0506L156.993 65.0406C157.007 65.032 157.021 65.0231 157.035 65.0146C157.116 64.9632 157.202 64.909 157.29 64.8541L157.31 64.842C157.339 64.8238 157.368 64.8054 157.398 64.7872C157.442 64.76 157.488 64.7314 157.535 64.703C157.599 64.6634 157.665 64.6234 157.732 64.5828C157.92 64.4681 158.123 64.3471 158.334 64.2237C158.4 64.1853 158.466 64.1466 158.534 64.1075C158.667 64.0299 158.804 63.9516 158.944 63.8722L159.043 63.816C159.327 63.6565 159.614 63.4983 159.897 63.3458L159.99 63.2961C160.033 63.2731 160.077 63.25 160.12 63.2266C160.66 62.9402 161.215 62.6592 161.77 62.3907L161.942 62.308C162.115 62.2249 162.291 62.1423 162.47 62.0595C162.529 62.0318 162.589 62.0042 162.65 61.9766C162.768 61.9216 162.89 61.8666 163.013 61.8118L163.197 61.7297C163.38 61.6477 163.576 61.5624 163.794 61.4691C163.907 61.4211 164.021 61.3732 164.135 61.3252C164.905 61.003 165.69 60.7 166.468 60.4243L166.639 60.3642C166.703 60.3417 166.767 60.3195 166.832 60.2974L167.074 60.2146C167.14 60.1924 167.206 60.1706 167.271 60.1488L167.279 60.1463C167.347 60.1232 167.416 60.1004 167.486 60.0782C167.611 60.0375 167.736 59.9966 167.863 59.9568C167.949 59.9294 168.036 59.9023 168.124 59.8751C168.257 59.8341 168.391 59.7933 168.526 59.753L168.749 59.6874C168.89 59.6464 169.031 59.6058 169.174 59.5664C169.455 59.4874 169.742 59.4107 170.025 59.3384L170.043 59.3339C170.068 59.3273 170.093 59.3208 170.118 59.3146C170.239 59.2839 170.362 59.2532 170.486 59.2234C170.559 59.2054 170.634 59.1874 170.709 59.17L170.765 59.1568C170.821 59.1437 170.876 59.1305 170.932 59.118C171.006 59.1008 171.081 59.0839 171.156 59.0671C171.231 59.0502 171.306 59.0338 171.38 59.0175C171.456 59.001 171.532 58.9851 171.607 58.9692C171.682 58.953 171.758 58.9375 171.834 58.922L171.847 58.9195C171.919 58.9049 171.99 58.8904 172.062 58.8763C172.134 58.8619 172.205 58.8481 172.278 58.834C172.359 58.8186 172.44 58.8036 172.521 58.7886C172.573 58.7789 172.625 58.7695 172.677 58.7601L172.751 58.7469C172.905 58.7197 173.058 58.6932 173.212 58.6682C173.289 58.6554 173.367 58.6431 173.445 58.6306L173.456 58.6287C173.593 58.6075 173.729 58.587 173.866 58.5675C174.12 58.5309 174.377 58.4969 174.627 58.4666L174.643 58.4646C174.714 58.4562 174.784 58.4477 174.854 58.44C174.903 58.4341 174.955 58.4284 175.006 58.4232C175.056 58.417 175.111 58.4112 175.166 58.4059C175.223 58.3995 175.284 58.3933 175.344 58.3876C175.423 58.3795 175.503 58.3719 175.584 58.3646C175.66 58.3575 175.737 58.3507 175.815 58.3444C175.876 58.3392 175.935 58.3342 175.994 58.3295L176.336 58.3044C176.404 58.2997 176.471 58.2955 176.539 58.2912L176.569 58.2895C176.643 58.2848 176.719 58.2806 176.795 58.2768C176.854 58.2736 176.915 58.2703 176.976 58.2676L176.982 58.2673C177.036 58.2647 177.09 58.262 177.144 58.2599L177.278 58.2544C177.332 58.2525 177.385 58.2505 177.438 58.2488C177.649 58.2412 177.846 58.3182 177.996 58.4634C178.147 58.6084 178.231 58.8033 178.232 59.0122L178.264 65.1059C178.266 65.6124 177.856 66.0364 177.35 66.0512L155.772 66.6763C155.769 66.6761 155.766 66.6761 155.763 66.6762ZM159.313 64.1064L159.18 64.1816C159.025 64.2691 158.874 64.3552 158.727 64.4408C158.66 64.4798 158.594 64.518 158.529 64.5562C158.32 64.6788 158.119 64.7985 157.932 64.9124C157.865 64.9529 157.8 64.9926 157.736 65.0319C157.69 65.0597 157.645 65.0877 157.6 65.1154C157.57 65.134 157.542 65.1516 157.514 65.169L157.494 65.1816C157.406 65.2361 157.321 65.2897 157.238 65.3419L157.183 65.3761C157.088 65.4369 156.995 65.4965 156.906 65.5542C156.781 65.6349 156.663 65.7116 156.552 65.7851L156.404 65.8833C156.307 65.9484 156.216 66.0098 156.131 66.0678C156.028 66.138 155.934 66.2026 155.85 66.2619L155.811 66.2891L159.864 66.1717L177.339 65.6653C177.637 65.6566 177.879 65.4064 177.878 65.1074L177.846 59.0137C177.845 58.9097 177.804 58.8128 177.729 58.7406C177.654 58.6683 177.555 58.6304 177.45 58.6336C177.398 58.6353 177.345 58.6372 177.293 58.6392L177.159 58.6447C177.106 58.6468 177.053 58.6494 177 58.6519L176.993 58.6522C176.933 58.6549 176.873 58.6581 176.814 58.6613C176.74 58.6651 176.665 58.6692 176.592 58.6739L176.562 58.6756C176.496 58.6797 176.43 58.6839 176.363 58.6885L176.023 58.7134C175.965 58.7179 175.908 58.7228 175.85 58.7279C175.77 58.7343 175.694 58.7409 175.619 58.748C175.539 58.7552 175.46 58.7628 175.381 58.7708C175.322 58.7764 175.264 58.7824 175.205 58.7889C175.151 58.7941 175.1 58.7995 175.049 58.8058C174.996 58.8112 174.947 58.8167 174.898 58.8226C174.827 58.8303 174.758 58.8386 174.689 58.8469L174.673 58.8488C174.426 58.8789 174.172 58.9124 173.92 58.9486C173.785 58.968 173.65 58.9884 173.516 59.0092L173.505 59.011C173.428 59.0232 173.351 59.0355 173.275 59.0482C173.122 59.0731 172.97 59.0993 172.819 59.126L172.745 59.1392C172.694 59.1484 172.643 59.1576 172.591 59.1673C172.51 59.1822 172.43 59.1969 172.35 59.2122C172.279 59.226 172.208 59.2398 172.137 59.254C172.065 59.2681 171.994 59.2825 171.923 59.2969L171.911 59.2994C171.836 59.3145 171.762 59.3297 171.688 59.3458C171.612 59.3619 171.537 59.3776 171.462 59.3938C171.388 59.4099 171.314 59.4261 171.24 59.4428C171.166 59.4595 171.092 59.4761 171.018 59.4933C170.962 59.5059 170.908 59.5188 170.853 59.5316L170.796 59.5449C170.723 59.5621 170.65 59.5796 170.577 59.5976C170.453 59.6273 170.332 59.6576 170.211 59.6884C170.185 59.6946 170.162 59.7005 170.139 59.7066L170.121 59.7113C169.84 59.7831 169.556 59.8592 169.277 59.9374C169.136 59.9767 168.996 60.0165 168.857 60.0571L168.634 60.1224C168.502 60.1621 168.369 60.2026 168.237 60.2432C168.151 60.2699 168.065 60.2966 167.979 60.3239C167.853 60.3637 167.728 60.4041 167.604 60.4446C167.536 60.4665 167.468 60.4887 167.401 60.5114L167.393 60.5142C167.328 60.5357 167.263 60.5574 167.198 60.5794L166.956 60.6617C166.893 60.6834 166.829 60.7053 166.766 60.7274L166.597 60.7873C165.825 61.0607 165.047 61.3611 164.284 61.6804C164.17 61.728 164.057 61.7757 163.945 61.8235C163.729 61.9157 163.535 62.0002 163.353 62.0814L163.17 62.1633C163.048 62.2176 162.929 62.2718 162.81 62.3266C162.749 62.3541 162.691 62.381 162.632 62.4084C162.454 62.4909 162.28 62.5729 162.108 62.6553L161.936 62.7378C161.386 63.0038 160.836 63.2827 160.301 63.5663C160.259 63.5894 160.215 63.6127 160.171 63.6359L160.079 63.6851C159.826 63.822 159.568 63.9635 159.313 64.1064Z" fill="#1D2949"/>
<path d="M199.486 65.4174C199.342 65.4182 199.204 65.3623 199.097 65.2592C198.978 65.1443 198.909 64.9799 198.908 64.8085L198.887 60.6937C198.886 60.4596 198.919 60.1606 199.108 60.0415C199.279 59.9336 199.568 60.0099 199.749 60.0977C199.951 60.1956 200.092 60.2657 200.168 60.3062C200.176 60.3102 200.187 60.3162 200.198 60.3223L200.28 60.3666C201.309 60.9213 202.773 61.7953 204.634 62.9644C204.713 63.0138 204.792 63.0635 204.87 63.1128C205.057 63.231 205.24 63.3467 205.415 63.4583L206.068 63.8746C206.181 63.9473 206.29 64.0173 206.394 64.0841C206.408 64.093 206.424 64.1034 206.44 64.1137L206.454 64.1228C206.672 64.2627 206.769 64.5311 206.697 64.7908C206.629 65.0371 206.428 65.2011 206.186 65.2086L206.116 65.2107L199.5 65.4172C199.495 65.4174 199.49 65.4174 199.486 65.4174ZM199.495 60.3802C199.44 60.3805 199.395 60.4016 199.368 60.4185C199.28 60.4743 199.228 60.5765 199.228 60.6919L199.25 64.8067C199.25 64.8867 199.281 64.9621 199.334 65.0135C199.378 65.0555 199.433 65.0772 199.489 65.076L206.176 64.8674C206.312 64.8632 206.358 64.7379 206.368 64.6996C206.393 64.611 206.382 64.482 206.27 64.4101L206.256 64.4009C206.241 64.3914 206.226 64.3817 206.211 64.3723C206.106 64.3044 205.997 64.2345 205.884 64.162L205.233 63.7467C205.057 63.635 204.875 63.5196 204.688 63.4016C204.61 63.3526 204.532 63.3032 204.452 63.2538C202.598 62.0885 201.14 61.2183 200.119 60.6671L200.035 60.6223C200.027 60.6177 200.019 60.6132 200.01 60.609C199.936 60.5695 199.796 60.4995 199.6 60.4049C199.563 60.3868 199.527 60.38 199.495 60.3802Z" fill="#1D2949"/>
<path d="M159.138 63.984L159.87 66.3647L155.933 66.4787C155.703 66.4854 155.602 66.1915 155.788 66.0564C156.674 65.4122 158.316 64.2642 159.138 63.984Z" fill="#2C3A64"/>
<path d="M181.626 65.9267C181.352 65.9281 181.093 65.8244 180.894 65.633C180.69 65.4354 180.576 65.17 180.575 64.8856L180.545 59.2473C180.544 58.981 180.647 58.7308 180.836 58.5427C181.025 58.3544 181.276 58.2538 181.542 58.2543C192.314 58.3479 195.651 58.5747 197.77 59.3576L197.895 59.4039L197.927 65.4549L181.652 65.9262C181.643 65.9264 181.635 65.9266 181.626 65.9267ZM181.53 58.6399C181.371 58.6407 181.221 58.703 181.108 58.8157C180.993 58.9304 180.93 59.0829 180.931 59.2452L180.96 64.8836C180.961 65.0632 181.033 65.2309 181.162 65.3557C181.291 65.4804 181.463 65.5469 181.641 65.5409L197.54 65.0804L197.511 59.6743C195.449 58.9545 191.918 58.7298 181.539 58.6399C181.536 58.6398 181.533 58.6398 181.53 58.6399Z" fill="#1D2949"/>
<path d="M179.564 58.3638L179.409 83.053L179.602 83.0542L179.757 58.365L179.564 58.3638Z" fill="#1D2949"/>
<path d="M196.015 82.6015L148.393 83.8036L148.397 83.9963L196.02 82.7941L196.015 82.6015Z" fill="#1D2949"/>
<path d="M176.805 70.9177C176.806 71.1787 175.642 71.3966 174.205 71.4041C172.768 71.4117 171.602 71.2061 171.601 70.945C171.599 70.6838 172.763 70.466 174.2 70.4585C175.637 70.451 176.803 70.6565 176.805 70.9177Z" fill="#2C3A64"/>
<path d="M201.038 70.7908C201.039 71.0519 199.875 71.2697 198.438 71.2773C197.001 71.2848 195.835 71.0792 195.834 70.8181C195.833 70.557 196.996 70.3392 198.433 70.3316C199.871 70.324 201.037 70.5296 201.038 70.7908Z" fill="#2C3A64"/>
<path d="M194.161 82.7196L193.968 82.7101C194.088 80.2549 194.805 78.1824 196.098 76.5501C197.133 75.2443 198.536 74.2173 200.268 73.4978C202.903 72.4032 205.518 72.3615 206.056 72.3664L206.018 65.0246L206.211 65.0236L206.25 72.5644L206.15 72.5607C206.121 72.5596 203.24 72.4701 200.336 73.6781C198.636 74.3853 197.26 75.3928 196.247 76.6726C194.981 78.2723 194.279 80.3068 194.161 82.7196Z" fill="#1D2949"/>
<path d="M154.2 83.7478C154.092 77.38 154.423 72.972 154.72 70.3954C155.043 67.5996 155.396 66.292 155.4 66.2791L155.586 66.3301C155.572 66.3813 154.186 71.5879 154.392 83.7446L154.2 83.7478Z" fill="#1D2949"/>
<path d="M181.54 58.3505L177.77 58.3703L177.771 58.5631L181.541 58.5433L181.54 58.3505Z" fill="#1D2949"/>
<path d="M162.67 67.368L159.611 67.384C159.062 67.3869 158.61 66.9399 158.607 66.3906L158.603 65.5583C158.6 65.0091 159.047 64.5573 159.596 64.5544L162.655 64.5384C163.204 64.5355 163.656 64.9826 163.659 65.5318L163.663 66.3641C163.666 66.9134 163.219 67.3651 162.67 67.368Z" fill="#6390E0"/>
<path d="M8.98554 85.2896L72.8869 84.955L94.4578 82.898C94.4578 82.898 90.5457 73.2964 89.4922 73.1574C88.4387 73.0183 10.9482 73.5686 10.9482 73.5686L8.98554 85.2896Z" fill="#1D2949"/>
<path d="M104.484 75.2017C104.262 75.9852 104.474 73.5156 104.484 75.2017C104.488 75.8641 103.636 79.0452 103.307 79.7819C103.051 78.7187 103.164 80.1013 103.307 79.7819C103.307 79.7819 101.426 83.1472 101.364 83.2931C101.303 83.439 101.203 84.251 101.203 84.251C99.6159 84.9101 92.4843 84.7002 92.4843 84.7002C92.4843 84.7002 92.639 72.9185 82.7447 74.3435C72.8504 75.7684 74.6317 85.5377 74.6317 85.5377L27.0318 86.6358C27.0318 86.6358 27.74 74.2129 17.2369 75.5736C8.51031 76.7046 10.8054 86.6742 10.8054 86.6742C2.10208 87.17 1.18702 84.2187 1.18702 84.2187L1.18063 82.9988L1.72659 82.9959L1.70976 79.7828L1.16388 79.7856L1.15135 77.3931L2.96105 73.1909C3.72558 71.862 5.80954 70.7668 8.5071 69.8721C16.5972 67.1866 30.1986 66.3023 30.1986 66.3023C33.8617 64.171 36.8993 62.5854 39.2759 61.4328C43.067 59.5947 47.3902 57.7985 51.5815 57.3622C62.9294 56.181 72.2724 57.4036 74.563 57.7627C77.2392 58.1824 90.7131 63.9657 91.7277 64.4663C92.7424 64.967 100.999 65.6104 102.06 65.7329C103.121 65.8555 103.094 66.9159 103.094 66.9159L103.244 67.8564L103.076 68.4081L102.283 68.1369L102.623 69.3259L102.521 69.8258L103.586 69.9892L103.817 71.4352L103.958 72.3083C104.73 72.6904 104.598 74.7974 104.484 75.2017Z" fill="#78ACEA"/>
<path d="M25.9023 84.6015C26.6232 80.6173 23.9777 76.8031 19.9935 76.0822C16.0093 75.3613 12.1951 78.0067 11.4742 81.9909C10.7533 85.9751 13.3988 89.7893 17.383 90.5102C21.3672 91.231 25.1814 88.5856 25.9023 84.6015Z" fill="#2C3A64"/>
<path d="M18.7154 89.0284C15.5541 89.045 12.9688 86.4865 12.9522 83.3253C12.9356 80.1641 15.494 77.5787 18.6553 77.5622C21.8166 77.5456 24.4019 80.1041 24.4184 83.2652C24.435 86.4265 21.8766 89.0118 18.7154 89.0284ZM18.6581 78.0922C15.7892 78.1072 13.4673 80.4536 13.4823 83.3225C13.4973 86.1915 15.8437 88.5134 18.7126 88.4984C21.5815 88.4833 23.9034 86.137 23.8884 83.268C23.8734 80.3991 21.527 78.0772 18.6581 78.0922Z" fill="#AFCDFB"/>
<path d="M19.6924 88.7637L17.6382 88.7745L18.2681 83.1413L17.4866 77.7982L19.8349 77.9308L19.0796 83.1371L19.6924 88.7637Z" fill="#AFCDFB"/>
<path d="M14.4419 86.8903L13.4057 85.1168L18.5994 82.8462L22.8363 79.4983L23.8953 81.5984L19.0087 83.547L14.4419 86.8903Z" fill="#AFCDFB"/>
<path d="M13.5886 81.2002L14.7082 79.4779L19.0689 83.0991L23.9628 85.3816L22.5618 87.2708L18.6266 83.7795L13.5886 81.2002Z" fill="#AFCDFB"/>
<path d="M16.7609 83.2948C16.7553 82.2383 17.6072 81.3775 18.6636 81.3719C19.7201 81.3664 20.5809 82.2183 20.5864 83.2747C20.592 84.3311 19.7401 85.192 18.6836 85.1975C17.6273 85.203 16.7664 84.3511 16.7609 83.2948Z" fill="#AFCDFB"/>
<path d="M90.7148 85.043C91.8678 81.1618 89.6562 77.0808 85.775 75.9278C81.8938 74.7748 77.8128 76.9863 76.6598 80.8675C75.5067 84.7486 77.7184 88.8297 81.5996 89.9827C85.4808 91.1357 89.5618 88.9242 90.7148 85.043Z" fill="#2C3A64"/>
<path d="M83.7147 88.6879C80.5535 88.7044 77.9682 86.146 77.9516 82.9848C77.9351 79.8236 80.4935 77.2382 83.6547 77.2216C86.816 77.2051 89.4013 79.7635 89.4178 82.9247C89.4344 86.086 86.876 88.6713 83.7147 88.6879ZM83.6575 77.7517C80.7886 77.7667 78.4667 80.113 78.4817 82.982C78.4967 85.851 80.843 88.1729 83.712 88.1578C86.5809 88.1428 88.9028 85.7965 88.8878 82.9275C88.8727 80.0586 86.5264 77.7367 83.6575 77.7517Z" fill="#AFCDFB"/>
<path d="M84.692 88.4234L82.638 88.4342L83.2678 82.801L82.4862 77.4579L84.8345 77.5905L84.0793 82.7968L84.692 88.4234Z" fill="#AFCDFB"/>
<path d="M79.4414 86.5501L78.4053 84.7766L83.5989 82.506L87.8358 79.1581L88.8948 81.2582L84.0082 83.2068L79.4414 86.5501Z" fill="#AFCDFB"/>
<path d="M78.5881 80.86L79.7076 79.1377L84.0684 82.7589L88.9623 85.0414L87.5614 86.9306L83.6261 83.4393L78.5881 80.86Z" fill="#AFCDFB"/>
<path d="M81.7605 82.9547C81.755 81.8982 82.6069 81.0374 83.6633 81.0318C84.7197 81.0263 85.5806 81.8782 85.5862 82.9346C85.5917 83.991 84.7397 84.8519 83.6833 84.8574C82.6269 84.8629 81.766 84.0111 81.7605 82.9547Z" fill="#AFCDFB"/>
<path d="M11.2438 73.1234L6.44805 73.1485C4.86116 73.1568 3.4028 74.0227 2.63582 75.412L2.47287 75.7072C2.30834 76.0052 2.52507 76.3702 2.86544 76.3684L8.63693 76.3382C9.03528 76.3361 9.4147 76.1675 9.68331 75.8733L11.5547 73.8235C11.8005 73.5543 11.6083 73.1215 11.2438 73.1234Z" fill="#F9DDBF"/>
<path d="M5.47343 83.3639L3.83667 83.3725C3.29508 83.3753 2.79731 83.6709 2.53556 84.1451L2.47991 84.2458C2.42374 84.3475 2.49772 84.472 2.61386 84.4714L4.58368 84.4611C4.71963 84.4603 4.84913 84.4029 4.94084 84.3025L5.57951 83.6029C5.66343 83.511 5.59776 83.3633 5.47343 83.3639Z" fill="#1D2949"/>
<path d="M84.6442 65.3227L60.1773 66.0319C59.6975 66.0459 59.3008 65.6621 59.2983 65.1826L59.2688 59.5449C59.2665 59.1011 59.6274 58.7416 60.0712 58.7455C70.5068 58.8359 74.0843 59.108 76.2328 59.8367C78.1278 60.4793 82.5651 63.1395 84.8586 64.4893C85.2453 64.7172 85.0933 65.3098 84.6442 65.3227Z" fill="#AFCDFB"/>
<path d="M57.135 58.7243C57.5321 58.7266 57.9205 58.7294 58.3007 58.7322L58.3392 66.0855L34.7352 66.7695C34.4278 66.7784 34.2985 66.3805 34.5525 66.2072C37.301 64.3336 46.5103 58.6595 57.135 58.7243Z" fill="#AFCDFB"/>
<path d="M84.5609 65.3252L84.548 65.3257L84.5426 64.3036C84.6262 64.3533 84.7079 64.4011 84.7867 64.4474C85.1946 64.6871 85.0341 65.3115 84.5609 65.3252Z" fill="#AFCDFB"/>
<path d="M59.3047 66.3775L56.4122 66.1634L56.5638 58.2981L59.2624 58.2839L59.3047 66.3775Z" fill="#78ACEA"/>
<path d="M77.6159 66.2815L76.2666 66.2886L76.2296 59.2264L77.5832 60.029L77.6159 66.2815Z" fill="#78ACEA"/>
<path d="M37.6684 64.2826L38.4006 66.6633L34.4631 66.7774C34.2334 66.784 34.1328 66.4901 34.3186 66.355C35.2043 65.7107 36.846 64.5628 37.6684 64.2826Z" fill="#2C3A64"/>
<path d="M34.293 66.9747C34.1321 66.9755 33.9908 66.8746 33.9396 66.7212C33.8876 66.565 33.943 66.3964 34.0776 66.3015L34.1593 66.2445C34.2441 66.185 34.3393 66.1193 34.4438 66.048C34.53 65.9892 34.6221 65.9273 34.7205 65.8615L34.8691 65.7628C34.9817 65.6881 35.1009 65.6104 35.2275 65.5288C35.3176 65.4708 35.4109 65.4109 35.5077 65.3491L35.5234 65.3391C35.5372 65.3304 35.5511 65.3216 35.5651 65.3131C35.6464 65.2617 35.7324 65.2074 35.8208 65.1527L35.8403 65.1406C35.8695 65.1223 35.899 65.1039 35.9288 65.0858C35.9724 65.0585 36.0186 65.03 36.0652 65.0015C36.1299 64.9618 36.1955 64.9219 36.2625 64.8814C36.4509 64.7667 36.6538 64.6457 36.8649 64.5222C36.9302 64.4838 36.9964 64.4452 37.064 64.406C37.197 64.3284 37.334 64.2502 37.4746 64.1707L37.5735 64.1146C37.857 63.955 38.1444 63.7968 38.4276 63.6443L38.5207 63.5946C38.5638 63.5716 38.6071 63.5485 38.6506 63.5251C39.1905 63.2387 39.7452 62.9577 40.3003 62.6892L40.4727 62.6065C40.6458 62.5235 40.8216 62.4408 41.0002 62.358C41.0592 62.3303 41.1194 62.3027 41.1803 62.2751C41.2991 62.2202 41.4205 62.1652 41.5434 62.1103L41.7274 62.0282C41.9108 61.9462 42.1063 61.8609 42.3246 61.7676C42.4378 61.7195 42.5515 61.6716 42.6658 61.6236C43.4357 61.3015 44.2205 60.9984 44.9987 60.7228L45.1692 60.6626C45.2333 60.64 45.2978 60.6179 45.3622 60.5959L45.6049 60.5131C45.6705 60.4908 45.7362 60.4691 45.8018 60.4472L45.8094 60.4447C45.8779 60.4216 45.9469 60.3989 46.0161 60.3766C46.1412 60.3359 46.2669 60.295 46.3935 60.2552C46.4795 60.2279 46.5667 60.2007 46.6543 60.1735C46.7879 60.1326 46.9215 60.0918 47.0561 60.0514L47.2798 59.9857C47.4206 59.9448 47.5619 59.9043 47.7041 59.8649C47.9854 59.7859 48.2722 59.7091 48.556 59.6367L48.573 59.6323C48.5982 59.6257 48.6231 59.6192 48.6485 59.6131C48.7691 59.5824 48.8927 59.5516 49.0168 59.5218C49.09 59.5038 49.1645 59.4858 49.2395 59.4684L49.2956 59.4552C49.3511 59.4421 49.4069 59.4289 49.4625 59.4163C49.5366 59.3992 49.6111 59.3823 49.6861 59.3655C49.7612 59.3487 49.8361 59.3323 49.9111 59.3159C49.9869 59.2994 50.0624 59.2836 50.1379 59.2676C50.2126 59.2514 50.2885 59.2359 50.3651 59.2204L50.3773 59.218C50.4491 59.2034 50.5211 59.1889 50.5929 59.1747C50.6643 59.1603 50.736 59.1464 50.8082 59.1325C50.8893 59.117 50.9701 59.1019 51.0516 59.0871C51.1032 59.0773 51.1557 59.068 51.2081 59.0586L51.2817 59.0453C51.4355 59.0182 51.5889 58.9917 51.743 58.9667C51.8196 58.9539 51.8974 58.9415 51.9753 58.9291L51.9872 58.9272C52.1235 58.906 52.26 58.8855 52.3966 58.8659C52.6512 58.8293 52.9073 58.7953 53.1577 58.765L53.1741 58.763C53.2445 58.7546 53.3146 58.7461 53.3851 58.7385C53.4339 58.7325 53.4858 58.7269 53.5371 58.7217C53.587 58.7153 53.6418 58.7096 53.6966 58.7043C53.7539 58.6979 53.8142 58.6918 53.8745 58.686C53.9534 58.6779 54.0336 58.6702 54.1144 58.6629C54.1905 58.6558 54.2679 58.6491 54.3453 58.6428C54.4067 58.6376 54.4654 58.6325 54.5245 58.6278L54.867 58.6028C54.9345 58.5981 55.0019 58.5938 55.07 58.5896L55.0997 58.5879C55.1736 58.5832 55.2497 58.579 55.3252 58.5752C55.3848 58.572 55.4455 58.5687 55.5063 58.566L55.5121 58.5657C55.5664 58.5631 55.6204 58.5604 55.6747 58.5583L55.8089 58.5528C55.8621 58.5509 55.9156 58.5489 55.9689 58.5472C56.1795 58.5396 56.3763 58.6166 56.527 58.7617C56.6775 58.9068 56.7611 59.1016 56.7621 59.3106L56.7941 65.4043C56.7967 65.9108 56.3869 66.3348 55.8807 66.3495L34.3028 66.9747C34.2993 66.9746 34.2962 66.9747 34.293 66.9747ZM37.8436 64.405L37.7106 64.4802C37.5554 64.5677 37.4044 64.6538 37.2577 64.7394C37.1903 64.7784 37.1248 64.8166 37.0599 64.8547C36.8504 64.9773 36.6495 65.0971 36.4625 65.211C36.3954 65.2515 36.3304 65.2912 36.2663 65.3305C36.2207 65.3583 36.1756 65.3862 36.131 65.4141C36.1006 65.4326 36.0724 65.4502 36.0446 65.4675L36.0244 65.4802C35.9364 65.5347 35.8513 65.5883 35.7687 65.6405L35.7142 65.6747C35.619 65.7355 35.526 65.7952 35.4364 65.8529C35.3114 65.9334 35.1935 66.0103 35.0827 66.0837L34.9349 66.1819C34.8376 66.247 34.7463 66.3083 34.6612 66.3664C34.5586 66.4366 34.4647 66.5012 34.3803 66.5605L34.3412 66.5876L38.3949 66.4703L55.8693 65.9639C56.1681 65.9552 56.4099 65.705 56.4083 65.406L56.3764 59.3123C56.3759 59.2083 56.3342 59.1113 56.2594 59.0392C56.1843 58.9668 56.086 58.929 55.9812 58.9321C55.9285 58.9339 55.8759 58.9358 55.8233 58.9377L55.6892 58.9432C55.6363 58.9452 55.5836 58.9479 55.5304 58.9504L55.5241 58.9507C55.4638 58.9534 55.4041 58.9566 55.3449 58.9598C55.2705 58.9635 55.1961 58.9677 55.1223 58.9724L55.0924 58.9741C55.0268 58.9782 54.9603 58.9824 54.8938 58.987L54.5539 59.0119C54.4961 59.0164 54.4384 59.0213 54.3803 59.0263C54.3003 59.0328 54.2246 59.0394 54.1492 59.0465C54.0693 59.0537 53.9907 59.0612 53.912 59.0692C53.8524 59.0749 53.7942 59.0809 53.7359 59.0874C53.6819 59.0926 53.6308 59.098 53.5801 59.1043C53.5268 59.1097 53.4775 59.1152 53.4286 59.1211C53.3573 59.1288 53.2888 59.1371 53.2199 59.1454L53.2037 59.1473C52.9562 59.1773 52.7029 59.211 52.4511 59.2471C52.3159 59.2665 52.1809 59.2869 52.0469 59.3078L52.0357 59.3095C51.9587 59.3218 51.8818 59.3341 51.8053 59.3468C51.6523 59.3716 51.5006 59.3978 51.3493 59.4245L51.2759 59.4377C51.2245 59.4469 51.1731 59.4561 51.1217 59.4658C51.0405 59.4806 50.9606 59.4955 50.8807 59.5108C50.8096 59.5244 50.7388 59.5383 50.6675 59.5525C50.5958 59.5666 50.5247 59.581 50.4536 59.5954L50.4413 59.5979C50.3666 59.6131 50.2924 59.6283 50.2181 59.6444C50.1422 59.6603 50.0675 59.6761 49.9928 59.6923C49.9189 59.7085 49.8446 59.7246 49.7703 59.7413C49.6962 59.758 49.6224 59.7747 49.5483 59.7918C49.4927 59.8044 49.4381 59.8172 49.3838 59.8301L49.327 59.8435C49.2535 59.8606 49.1806 59.8781 49.1078 59.8962C48.9841 59.9258 48.8623 59.9561 48.7414 59.9869C48.7162 59.9931 48.693 59.9991 48.6698 60.0051L48.6517 60.0098C48.3702 60.0817 48.0864 60.1576 47.8076 60.2359C47.6664 60.2751 47.5266 60.3151 47.3874 60.3557L47.1651 60.421C47.0328 60.4606 46.8999 60.5011 46.7675 60.5418C46.6814 60.5684 46.5953 60.5951 46.5097 60.6224C46.3836 60.6622 46.2591 60.7026 46.1346 60.743C46.0666 60.7649 45.9991 60.7872 45.9316 60.81L45.9232 60.8128C45.8583 60.8343 45.7934 60.8559 45.7286 60.8778L45.4871 60.9602C45.4237 60.982 45.3601 61.0037 45.2972 61.026L45.1277 61.0858C44.356 61.3591 43.5779 61.6596 42.8147 61.979C42.7012 62.0265 42.588 62.0742 42.4757 62.1219C42.2597 62.2142 42.0661 62.2986 41.8843 62.38L41.7006 62.4619C41.5793 62.5161 41.4593 62.5704 41.3409 62.6251C41.2804 62.6526 41.2215 62.6796 41.1632 62.707C40.9851 62.7894 40.8109 62.8714 40.6391 62.9538L40.4673 63.0364C39.9174 63.3023 39.3669 63.5812 38.8324 63.8648C38.7895 63.8879 38.7458 63.9112 38.7023 63.9344L38.6102 63.9837C38.3562 64.1206 38.0987 64.2621 37.8436 64.405Z" fill="#1D2949"/>
<path d="M78.0163 65.716C77.8724 65.7168 77.7349 65.661 77.6281 65.5578C77.5088 65.4429 77.4399 65.2786 77.439 65.1071L77.4175 60.9923C77.4163 60.7582 77.4494 60.4592 77.6382 60.34C77.8093 60.2322 78.0984 60.3086 78.2798 60.3963C78.4818 60.4942 78.6226 60.5643 78.6985 60.6048C78.7065 60.6088 78.7176 60.6149 78.7288 60.6209L78.8112 60.6652C79.8395 61.22 81.3041 62.094 83.1644 63.263C83.2436 63.3124 83.3225 63.3621 83.4005 63.4114C83.5882 63.5296 83.7707 63.6452 83.9462 63.7569L84.5988 64.1732C84.7122 64.2458 84.821 64.3158 84.9247 64.3828C84.9389 64.3916 84.9551 64.402 84.971 64.4123L84.9853 64.4214C85.2025 64.5614 85.3 64.8297 85.2279 65.0894C85.1595 65.3357 84.9591 65.4997 84.7172 65.5072L84.6465 65.5093L78.0307 65.7158C78.0258 65.7159 78.0211 65.716 78.0163 65.716ZM78.0261 60.6788C77.9706 60.6791 77.926 60.7002 77.8992 60.7171C77.8108 60.7729 77.7582 60.8751 77.7589 60.9905L77.7804 65.1053C77.7808 65.1853 77.8116 65.2606 77.8651 65.3121C77.9087 65.3541 77.9634 65.3757 78.0201 65.3746L84.7066 65.166C84.843 65.1617 84.8883 65.0364 84.8989 64.9981C84.9235 64.9096 84.9125 64.7807 84.8008 64.7087L84.7865 64.6996C84.7717 64.69 84.7566 64.6804 84.7416 64.671C84.6362 64.603 84.5277 64.5332 84.4146 64.4607L83.7634 64.0452C83.5879 63.9336 83.4058 63.8181 83.2185 63.7002C83.1408 63.6512 83.0624 63.6017 82.9833 63.5523C81.1288 62.3871 79.6708 61.5168 78.6493 60.9657L78.5661 60.9209C78.5577 60.9163 78.5494 60.9119 78.5409 60.9076C78.4669 60.868 78.3262 60.798 78.1311 60.7035C78.0933 60.6852 78.0579 60.6787 78.0261 60.6788Z" fill="#1D2949"/>
<path d="M37.6684 64.2826L38.4006 66.6633L34.4631 66.7774C34.2334 66.784 34.1328 66.4901 34.3186 66.355C35.2043 65.7107 36.846 64.5628 37.6684 64.2826Z" fill="#2C3A64"/>
<path d="M60.1565 66.2253C59.8821 66.2267 59.6233 66.123 59.425 65.9316C59.2204 65.734 59.1069 65.4686 59.1054 65.1841L59.0759 59.5459C59.0745 59.2795 59.1776 59.0293 59.3663 58.8413C59.5552 58.653 59.8063 58.5523 60.0728 58.5529C70.8445 58.6464 74.1811 58.8732 76.3006 59.6562L76.4259 59.7025L76.4575 65.7535L60.1827 66.2248C60.1741 66.225 60.1653 66.2252 60.1565 66.2253ZM60.0608 58.9385C59.9014 58.9393 59.7517 59.0016 59.6385 59.1143C59.5235 59.229 59.4606 59.3815 59.4615 59.5438L59.491 65.1821C59.4919 65.3616 59.5636 65.5293 59.6929 65.6542C59.822 65.7789 59.9935 65.8454 60.1715 65.8393L76.0701 65.3789L76.0418 59.9727C73.9798 59.253 70.4485 59.0284 60.0696 58.9383C60.0666 58.9384 60.0637 58.9384 60.0608 58.9385Z" fill="#1D2949"/>
<path d="M103.818 71.4353L99.2104 71.4595C98.5245 71.4631 97.8755 71.1518 97.449 70.6156L95.6947 68.4101C95.5297 68.2021 95.6763 67.896 95.9425 67.8946L103.245 67.8563L103.076 68.4082L102.283 68.1368L102.623 69.326L102.522 69.8259L103.586 69.9893L103.818 71.4353Z" fill="#A9453D"/>
<path d="M58.105 58.6585L57.9404 83.3477L58.1331 83.349L58.2977 58.6598L58.105 58.6585Z" fill="#1D2949"/>
<path d="M74.5453 82.9042L26.9225 84.0968L26.9274 84.2895L74.5501 83.0969L74.5453 82.9042Z" fill="#1D2949"/>
<path d="M55.3352 71.2162C55.3366 71.4773 54.1727 71.6951 52.7357 71.7026C51.2986 71.7101 50.1324 71.5045 50.1311 71.2434C50.1297 70.9823 51.2936 70.7645 52.7307 70.757C54.1678 70.7495 55.3339 70.9551 55.3352 71.2162Z" fill="#78ACEA"/>
<path d="M79.5686 71.0893C79.57 71.3504 78.4061 71.5682 76.9691 71.5757C75.532 71.5832 74.3659 71.3776 74.3645 71.1165C74.3632 70.8554 75.5271 70.6376 76.9641 70.6301C78.4012 70.6226 79.5673 70.8282 79.5686 71.0893Z" fill="#78ACEA"/>
<path d="M72.6912 83.0182L72.4986 83.0088C72.6188 80.5535 73.3354 78.481 74.6286 76.8488C75.6633 75.5428 77.0662 74.516 78.7983 73.7964C81.4332 72.7018 84.0482 72.6601 84.5869 72.665L84.5485 65.3231L84.7413 65.3221L84.7808 72.863L84.6804 72.8593C84.6514 72.8582 81.7705 72.7687 78.8666 73.9767C77.1665 74.6839 75.7907 75.6914 74.7776 76.9712C73.5112 78.5709 72.8093 80.6054 72.6912 83.0182Z" fill="#1D2949"/>
<path d="M32.7304 84.0465C32.6223 77.6786 32.9538 73.2706 33.2509 70.6941C33.5733 67.8983 33.927 66.5906 33.9305 66.5777L34.1163 66.6288C34.1023 66.6799 32.7167 71.8865 32.9231 84.0433L32.7304 84.0465Z" fill="#1D2949"/>
<path d="M60.071 58.6491L56.3007 58.6689L56.3017 58.8616L60.072 58.8418L60.071 58.6491Z" fill="#1D2949"/>
<path d="M103.818 71.4354L101.303 71.4485L101.197 71.0812L102.13 70.4937L100.63 70.0855L100.252 69.4008L101.559 68.749L101.076 67.8676L103.245 67.8563L103.352 69.3846L103.586 69.9892L103.818 71.4354Z" fill="#7A231F"/>
<path d="M42.2425 68.1506L38.1229 68.1722C37.5737 68.175 37.1219 67.7279 37.119 67.1787L37.1127 65.9679C37.1098 65.4186 37.5569 64.9668 38.1061 64.9639L42.2257 64.9424C42.775 64.9395 43.2268 65.3866 43.2297 65.9358L43.236 67.1467C43.2389 67.6959 42.7919 68.1477 42.2425 68.1506Z" fill="#78ACEA"/>
<path d="M107.952 49.7536C107.952 49.7536 107.883 48.731 107.889 48.2881C107.894 47.8451 108.981 46.5687 109.353 46.5668C109.725 46.5648 109.607 47.7365 109.547 48.101C109.487 48.4655 109.674 48.7949 109.47 49.085C109.265 49.3751 108.862 49.9898 108.862 49.9898L107.952 49.7536Z" fill="#D9935C"/>
<path d="M114.489 51.4055L112.742 53.0981C112.326 52.7547 111.996 52.3608 111.733 51.9758C111.692 51.9156 111.652 51.8556 111.614 51.7963C111.378 51.4223 111.204 51.0701 111.079 50.7982C111.058 50.7542 111.039 50.7125 111.021 50.673C110.923 50.4617 111.992 49.7776 112.595 49.3446C112.782 49.2045 112.927 49.0947 112.975 49.0276C112.975 49.0276 112.934 49.3117 112.975 49.5051C113.071 49.9586 113.272 50.2356 113.51 50.4939C114.127 51.1637 114.489 51.4055 114.489 51.4055Z" fill="#FFB27D"/>
<path d="M113.151 49.5447C113.151 49.5447 112.812 51.3967 111.733 51.9755C111.692 51.9154 111.652 51.8553 111.614 51.7961C111.378 51.422 111.204 51.0698 111.078 50.798C111.209 50.5235 112.108 49.9428 112.642 49.5597C112.945 49.5519 113.151 49.5447 113.151 49.5447Z" fill="#ED975D"/>
<path d="M111.009 51.6106C111.009 51.6106 113.633 50.7192 113.053 49.0939C112.473 47.4684 112.421 46.2587 110.721 46.7591C109.021 47.2594 108.919 47.9952 108.981 48.5848C109.042 49.1745 110.312 51.8005 111.009 51.6106Z" fill="#FFB27D"/>
<path d="M113.258 49.5846C113.258 49.5846 112.989 49.4085 113.573 48.4763C113.873 47.9957 114.141 47.5438 113.708 46.7666C113.274 45.9894 113.298 45.3613 112.114 45.3677C110.93 45.3741 110.808 44.8262 110.206 45.0205C109.603 45.2149 109.072 46.104 108.557 46.2731C108.041 46.4422 107.664 49.15 108.845 49.0692C108.845 49.0692 109.288 48.8459 109.485 48.4874C109.681 48.1288 110.685 47.3092 111.006 47.5731C111.328 47.837 112.622 49.6005 113.258 49.5846Z" fill="#233862"/>
<path d="M114.942 55.6242C114.942 55.6242 109.771 57.9713 106.623 58.5204C106.623 58.5204 105.635 58.4588 105.596 57.2446C105.571 56.4746 110.745 52.665 112.644 52.7678C114.542 52.8706 115.595 54.8074 114.942 55.6242Z" fill="#ED823A"/>
<path d="M108.976 49.896L108.577 55.754L105.596 57.2448C105.596 57.2448 105.631 55.0574 106.466 52.6332C107.37 50.0087 107.855 49.5785 107.855 49.5785C107.855 49.5785 108.679 49.3879 108.976 49.896Z" fill="#ED823A"/>
<path d="M113.923 89.6039C113.901 89.8634 113.845 90.0829 113.729 90.1389C113.708 90.1485 113.675 90.1573 113.629 90.165L109.683 90.1857C109.577 90.1829 109.517 90.1812 109.517 90.1812C109.517 90.1812 109.524 89.6935 110.195 89.5954C110.737 89.5166 111.612 89.2536 112.04 88.6893C112.141 88.5558 112.218 88.4051 112.259 88.236C112.471 87.3537 113.899 88.5329 113.899 88.5329C113.899 88.5329 113.916 88.6864 113.927 88.8994C113.938 89.1071 113.944 89.3719 113.923 89.6039Z" fill="#233862"/>
<path d="M117.626 90.1441L113.24 90.167C113.288 90.0545 113.466 89.7232 113.923 89.6039C113.967 89.5918 114.013 89.5824 114.063 89.5752C114.535 89.5062 115.261 89.2976 115.723 88.8711C115.917 88.693 116.064 88.4762 116.126 88.2158C116.339 87.3336 117.766 88.5128 117.766 88.5128C117.766 88.5128 117.782 88.6535 117.794 88.8533C117.819 89.2858 117.828 89.9952 117.626 90.1441Z" fill="#233862"/>
<path d="M115.638 66.2783C115.638 66.2783 115.636 66.4376 115.631 66.7238C115.601 68.5696 115.481 75.7062 115.352 79.6853C115.346 79.8301 115.342 79.9701 115.337 80.1064C115.335 80.1783 115.332 80.2507 115.33 80.3222C115.25 82.2459 114.999 84.1307 114.743 85.6382C114.417 87.5608 114.083 88.8706 114.083 88.8706C112.803 89.1368 111.97 88.654 111.97 88.654C111.97 88.654 111.609 85.6748 111.468 83.8711C111.422 83.2859 111.2 81.2894 110.923 78.8607C110.708 76.9826 110.459 74.8459 110.231 72.9026C110.219 72.7992 110.208 72.6956 110.195 72.5936C109.827 69.4519 109.523 66.893 109.523 66.893L111.787 66.6653L115.638 66.2783Z" fill="#2B478B"/>
<path d="M114.744 85.6382L110.923 78.8607C110.708 76.9826 110.459 74.8459 110.232 72.9026C110.219 72.7992 110.208 72.6956 110.195 72.5936C109.827 69.4519 109.523 66.893 109.523 66.893L111.788 66.6653L115.631 66.7238L114.744 85.6382Z" fill="#233862"/>
<path d="M109.942 66.9077C109.942 66.9077 112.114 77.3654 113.866 82.409C115.618 87.4526 115.647 88.8561 115.647 88.8561C115.647 88.8561 117.233 89.1911 117.928 88.7889C117.928 88.7889 118.277 79.2086 117.219 76.6701C116.52 74.9912 115.973 71.4129 116.146 70.1223C116.318 68.8316 116.472 66.2439 116.472 66.2439L109.942 66.9077Z" fill="#2B478B"/>
<path d="M116.75 65.971C116.634 66.6122 116.353 67.124 115.916 67.4372C115.417 67.7941 114.629 67.9262 113.76 67.9176C112.745 67.9063 111.621 67.7029 110.722 67.4388C110.238 67.2972 109.82 67.1384 109.518 66.983C108.173 66.2906 108.359 65.3585 108.372 61.8738C108.386 58.3172 110.551 53.7085 110.942 52.9367C111.636 51.563 114.615 51.998 114.615 51.998C115.271 52.5932 115.847 53.4594 116.244 54.8468C116.405 55.4084 116.501 56.1944 116.558 57.0779C116.733 59.7765 116.544 63.3777 116.706 64.2177C116.83 64.8616 116.843 65.4577 116.75 65.971Z" fill="#F99746"/>
<path d="M114.219 50.642C114.219 50.642 114.712 51.7924 114.615 51.9982C114.615 51.9982 111.942 52.2646 110.857 53.0458C110.857 53.0458 111.21 51.9243 111.643 51.6438C112.077 51.3634 114.219 50.642 114.219 50.642Z" fill="#ED823A"/>
<path d="M116.749 65.9708C111.199 63.8916 114.321 56.0789 114.321 56.0789C115.096 56.1298 115.857 56.5024 116.558 57.0777C116.733 59.7764 116.544 63.3776 116.705 64.2175C116.829 64.8614 116.842 65.4575 116.749 65.9708Z" fill="#ED823A"/>
<path d="M114.146 52.5198C114.146 52.5198 118.911 55.6762 120.986 58.1069C120.986 58.1069 120.866 59.081 120.202 59.472C119.538 59.8629 113.734 57.6388 112.857 55.952C111.979 54.2651 113.111 52.374 114.146 52.5198Z" fill="#F99746"/>
<path d="M114.861 62.7947C114.861 62.7947 114.56 63.3221 114.267 63.1997C113.974 63.0773 113.384 62.9498 112.947 63.2341C112.511 63.5186 111.854 64.2837 112.268 64.4673C112.682 64.651 113.464 64.1536 113.649 64.07C113.834 63.9864 114.159 64.1499 114.516 63.9691C114.873 63.7883 115.242 63.4285 115.242 63.4285L114.861 62.7947Z" fill="#FFB27D"/>
<path d="M114.385 62.9391L118.252 57.5919L120.985 58.1066C120.985 58.1066 120.631 59.9075 118.659 61.5471C116.628 63.2366 115.504 63.5757 115.504 63.5757C115.504 63.5757 114.152 63.8154 114.385 62.9391Z" fill="#F99746"/>
<path d="M142.053 55.8041C142.241 56.3031 142.566 56.8815 142.905 57.024C143.289 57.1856 143.451 57.4158 143.451 57.4158L143.759 57.2345L144.128 57.0176C144.128 57.0176 144.119 56.9766 144.1 56.9098C144.082 56.8433 144.054 56.7507 144.016 56.6481C144.016 56.6481 143.902 56.503 143.97 56.3193C144.039 56.1361 144.023 55.8533 143.904 55.6813C143.784 55.5097 143.668 55.0856 143.596 55.0986C143.424 55.1293 143.685 55.7116 143.611 55.8203C143.545 55.9185 143.461 55.8854 143.445 55.878C143.444 55.8774 143.444 55.877 143.442 55.8764C142.956 55.6656 142.362 54.5188 142.102 54.6754C142.005 54.7339 141.972 55.5916 142.053 55.8041Z" fill="#FFB27D"/>
<path d="M143.735 56.4915L143.129 56.9218C143.086 56.9522 143.026 56.9421 142.996 56.8993L141.428 54.6923C141.397 54.6495 141.407 54.5896 141.45 54.5592L142.056 54.129C142.098 54.0986 142.158 54.1087 142.189 54.1515L143.757 56.3585C143.787 56.4013 143.777 56.4611 143.735 56.4915Z" fill="#2B478B"/>
<path d="M143.18 56.8854L142.825 57.1377C142.793 57.1608 142.747 57.153 142.724 57.1206L141.129 54.8764C141.106 54.8438 141.114 54.7983 141.147 54.7752L141.501 54.5229C141.534 54.4998 141.58 54.5075 141.603 54.5401L143.197 56.7842C143.221 56.8167 143.213 56.8622 143.18 56.8854Z" fill="#233862"/>
<path d="M152.436 53.2673C152.436 53.2673 149.372 58.677 148.255 59.6753L144.126 56.6301C144.126 56.6301 143.53 56.8163 143.272 57.4168C143.272 57.4168 145.796 62.4929 148.257 62.6958C150.717 62.8987 154.136 56.565 154.136 56.565L152.436 53.2673Z" fill="#233862"/>
<path d="M159.625 89.9126L161.412 89.9033C161.636 89.7799 161.835 89.4993 161.896 89.082C161.98 88.5059 162.624 88.1887 162.761 87.717C162.898 87.2458 162.179 86.5869 162.179 86.5869L162.059 86.4334L161.934 86.274L160.749 86.5595C160.749 86.5595 160.721 86.8422 160.705 87.202C160.694 87.4616 160.689 87.7616 160.705 88.0246C160.743 88.6521 160.536 89.3294 159.979 89.4544C159.567 89.5467 159.586 89.7912 159.625 89.9126Z" fill="#233862"/>
<path d="M149.256 89.9668L153.342 89.9454C153.538 89.7045 153.461 88.82 153.429 88.5312C153.423 88.473 153.418 88.4391 153.418 88.4391C153.418 88.4391 152.017 87.3304 151.83 88.186C151.825 88.2129 151.818 88.239 151.81 88.2649C151.573 89.0655 150.492 89.4344 149.867 89.5388C149.46 89.6069 149.311 89.8191 149.256 89.9668Z" fill="#233862"/>
<path d="M149.915 67.1564C149.915 67.1564 150.141 69.7985 150.407 72.9745C150.768 77.2887 151.203 82.5882 151.248 83.5923C151.327 85.336 151.621 88.1241 151.621 88.1241C151.621 88.1241 152.286 88.7834 153.61 88.4971C153.61 88.4971 154.771 84.5086 155.086 80.2934C155.091 80.2243 155.096 80.1547 155.101 80.0851C155.392 75.7941 155.833 66.7593 155.833 66.7593L149.915 67.1564Z" fill="#FFA25C"/>
<path d="M149.915 67.1564C149.915 67.1564 150.141 69.7987 150.407 72.9748L155.086 80.2941C155.091 80.2251 155.096 80.1555 155.101 80.0859C155.392 75.7946 155.833 66.7593 155.833 66.7593L149.915 67.1564Z" fill="#EF8C48"/>
<path d="M150.885 67.4651C150.885 67.4651 154.753 77.0178 157.288 81.5033C159.822 85.9888 160.613 87.2401 160.613 87.2401C160.613 87.2401 162.049 86.6572 162.178 86.2643C162.178 86.2643 161.172 77.5844 159.479 75.4762C158.523 74.2848 157.388 70.7006 157.329 69.4454C157.27 68.1903 156.97 65.7072 156.97 65.7072L150.885 67.4651Z" fill="#FFA25C"/>
<path d="M151.762 53.5056C153.257 53.9686 155.832 52.6843 155.832 52.6843C155.832 52.6843 154.451 51.6588 154.512 49.5114L153.363 50.4473L152.582 51.0829C152.582 51.0829 152.587 51.4552 152.677 52.1073C152.7 52.2788 152.729 52.4701 152.766 52.6789C152.127 53.0339 151.762 53.5056 151.762 53.5056Z" fill="#FFB27D"/>
<path d="M152.582 51.0828C152.582 51.0828 152.587 51.4551 152.676 52.1073C153.544 51.9537 154.522 50.5449 154.522 50.5449C154.079 50.4195 153.692 50.3987 153.363 50.4472L152.582 51.0828Z" fill="#ED975D"/>
<path d="M152.126 51.0501C152.126 51.0501 154.593 51.4467 154.816 49.9065C155.039 48.3664 155.508 47.3803 153.942 47.0619C152.377 46.7436 151.985 47.2868 151.785 47.7828C151.586 48.2787 151.49 50.9073 152.126 51.0501Z" fill="#FFB27D"/>
<path d="M149.752 67.3783C149.797 67.4153 149.849 67.4375 149.909 67.4372C150.47 67.4267 152.105 67.7294 153.487 67.5802C154.652 67.4621 155.682 67.1115 156.788 66.609C156.934 66.5423 157.272 66.3598 157.264 66.1954C157.258 66.0153 157.239 65.7542 157.214 65.4254C157.13 64.2823 156.983 62.316 157.104 60.0459C157.126 59.6232 157.136 59.204 157.136 58.7914C157.131 55.7156 156.507 53.0136 155.277 52.1044C155.172 52.03 154.531 52.3474 153.942 52.6417C153.398 52.9137 152.852 52.9463 152.336 52.8447L151.823 53.3031C151.198 53.8892 150.515 54.685 150.223 55.8896C149.974 56.9146 149.834 58.7614 149.762 60.6749C149.729 61.542 149.704 62.4165 149.7 63.2461L149.7 63.2758C149.694 63.3581 149.694 63.448 149.695 63.5302C149.676 65.6598 149.715 67.3484 149.752 67.3783Z" fill="#2B478B"/>
<path d="M157.214 65.4251C157.129 64.282 156.982 62.3156 157.104 60.0456C157.126 59.6229 157.136 59.2036 157.135 58.791C156.618 57.5553 156.196 56.6594 156.196 56.6594L154.91 56.6662C154.91 56.6662 154 63.1147 157.214 65.4251Z" fill="#233862"/>
<path d="M159.633 65.6334C159.633 65.6334 159.923 66.0159 159.935 66.1692C160.018 67.2084 159.544 67.3548 160.777 67.9258C160.777 67.9258 161.303 68.1233 161.31 67.7157C161.317 67.3081 160.943 67.3032 161.009 66.7322C161.084 66.0735 161.076 66.0674 160.642 65.7259L160.354 65.2545L159.633 65.6334Z" fill="#FFB27D"/>
<path d="M160.368 65.9246C159.905 66.0173 159.402 65.9834 159.402 65.9834C159.402 65.9834 158.004 61.7411 157.825 61.3538C157.646 60.9665 153.713 56.3924 153.713 56.3924L155.32 52.3086C155.32 52.3086 159.585 59.3488 160.02 60.3389C160.738 61.975 161.003 65.6503 161.003 65.6503C161.003 65.6503 160.731 65.8517 160.368 65.9246Z" fill="#2B478B"/>
<path d="M154.817 49.7584C154.817 49.7584 154.564 49.7174 154.603 49.3689C154.642 49.0202 154.639 48.5649 154.356 48.6512C154.074 48.7376 154.061 48.9644 153.944 48.8326C153.826 48.7008 153.821 48.1427 152.978 48.1083C152.135 48.0739 151.794 48.3691 151.401 48.1988C151.009 48.0286 150.985 47.4354 150.985 47.4354C150.985 47.4354 151.097 47.6466 151.266 47.7132C151.266 47.7132 150.608 46.8222 151.361 46.2049C152.115 45.5876 152.889 45.9851 153.328 46.0093C154.293 46.0627 154.917 46.1174 155.236 46.7501C155.554 47.3828 155.433 49.1446 154.817 49.7584Z" fill="#2B478B"/>
<path d="M160.09 66.0882C160.09 66.0882 159.814 66.3789 159.797 66.4993C159.743 66.886 159.615 67.0535 159.679 67.0952C159.814 67.1819 159.991 66.8949 160.074 66.6378C160.158 66.3808 160.09 66.0882 160.09 66.0882Z" fill="#FFB27D"/>
</svg>
