<svg width="157" height="102" viewBox="0 0 157 102" fill="none" xmlns="http://www.w3.org/2000/svg">
<path d="M12.1479 118.678C12.1479 118.678 -12.1901 92.5469 8.03192 64.2561C25.9743 39.1546 46.8933 40.8704 62.2412 51.0568C68.7781 55.3954 87.6246 51.5916 103.665 26.0498C125.541 -8.78212 201.368 12.3435 187.543 65.9334C180.852 91.8671 207.905 92.8098 194.12 118.733L12.1479 118.678Z" fill="#EBF3FA"/>
<path d="M53.8864 50.5604C53.8864 50.5604 41.8462 33.422 37.1409 35.6437C32.4355 37.8655 53.8864 50.5604 53.8864 50.5604Z" fill="#A8D29F"/>
<path d="M53.1213 45.955C53.1213 45.955 51.2822 33.0686 48.3829 33.5742C45.4836 34.0798 53.1213 45.955 53.1213 45.955Z" fill="#A8D29F"/>
<path d="M42.9418 86.1197C42.9418 86.1197 44.099 80.3857 39.6046 79.6651C39.6046 79.6651 36.5563 79.5587 34.7614 80.7084C34.7614 80.7084 39.8589 83.6513 39.2527 84.5659C38.6466 85.4806 33.8091 80.8772 33.8091 80.8772C33.8091 80.8772 28.3446 83.2706 27.1249 85.0039C27.1249 85.0039 33.5823 86.1546 32.7697 86.8918C31.957 87.6291 25.1819 86.7439 25.1819 86.7439C25.1819 86.7439 20.816 90.2603 22.7176 93.0598C24.6191 95.8592 26.7892 95.8392 27.4762 95.3528C28.1631 94.8664 31.5256 90.8469 31.9532 91.3935C32.3808 91.9402 30.9011 95.334 29.1506 96.4321C29.1506 96.4321 34.6478 98.283 36.3035 95.9374C37.9593 93.5918 37.1935 91.768 38.2431 90.337C39.2926 88.9062 40.4965 88.2357 40.2814 89.2172C40.0664 90.1986 37.8725 92.2614 37.863 94.1371C37.8535 96.0128 37.6676 97.3782 39.8098 95.7196C41.9521 94.061 44.7977 90.2256 43.8697 88.1727C42.9418 86.1197 42.9418 86.1197 42.9418 86.1197Z" fill="#82B378"/>
<path d="M25.1324 91.8147C25.1324 91.8147 37.9542 83.9889 42.9417 86.1197C42.9417 86.1197 44.6526 87.6789 47.5971 88.324L48.3715 88.9891C48.3715 88.9891 44.7631 87.8635 43.8697 88.1726C43.8697 88.1726 42.5465 82.8199 25.1324 91.8147Z" fill="#82B378"/>
<path d="M47.5973 88.324C47.5973 88.324 51.5721 88.8327 53.8439 92.4402L53.359 92.7711C53.359 92.7711 50.3137 89.43 47.8504 88.8343C45.3871 88.2385 47.5973 88.324 47.5973 88.324Z" fill="#82B378"/>
<path d="M46.8662 69.3883C46.8662 69.3883 56.1768 64.1744 51.8318 57.0983C51.8318 57.0983 48.3559 52.7533 44.6317 51.6361C44.6317 51.6361 46.6179 62.188 44.6317 62.4363C42.6454 62.6846 43.2661 50.5188 43.2661 50.5188C43.2661 50.5188 33.4591 45.8014 29.6106 46.1738C29.6106 46.1738 35.6936 56.4775 33.7073 56.2292C31.7211 55.9808 24.8933 45.5531 24.8933 45.5531C24.8933 45.5531 14.838 43.691 13.2241 49.6498C11.6103 55.6086 14.2173 58.5879 15.7069 58.9603C17.1966 59.3327 26.7555 59.2086 26.5071 60.45C26.2588 61.6914 19.8036 63.6776 16.2034 62.5604C16.2034 62.5604 20.176 72.3675 25.3899 71.8709C30.6037 71.3743 32.2176 68.1467 35.4453 67.8983C38.6729 67.6501 41.0316 68.519 39.4178 69.3881C37.804 70.2571 32.3417 69.6728 29.7348 71.8891C27.1278 74.1054 25.0174 75.471 29.8589 76.4641C34.7004 77.4573 43.3903 76.8365 45.1282 73.1123C46.8662 69.3883 46.8662 69.3883 46.8662 69.3883Z" fill="#A8D29F"/>
<path d="M17.8174 51.5121C17.8174 51.5121 43.887 59.9537 46.8663 69.3884C46.8663 69.3884 46.7422 73.6091 49.3492 78.4506V80.3127C49.3492 80.3127 46.6181 73.9816 45.1284 73.1125C45.1284 73.1125 50.9629 64.9193 17.8174 51.5121Z" fill="#82B378"/>
<path d="M49.3491 78.4506C49.3491 78.4506 53.3694 84.5557 51.0775 91.9873L50.0431 91.7096C50.0431 91.7096 51.0471 83.524 48.9437 79.4073C46.8404 75.2904 49.3491 78.4506 49.3491 78.4506Z" fill="#82B378"/>
<path d="M36.8486 25.6405L22.9182 97.6587C22.6349 99.1235 23.757 100.483 25.249 100.483H32.5959L36.8486 25.6405Z" fill="#2E8485"/>
<path d="M148.928 46.3814C148.928 46.3814 142.662 42.3842 145.966 37.6372C145.966 37.6372 148.557 34.7547 151.191 34.1264C151.191 34.1264 149.388 41.3845 150.76 41.6365C152.131 41.8885 152.185 33.404 152.185 33.404C152.185 33.404 159.193 30.5153 161.854 30.9278C161.854 30.9278 157.213 37.8498 158.604 37.7565C159.995 37.6631 165.159 30.6846 165.159 30.6846C165.159 30.6846 172.226 29.7911 173.11 33.999C173.994 38.207 172.062 40.1747 171.012 40.3742C169.961 40.5737 163.319 40.1058 163.442 40.9789C163.565 41.8521 167.975 43.491 170.523 42.8578C170.523 42.8578 167.369 49.5188 163.763 48.9653C160.157 48.4119 159.164 46.103 156.93 45.8016C154.695 45.5 153.02 46.0102 154.108 46.6789C155.195 47.3475 159.017 47.1593 160.741 48.8046C162.465 50.4497 163.878 51.4836 160.472 51.9808C157.066 52.4782 151.048 51.6997 149.988 49.0406C148.928 46.3814 148.928 46.3814 148.928 46.3814Z" fill="#C7DCFB"/>
<path d="M169.841 35.1104C169.841 35.1104 151.377 39.9397 148.928 46.3813C148.928 46.3813 148.846 49.3213 146.84 52.5838L146.766 53.8786C146.766 53.8786 148.918 49.5851 149.988 49.0404C149.988 49.0404 146.258 43.1102 169.841 35.1104Z" fill="#C7DCFB"/>
<path d="M146.84 52.584C146.84 52.584 143.801 56.6688 145.098 61.928L145.828 61.776C145.828 61.776 145.457 56.0442 147.084 53.2654C148.71 50.4866 146.84 52.584 146.84 52.584Z" fill="#C7DCFB"/>
<path d="M132.057 29.0313C132.057 29.0313 122.429 26.9173 124.374 19.4979C124.374 19.4979 126.282 14.7257 129.275 12.7401C129.275 12.7401 130.347 22.6 132.169 22.2872C133.992 21.9745 130.183 11.3865 130.183 11.3865C130.183 11.3865 137.588 4.58857 141.09 3.88655C141.09 3.88655 138.474 14.6247 140.163 13.8731C141.852 13.1214 145.093 2.07379 145.093 2.07379C145.093 2.07379 153.483 -2.26679 156.507 2.56823C159.53 7.40324 158.024 10.7355 156.807 11.4639C155.59 12.1923 147.107 14.644 147.659 15.6748C148.211 16.7057 154.449 16.7317 157.332 14.7794C157.332 14.7794 156.449 24.5131 151.707 25.4713C146.965 26.4294 144.673 24.0087 141.753 24.6541C138.834 25.2995 136.982 26.6998 138.641 27.0355C140.3 27.3712 144.972 25.3911 147.871 26.6517C150.769 27.9123 153.001 28.5539 148.987 30.7291C144.973 32.9044 137.125 34.6843 134.591 31.8579C132.057 29.0313 132.057 29.0313 132.057 29.0313Z" fill="#DFEBFD"/>
<path d="M152.945 5.44513C152.945 5.44513 132.162 19.893 132.057 29.0313C132.057 29.0313 133.298 32.7292 132.291 37.7075L132.79 39.3535C132.79 39.3535 133.507 33.0251 134.591 31.8577C134.591 31.8578 127.238 26.1785 152.945 5.44513Z" fill="#DFEBFD"/>
<path d="M132.291 37.7074C132.291 37.7074 130.373 44.1815 134.39 50.1368L135.23 49.614C135.23 49.614 132.149 42.6473 132.905 38.4444C133.662 34.2416 132.291 37.7074 132.291 37.7074Z" fill="#DFEBFD"/>
<path d="M37.016 25.349L27.7826 96.0596C27.4765 98.4043 29.3018 100.483 31.6663 100.483H45.2116L37.5746 25.0936L37.016 25.349Z" fill="#78ACEA"/>
<path d="M37.0159 25.3489L32.8826 95.6087C32.727 98.2533 34.8297 100.483 37.479 100.483H57.6806L37.0159 25.3489Z" fill="#699DEE"/>
<path d="M36.8608 25.9225L38.8705 95.6088C38.7149 98.2534 40.8177 100.483 43.4668 100.483H63.6684L36.8608 25.9225Z" fill="#5288D8"/>
<path d="M133.582 100.483H53.9287C51.9398 100.483 50.2352 99.0622 49.8775 97.1059L37.757 30.8231C37.2067 27.8137 39.5181 25.0414 42.5773 25.0414H121.293C123.282 25.0414 124.987 26.4625 125.344 28.4189L137.634 95.6243C138.096 98.1536 136.153 100.483 133.582 100.483Z" fill="#D7E9FF"/>
<path d="M39.3339 39.4312H127.414L125.155 26.9168C124.959 25.8311 124.014 25.0414 122.911 25.0414H37.5957C37.1294 25.0414 36.7772 25.4639 36.8612 25.9225L39.3339 39.4312Z" fill="#1B8283"/>
<path d="M60.8739 21.4007C58.7681 21.4007 57.0552 23.1128 57.0552 25.2186H57.7888C57.7888 23.5173 59.1726 22.1335 60.874 22.1335C62.5753 22.1335 63.96 23.5173 63.96 25.2186C63.96 25.5603 63.9044 25.8885 63.8012 26.1953C63.4981 27.102 62.7851 27.8222 61.8829 28.1343C61.6192 28.2257 61.3403 28.2832 61.0497 28.2993V29.0329C61.3888 29.0177 61.7151 28.9585 62.0255 28.8598C63.2641 28.4679 64.2317 27.4589 64.5663 26.1953C64.6488 25.8832 64.6927 25.5558 64.6927 25.2186C64.6926 23.1128 62.9796 21.4007 60.8739 21.4007Z" fill="#78ACEA"/>
<path d="M62.0547 28.6393C62.0547 28.7155 62.0439 28.79 62.0251 28.8599C61.9282 29.2097 61.6081 29.4661 61.2279 29.4661C60.7714 29.4661 60.401 29.0958 60.401 28.6393C60.401 28.1828 60.7714 27.8124 61.2279 27.8124C61.4942 27.8124 61.731 27.9389 61.8826 28.1344C61.991 28.2742 62.0547 28.4491 62.0547 28.6393Z" fill="#78ACEA"/>
<path d="M74.565 21.4007C72.4592 21.4007 70.7462 23.1128 70.7462 25.2186H71.479C71.479 23.5173 72.8637 22.1335 74.565 22.1335C76.2663 22.1335 77.6501 23.5173 77.6501 25.2186C77.6501 25.5603 77.5945 25.8885 77.4913 26.1953C77.1882 27.102 76.4752 27.8222 75.5739 28.1343C75.3102 28.2257 75.0305 28.2832 74.7398 28.2993V29.0329C75.0788 29.0177 75.4053 28.9585 75.7156 28.8598C76.955 28.4679 77.9227 27.4589 78.2572 26.1953C78.3397 25.8832 78.3836 25.5558 78.3836 25.2186C78.3837 23.1128 76.6708 21.4007 74.565 21.4007Z" fill="#78ACEA"/>
<path d="M75.745 28.6393C75.745 28.7155 75.7343 28.79 75.7155 28.8599C75.6186 29.2097 75.2993 29.4661 74.9182 29.4661C74.4617 29.4661 74.0913 29.0958 74.0913 28.6393C74.0913 28.1828 74.4617 27.8124 74.9182 27.8124C75.1854 27.8124 75.4222 27.9389 75.5738 28.1344C75.6814 28.2742 75.745 28.4491 75.745 28.6393Z" fill="#78ACEA"/>
<path d="M88.2563 21.4007C86.1505 21.4007 84.4375 23.1128 84.4375 25.2186H85.1702C85.1702 23.5173 86.5541 22.1335 88.2563 22.1335C89.9576 22.1335 91.3415 23.5173 91.3415 25.2186C91.3415 25.5603 91.2859 25.8885 91.1827 26.1953C90.8796 27.102 90.1666 27.8222 89.2652 28.1343C89.0015 28.2257 88.7217 28.2832 88.4311 28.2993V29.0329C88.7693 29.0177 89.0966 28.9585 89.4069 28.8598C90.6463 28.467 91.6131 27.4589 91.9477 26.1953C92.0302 25.8832 92.0741 25.5558 92.0741 25.2186C92.0742 23.1128 90.3612 21.4007 88.2563 21.4007Z" fill="#78ACEA"/>
<path d="M89.4362 28.6393C89.4362 28.7155 89.4254 28.79 89.4067 28.8599C89.3098 29.2097 88.9896 29.4661 88.6093 29.4661C88.1528 29.4661 87.7825 29.0958 87.7825 28.6393C87.7825 28.1828 88.1528 27.8124 88.6093 27.8124C88.8758 27.8124 89.1125 27.9389 89.2649 28.1344C89.3726 28.2742 89.4362 28.4491 89.4362 28.6393Z" fill="#78ACEA"/>
<path d="M101.947 21.4007C99.8408 21.4007 98.1287 23.1128 98.1287 25.2186H98.8614C98.8614 23.5173 100.245 22.1335 101.947 22.1335C103.648 22.1335 105.033 23.5173 105.033 25.2186C105.033 25.5603 104.977 25.8885 104.874 26.1953C104.571 27.102 103.858 27.8222 102.956 28.1343C102.692 28.2257 102.413 28.2832 102.122 28.2993V29.0329C102.46 29.0177 102.788 28.9585 103.098 28.8598C104.338 28.467 105.304 27.4589 105.639 26.1953C105.721 25.8832 105.765 25.5558 105.765 25.2186C105.765 23.1128 104.052 21.4007 101.947 21.4007Z" fill="#78ACEA"/>
<path d="M103.128 28.6393C103.128 28.7155 103.117 28.79 103.098 28.8599C103.001 29.2097 102.681 29.4661 102.301 29.4661C101.844 29.4661 101.474 29.0958 101.474 28.6393C101.474 28.1828 101.844 27.8124 102.301 27.8124C102.567 27.8124 102.804 27.9389 102.955 28.1344C103.064 28.2742 103.128 28.4491 103.128 28.6393Z" fill="#78ACEA"/>
<path d="M115.638 21.4007C113.532 21.4007 111.819 23.1128 111.819 25.2186H112.552C112.552 23.5173 113.937 22.1335 115.638 22.1335C117.339 22.1335 118.723 23.5173 118.723 25.2186C118.723 25.5603 118.667 25.8885 118.564 26.1953C118.261 27.102 117.548 27.8222 116.646 28.1343C116.383 28.2257 116.103 28.2832 115.813 28.2993V29.0329C116.152 29.0177 116.478 28.9585 116.788 28.8598C118.028 28.4679 118.996 27.4589 119.33 26.1953C119.413 25.8832 119.457 25.5558 119.457 25.2186C119.457 23.1128 117.744 21.4007 115.638 21.4007Z" fill="#78ACEA"/>
<path d="M116.818 28.6393C116.818 28.7155 116.807 28.79 116.788 28.8599C116.692 29.2097 116.372 29.4661 115.991 29.4661C115.535 29.4661 115.164 29.0958 115.164 28.6393C115.164 28.1828 115.535 27.8124 115.991 27.8124C116.258 27.8124 116.495 27.9389 116.646 28.1344C116.754 28.2742 116.818 28.4491 116.818 28.6393Z" fill="#78ACEA"/>
<path d="M129.329 21.4007C127.223 21.4007 125.51 23.1128 125.51 25.2186H126.243C126.243 23.5173 127.627 22.1335 129.329 22.1335C131.03 22.1335 132.414 23.5173 132.414 25.2186C132.414 25.5603 132.359 25.8885 132.256 26.1953C131.952 27.102 131.239 27.8222 130.337 28.1343C130.074 28.2257 129.795 28.2832 129.504 28.2993V29.0329C129.843 29.0177 130.169 28.9585 130.48 28.8598C131.718 28.4679 132.686 27.4589 133.021 26.1953C133.103 25.8832 133.147 25.5558 133.147 25.2186C133.147 23.1128 131.434 21.4007 129.329 21.4007Z" fill="#78ACEA"/>
<path d="M130.509 28.6393C130.509 28.7155 130.498 28.79 130.479 28.8599C130.383 29.2097 130.062 29.4661 129.682 29.4661C129.226 29.4661 128.855 29.0958 128.855 28.6393C128.855 28.1828 129.226 27.8124 129.682 27.8124C129.949 27.8124 130.185 27.9389 130.337 28.1344C130.445 28.2742 130.509 28.4491 130.509 28.6393Z" fill="#78ACEA"/>
<path d="M143.019 21.4007C140.914 21.4007 139.202 23.1128 139.202 25.2186H139.934C139.934 23.5173 141.318 22.1335 143.019 22.1335C144.721 22.1335 146.105 23.5173 146.105 25.2186C146.105 25.5603 146.05 25.8885 145.947 26.1953C145.644 27.102 144.931 27.8222 144.028 28.1343C143.765 28.2257 143.486 28.2832 143.195 28.2993V29.0329C143.534 29.0177 143.861 28.9585 144.171 28.8598C145.41 28.4679 146.377 27.4589 146.712 26.1953C146.794 25.8832 146.838 25.5558 146.838 25.2186C146.838 23.1128 145.125 21.4007 143.019 21.4007Z" fill="#78ACEA"/>
<path d="M144.2 28.6393C144.2 28.7155 144.19 28.79 144.171 28.8599C144.074 29.2097 143.754 29.4661 143.373 29.4661C142.917 29.4661 142.547 29.0958 142.547 28.6393C142.547 28.1828 142.917 27.8124 143.373 27.8124C143.64 27.8124 143.877 27.9389 144.028 28.1344C144.137 28.2742 144.2 28.4491 144.2 28.6393Z" fill="#78ACEA"/>
<path d="M90.2696 62.9411H85.817C85.3023 62.9411 84.7999 62.52 84.7006 62.0052L83.8417 57.5527C83.7424 57.038 84.0824 56.6169 84.5971 56.6169H89.0496C89.5644 56.6169 90.0667 57.038 90.166 57.5527L91.0249 62.0052C91.1242 62.52 90.7844 62.9411 90.2696 62.9411Z" fill="#AFCDFB"/>
<path d="M101.505 62.9411H97.0525C96.5378 62.9411 96.0354 62.52 95.9361 62.0052L95.0772 57.5527C94.9779 57.038 95.3178 56.6169 95.8325 56.6169H100.285C100.8 56.6169 101.302 57.038 101.401 57.5527L102.26 62.0052C102.36 62.52 102.02 62.9411 101.505 62.9411Z" fill="#AFCDFB"/>
<path d="M112.74 62.9411H108.288C107.773 62.9411 107.271 62.52 107.171 62.0052L106.313 57.5527C106.213 57.038 106.553 56.6169 107.068 56.6169H111.52C112.035 56.6169 112.537 57.038 112.637 57.5527L113.496 62.0052C113.595 62.52 113.255 62.9411 112.74 62.9411Z" fill="#78ACEA"/>
<path d="M56.5628 62.9411H52.1102C51.5955 62.9411 51.0932 62.52 50.9938 62.0052L50.1349 57.5527C50.0356 57.038 50.3756 56.6169 50.8903 56.6169H55.3428C55.8575 56.6169 56.3599 57.038 56.4591 57.5527L57.3181 62.0052C57.4175 62.52 57.0776 62.9411 56.5628 62.9411Z" fill="#AFCDFB"/>
<path d="M51.6828 49.5734H49.7694C49.5482 49.5734 49.3323 49.3924 49.2896 49.1713L48.9205 47.2578C48.8778 47.0366 49.0239 46.8556 49.2451 46.8556H51.1585C51.3796 46.8556 51.5955 47.0366 51.6382 47.2578L52.0073 49.1713C52.0501 49.3924 51.9039 49.5734 51.6828 49.5734Z" fill="#2B478B"/>
<path d="M67.7982 62.9411H63.3456C62.8309 62.9411 62.3285 62.52 62.2293 62.0052L61.3704 57.5527C61.2711 57.038 61.611 56.6169 62.1257 56.6169H66.5782C67.0929 56.6169 67.5953 57.038 67.6946 57.5527L68.5535 62.0052C68.6528 62.52 68.313 62.9411 67.7982 62.9411Z" fill="#AFCDFB"/>
<path d="M79.0336 62.9411H74.5811C74.0664 62.9411 73.564 62.52 73.4647 62.0052L72.6057 57.5527C72.5064 57.038 72.8464 56.6169 73.3611 56.6169H77.8136C78.3284 56.6169 78.8307 57.038 78.93 57.5527L79.789 62.0052C79.8882 62.52 79.5483 62.9411 79.0336 62.9411Z" fill="#AFCDFB"/>
<path d="M123.976 62.9411H119.524C119.009 62.9411 118.507 62.52 118.407 62.0052L117.548 57.5527C117.449 57.038 117.789 56.6169 118.304 56.6169H122.756C123.271 56.6169 123.773 57.038 123.873 57.5527L124.732 62.0052C124.831 62.52 124.491 62.9411 123.976 62.9411Z" fill="#78ACEA"/>
<path d="M88.4042 53.2705H83.9517C83.437 53.2705 82.9346 52.8494 82.8353 52.3347L81.9763 47.8821C81.877 47.3673 82.217 46.9462 82.7316 46.9462H87.1843C87.699 46.9462 88.2013 47.3673 88.3006 47.8821L89.1596 52.3347C89.2589 52.8493 88.919 53.2705 88.4042 53.2705Z" fill="#AFCDFB"/>
<path d="M99.6396 53.2705H95.187C94.6722 53.2705 94.1699 52.8494 94.0706 52.3347L93.2117 47.8821C93.1124 47.3673 93.4524 46.9462 93.967 46.9462H98.4195C98.9343 46.9462 99.4366 47.3673 99.5359 47.8821L100.395 52.3347C100.494 52.8493 100.154 53.2705 99.6396 53.2705Z" fill="#AFCDFB"/>
<path d="M110.875 53.2705H106.423C105.908 53.2705 105.405 52.8494 105.306 52.3347L104.447 47.8821C104.348 47.3673 104.688 46.9462 105.202 46.9462H109.655C110.17 46.9462 110.672 47.3673 110.771 47.8821L111.63 52.3347C111.73 52.8493 111.39 53.2705 110.875 53.2705Z" fill="#78ACEA"/>
<path d="M122.111 53.2705H117.658C117.144 53.2705 116.641 52.8494 116.542 52.3347L115.683 47.8821C115.584 47.3673 115.924 46.9462 116.438 46.9462H120.891C121.406 46.9462 121.908 47.3673 122.007 47.8821L122.866 52.3347C122.966 52.8493 122.626 53.2705 122.111 53.2705Z" fill="#78ACEA"/>
<path d="M92.2469 73.191H87.7942C87.2795 73.191 86.7772 72.7698 86.6779 72.2551L85.819 67.8025C85.7197 67.2878 86.0596 66.8667 86.5743 66.8667H91.0268C91.5416 66.8667 92.0439 67.2878 92.1432 67.8025L93.0021 72.2551C93.1015 72.7698 92.7616 73.191 92.2469 73.191Z" fill="#AFCDFB"/>
<path d="M103.482 73.191H99.0297C98.515 73.191 98.0126 72.7698 97.9133 72.2551L97.0544 67.8025C96.955 67.2878 97.295 66.8667 97.8097 66.8667H102.262C102.777 66.8667 103.279 67.2878 103.379 67.8025L104.238 72.2551C104.337 72.7698 103.997 73.191 103.482 73.191Z" fill="#AFCDFB"/>
<path d="M114.718 73.191H110.265C109.75 73.191 109.248 72.7698 109.149 72.2551L108.29 67.8025C108.19 67.2878 108.53 66.8667 109.045 66.8667H113.498C114.012 66.8667 114.515 67.2878 114.614 67.8025L115.473 72.2551C115.572 72.7698 115.232 73.191 114.718 73.191Z" fill="#78ACEA"/>
<path d="M58.5401 73.191H54.0875C53.5728 73.191 53.0704 72.7698 52.9711 72.2551L52.1122 67.8025C52.0129 67.2878 52.3529 66.8667 52.8676 66.8667H57.3201C57.8348 66.8667 58.3372 67.2878 58.4365 67.8025L59.2954 72.2551C59.3947 72.7698 59.0548 73.191 58.5401 73.191Z" fill="#AFCDFB"/>
<path d="M69.7754 73.191H65.3229C64.8082 73.191 64.3058 72.7698 64.2065 72.2551L63.3476 67.8025C63.2483 67.2878 63.5882 66.8667 64.1029 66.8667H68.5555C69.0702 66.8667 69.5726 67.2878 69.6719 67.8025L70.5307 72.2551C70.6301 72.7698 70.2902 73.191 69.7754 73.191Z" fill="#AFCDFB"/>
<path d="M81.0108 73.191H76.5582C76.0434 73.191 75.5412 72.7698 75.4418 72.2551L74.5829 67.8025C74.4836 67.2878 74.8236 66.8667 75.3382 66.8667H79.7908C80.3055 66.8667 80.8079 67.2878 80.9072 67.8025L81.7661 72.2551C81.8655 72.7698 81.5256 73.191 81.0108 73.191Z" fill="#AFCDFB"/>
<path d="M125.954 73.191H121.501C120.986 73.191 120.484 72.7698 120.385 72.2551L119.526 67.8025C119.426 67.2878 119.766 66.8667 120.281 66.8667H124.734C125.248 66.8667 125.751 67.2878 125.85 67.8025L126.709 72.2551C126.808 72.7698 126.468 73.191 125.954 73.191Z" fill="#78ACEA"/>
<path d="M94.2237 83.4408H89.7711C89.2563 83.4408 88.754 83.0198 88.6547 82.505L87.7958 78.0524C87.6965 77.5377 88.0365 77.1166 88.5511 77.1166H93.0037C93.5184 77.1166 94.0208 77.5377 94.1201 78.0524L94.979 82.505C95.0783 83.0197 94.7385 83.4408 94.2237 83.4408Z" fill="#AFCDFB"/>
<path d="M105.459 83.4408H101.007C100.492 83.4408 99.9897 83.0198 99.8905 82.505L99.0315 78.0524C98.9322 77.5377 99.2721 77.1166 99.7868 77.1166H104.239C104.754 77.1166 105.256 77.5377 105.356 78.0524L106.215 82.505C106.314 83.0197 105.974 83.4408 105.459 83.4408Z" fill="#AFCDFB"/>
<path d="M116.695 83.4408H112.242C111.727 83.4408 111.225 83.0198 111.126 82.505L110.267 78.0524C110.168 77.5377 110.508 77.1166 111.022 77.1166H115.475C115.99 77.1166 116.492 77.5377 116.591 78.0524L117.45 82.505C117.549 83.0197 117.21 83.4408 116.695 83.4408Z" fill="#78ACEA"/>
<path d="M60.5168 83.4408H56.0642C55.5495 83.4408 55.0471 83.0198 54.9478 82.505L54.0889 78.0524C53.9896 77.5377 54.3296 77.1166 54.8443 77.1166H59.2968C59.8115 77.1166 60.3139 77.5377 60.4131 78.0524L61.272 82.505C61.3714 83.0197 61.0315 83.4408 60.5168 83.4408Z" fill="#AFCDFB"/>
<path d="M71.7528 83.4408H67.3002C66.7855 83.4408 66.2831 83.0198 66.1839 82.505L65.325 78.0524C65.2257 77.5377 65.5656 77.1166 66.0803 77.1166H70.5328C71.0475 77.1166 71.5499 77.5377 71.6492 78.0524L72.5081 82.505C72.6074 83.0197 72.2675 83.4408 71.7528 83.4408Z" fill="#E63946"/>
<path d="M82.9881 83.4408H78.5355C78.0207 83.4408 77.5184 83.0198 77.4191 82.505L76.5602 78.0524C76.4609 77.5377 76.8009 77.1166 77.3156 77.1166H81.7681C82.2828 77.1166 82.7852 77.5377 82.8845 78.0524L83.7434 82.505C83.8427 83.0197 83.5029 83.4408 82.9881 83.4408Z" fill="#AFCDFB"/>
<path d="M127.931 83.4408H123.478C122.963 83.4408 122.461 83.0198 122.362 82.505L121.503 78.0524C121.404 77.5377 121.743 77.1166 122.258 77.1166H126.711C127.226 77.1166 127.728 77.5377 127.827 78.0524L128.686 82.505C128.785 83.0197 128.445 83.4408 127.931 83.4408Z" fill="#78ACEA"/>
<path d="M96.0894 93.1112H91.6368C91.1221 93.1112 90.6198 92.69 90.5205 92.1753L89.6615 87.7227C89.5622 87.208 89.9022 86.7869 90.4169 86.7869H94.8694C95.3841 86.7869 95.8865 87.208 95.9858 87.7227L96.8448 92.1753C96.944 92.69 96.6041 93.1112 96.0894 93.1112Z" fill="#AFCDFB"/>
<path d="M107.325 93.1112H102.872C102.358 93.1112 101.855 92.69 101.756 92.1753L100.897 87.7227C100.798 87.208 101.138 86.7869 101.652 86.7869H106.105C106.62 86.7869 107.122 87.208 107.221 87.7227L108.08 92.1753C108.179 92.69 107.84 93.1112 107.325 93.1112Z" fill="#AFCDFB"/>
<path d="M118.56 93.1112H114.108C113.593 93.1112 113.091 92.69 112.991 92.1753L112.132 87.7227C112.033 87.208 112.373 86.7869 112.888 86.7869H117.34C117.855 86.7869 118.357 87.208 118.457 87.7227L119.315 92.1753C119.415 92.69 119.075 93.1112 118.56 93.1112Z" fill="#78ACEA"/>
<path d="M62.3821 93.1112H57.9296C57.4148 93.1112 56.9125 92.69 56.8132 92.1753L55.9543 87.7227C55.8549 87.208 56.1949 86.7869 56.7095 86.7869H61.1621C61.6768 86.7869 62.1792 87.208 62.2785 87.7227L63.1374 92.1753C63.2367 92.69 62.8968 93.1112 62.3821 93.1112Z" fill="#AFCDFB"/>
<path d="M73.6182 93.1112H69.1657C68.6509 93.1112 68.1486 92.69 68.0493 92.1753L67.1903 87.7227C67.091 87.208 67.431 86.7869 67.9457 86.7869H72.3982C72.913 86.7869 73.4153 87.208 73.5146 87.7227L74.3736 92.1753C74.4728 92.69 74.1328 93.1112 73.6182 93.1112Z" fill="#AFCDFB"/>
<path d="M84.8536 93.1112H80.401C79.8863 93.1112 79.3839 92.69 79.2846 92.1753L78.4257 87.7227C78.3264 87.208 78.6663 86.7869 79.181 86.7869H83.6336C84.1483 86.7869 84.6507 87.208 84.75 87.7227L85.6089 92.1753C85.7082 92.69 85.3682 93.1112 84.8536 93.1112Z" fill="#AFCDFB"/>
<path d="M65.178 47.8165H53.382C53.2082 47.8165 53.0659 47.6742 53.0659 47.5004C53.0659 47.3266 53.2082 47.1844 53.382 47.1844H65.178C65.3518 47.1844 65.4941 47.3267 65.4941 47.5004C65.4941 47.6742 65.3519 47.8165 65.178 47.8165Z" fill="#AFCDFB"/>
<path d="M65.5368 49.2451H53.7408C53.5669 49.2451 53.4247 49.1028 53.4247 48.929C53.4247 48.7552 53.5669 48.613 53.7408 48.613H65.5368C65.7106 48.613 65.8528 48.7553 65.8528 48.929C65.8528 49.1029 65.7106 49.2451 65.5368 49.2451Z" fill="#AFCDFB"/>
<path d="M52.5267 37.1783H48.4788C48.1473 37.1783 47.876 36.907 47.876 36.5755C47.876 36.2439 48.1473 35.9726 48.4788 35.9726H52.5267C52.8583 35.9726 53.1296 36.2439 53.1296 36.5755C53.1296 36.907 52.8583 37.1783 52.5267 37.1783Z" fill="#F5F5F5"/>
<path d="M63.6339 37.1784H59.586C59.2544 37.1784 58.9832 36.9071 58.9832 36.5755C58.9832 36.2439 59.2545 35.9726 59.586 35.9726H63.6339C63.9655 35.9726 64.2368 36.2439 64.2368 36.5755C64.2369 36.9071 63.9656 37.1784 63.6339 37.1784Z" fill="#F5F5F5"/>
<path d="M74.7409 37.1784H70.693C70.3614 37.1784 70.0901 36.9071 70.0901 36.5755C70.0901 36.2439 70.3614 35.9726 70.693 35.9726H74.7409C75.0724 35.9726 75.3437 36.2439 75.3437 36.5755C75.3437 36.9071 75.0724 37.1784 74.7409 37.1784Z" fill="#F5F5F5"/>
<path d="M85.8481 37.1784H81.8002C81.4686 37.1784 81.1973 36.9071 81.1973 36.5755C81.1973 36.2439 81.4686 35.9726 81.8002 35.9726H85.8481C86.1797 35.9726 86.451 36.2439 86.451 36.5755C86.451 36.9071 86.1796 37.1784 85.8481 37.1784Z" fill="#F5F5F5"/>
<path d="M96.9553 37.1784H92.9074C92.5758 37.1784 92.3046 36.9071 92.3046 36.5755C92.3046 36.2439 92.5758 35.9726 92.9074 35.9726H96.9553C97.287 35.9726 97.5582 36.2439 97.5582 36.5755C97.5582 36.9071 97.287 37.1784 96.9553 37.1784Z" fill="#F5F5F5"/>
<path d="M108.063 37.1784H104.015C103.683 37.1784 103.412 36.9071 103.412 36.5755C103.412 36.2439 103.683 35.9726 104.015 35.9726H108.063C108.394 35.9726 108.666 36.2439 108.666 36.5755C108.666 36.9071 108.394 37.1784 108.063 37.1784Z" fill="#F5F5F5"/>
<path d="M119.17 37.1784H115.122C114.79 37.1784 114.519 36.9071 114.519 36.5755C114.519 36.2439 114.79 35.9726 115.122 35.9726H119.17C119.501 35.9726 119.773 36.2439 119.773 36.5755C119.773 36.9071 119.501 37.1784 119.17 37.1784Z" fill="#F5F5F5"/>
<path d="M93.5686 53.3584C92.6747 53.3584 92.0239 53.0746 91.6691 52.524C90.9889 51.4682 91.5139 49.9882 93.2298 48.1248C94.483 46.7643 95.9464 45.686 95.9611 45.6752C96.0183 45.633 96.0994 45.6454 96.1416 45.703C96.1838 45.7604 96.1713 45.8414 96.1138 45.8836C96.0567 45.9255 90.4159 50.102 91.8864 52.3841C92.3522 53.107 93.3492 53.1549 94.1046 53.0675C95.5021 52.9059 97.3243 52.1532 98.9789 51.0542C100.692 49.9167 101.898 48.6347 102.289 47.5369C102.545 46.8167 102.466 46.3066 102.053 46.0207C101.519 45.6514 100.405 45.6512 99.0711 46.0197C97.7939 46.3728 96.5085 47.0085 95.7162 47.6789C95.662 47.7249 95.5803 47.718 95.5342 47.6636C95.4881 47.6093 95.4949 47.5277 95.5494 47.4816C96.3682 46.7888 97.6913 46.1332 99.0023 45.7708C100.43 45.3762 101.595 45.3898 102.2 45.8084C102.558 46.0562 102.907 46.5725 102.532 47.6236C102.123 48.773 100.88 50.1019 99.1219 51.2695C97.4348 52.3901 95.5703 53.1581 94.1343 53.3242C93.9363 53.347 93.7476 53.3584 93.5686 53.3584Z" fill="#C65447"/>
<path d="M116.941 46.0183L116.482 45.1514C116.482 45.1514 116.71 43.6066 114.774 42.6294C114.774 42.6294 114.067 42.3414 113.667 42.9183C113.299 43.4497 114.368 43.3537 114.311 44.2629C114.254 45.1721 114.685 45.7056 115.286 46.0017L115.782 46.5768L116.941 46.0183Z" fill="#FFB27D"/>
<path d="M135.234 43.9458C135.234 43.9458 133.572 52.1045 124.424 54.7701C121.569 55.6023 115.082 46.2013 115.082 46.2013C115.082 46.2013 115.31 45.3347 116.738 45.5337C116.738 45.5337 123.055 49.7154 123.85 50.1697C124.556 50.5728 129.196 44.9881 131.311 44.0873C133.427 43.1865 135.234 43.9458 135.234 43.9458Z" fill="#233862"/>
<path d="M108.491 43.7974L108.857 45.7768L118.814 43.9328L118.448 41.9534L108.491 43.7974Z" fill="#C65447"/>
<path d="M106.355 45.2178L108.853 45.7789L108.486 43.7996L106.355 45.2178Z" fill="#FFB27D"/>
<path d="M119.722 42.398L119.838 43.0237C119.909 43.4086 119.655 43.7785 119.27 43.8498L118.81 43.9351L118.443 41.9558L118.944 41.863C119.307 41.7958 119.655 42.0353 119.722 42.398Z" fill="#FFB27D"/>
<path d="M146.156 95.234C146.156 95.234 147.29 96.2697 147.069 97.0055C146.847 97.7413 145.823 98.2319 145.685 99.1313C145.547 100.031 144.993 100.521 144.495 100.521C143.997 100.521 142.12 100.521 142.12 100.521C142.12 100.521 141.753 99.8883 142.639 99.6976C143.524 99.5068 143.858 98.4499 143.803 97.4688C143.748 96.4877 143.886 95.1796 143.886 95.1796L145.768 94.7435L146.156 95.234Z" fill="#233862"/>
<path d="M132.233 97.9123C132.233 97.9123 132.437 100.269 131.938 100.514L125.562 100.501C125.562 100.501 125.562 99.7655 126.587 99.602C127.611 99.4385 129.41 98.839 129.714 97.5035C130.019 96.1682 132.233 97.9123 132.233 97.9123Z" fill="#233862"/>
<path d="M126.85 64.6193C126.85 64.6193 127.186 68.7507 127.581 73.7169C128.119 80.4628 128.765 88.7493 128.828 90.3191C128.939 93.045 129.382 97.4053 129.382 97.4053C129.382 97.4053 130.434 98.4411 132.538 98.0045C132.538 98.0045 134.413 91.7801 134.948 85.1943C134.956 85.0864 134.965 84.9777 134.973 84.8689C135.471 78.1646 136.246 64.047 136.246 64.047L126.85 64.6193Z" fill="#F99746"/>
<path d="M126.85 64.6193C126.85 64.6193 127.186 68.7507 127.581 73.7169L134.948 85.1943C134.956 85.0864 134.965 84.9777 134.973 84.869C135.471 78.1646 136.246 64.047 136.246 64.047L126.85 64.6193Z" fill="#ED7D2B"/>
<path d="M128.385 65.11C128.385 65.11 134.447 80.0722 138.432 87.1036C142.418 94.135 143.664 96.0973 143.664 96.0973C143.664 96.0973 145.947 95.1979 146.155 94.5847C146.155 94.5847 144.63 81.0102 141.961 77.7011C140.453 75.8313 138.681 70.2201 138.598 68.2578C138.515 66.2956 138.059 62.412 138.059 62.412L128.385 65.11Z" fill="#F99746"/>
<path d="M136.361 42.0522C136.361 42.0522 132.259 44.031 129.895 43.2969C129.895 43.2969 130.477 42.5626 131.495 42.0163C131.414 41.5418 131.35 41.1298 131.314 40.7807C131.214 39.9748 131.214 39.5181 131.214 39.5181L132.796 38.2736L134.296 37.0826C134.178 40.4314 136.361 42.0522 136.361 42.0522Z" fill="#FFB27D"/>
<path d="M126.591 64.9608C126.663 65.0238 126.746 65.0589 126.837 65.0589C127.728 65.0408 130.32 65.533 132.511 65.3094C134.366 65.1303 136.003 64.5933 137.758 63.8238C137.995 63.7162 138.532 63.4295 138.522 63.1791C138.513 62.8925 138.486 62.4896 138.45 61.9695C138.376 60.9465 138.273 59.494 138.24 57.7718C138.215 56.4952 138.229 55.0704 138.322 53.5615C138.327 53.4602 138.333 53.3579 138.337 53.2556C138.363 52.7025 138.376 52.1451 138.376 51.6006C138.386 49.8454 138.259 48.1713 138.004 46.6762C137.558 44.0791 136.721 42.0469 135.485 41.1422C135.321 41.0165 134.302 41.5088 133.357 41.9659C132.493 42.3868 131.629 42.4316 130.811 42.2707L129.993 42.9868C129 43.8905 127.909 45.1352 127.428 47.0161C127.028 48.6102 126.791 51.4929 126.664 54.4842C126.601 55.845 126.555 57.2059 126.537 58.5039V58.5486C126.527 58.6829 126.527 58.8182 126.527 58.9525C126.482 62.2742 126.527 64.916 126.591 64.9608Z" fill="#2B478B"/>
<path d="M134.324 38.3631C134.324 38.3631 133.287 40.2524 131.314 40.7807C131.214 39.9748 131.214 39.5181 131.214 39.5181L132.796 38.2736L134.324 38.3631Z" fill="#ED985F"/>
<path d="M130.492 39.4636C130.492 39.4636 134.404 40.1036 134.772 37.6983C135.139 35.2931 135.891 33.7558 133.409 33.2455C130.926 32.7352 130.3 33.581 129.979 34.3544C129.658 35.1278 129.484 39.2351 130.492 39.4636Z" fill="#FFB27D"/>
<path d="M136.194 32.9576C136.23 32.9169 136.311 32.8841 136.494 32.8741C136.494 32.8741 136.348 32.783 136.153 32.7782C136.115 32.5246 135.98 32.0759 135.544 31.9669C135.544 31.9669 135.778 32.0919 135.809 32.3615C135.304 31.8424 134.221 31.4647 131.222 31.7013C127.271 32.0132 128.573 34.5433 129.085 34.845C129.596 35.1466 130.884 34.3197 131.837 34.3953C132.79 34.471 132.972 35.8483 133.295 36.0373C133.618 36.2263 133.491 35.8921 133.929 35.6943C134.366 35.4965 134.408 36.2215 134.281 36.6928C134.155 37.1642 134.756 37.786 134.756 37.786C134.756 37.786 134.756 37.786 135.364 37.1317C135.971 36.4775 136.544 33.7064 136.267 33.1157C136.243 33.0636 136.219 33.0108 136.194 32.9576Z" fill="#2C3A64"/>
<path d="M116.473 45.1104C116.473 45.1104 116.608 44.5787 116.239 44.3396C115.87 44.1005 115.531 43.4505 115.375 43.5386C115.053 43.7209 115.551 44.2881 115.46 44.9956C115.428 45.2435 116.005 45.8925 116.473 45.1104Z" fill="#FFB27D"/>
<path d="M138.239 57.7718C138.215 56.4951 138.229 55.0703 138.321 53.5614C138.327 53.4601 138.332 53.3578 138.336 53.2555C137.964 51.413 137.402 49.7782 136.574 49.7249C136.574 49.7249 134.107 53.6018 138.239 57.7718Z" fill="#233862"/>
<path d="M141.503 64.4574C141.503 64.4574 141.297 66.4565 141.072 66.8347C140.846 67.2129 139.885 68.4212 139.476 68.6583C139.067 68.8955 139.726 67.0661 139.643 66.7102C139.559 66.3542 139.306 67.3598 139.125 67.3834C138.945 67.407 138.991 66.502 138.985 66.1726C138.979 65.8433 139.863 65.0302 140.174 64.3288C140.486 63.6275 141.503 64.4574 141.503 64.4574Z" fill="#FFB27D"/>
<path d="M135.483 41.1222C135.483 41.1222 137.959 42.2944 139.146 44.0966C140.987 46.892 143.121 57.0796 143.16 58.023C143.2 58.9664 141.602 65.6267 141.602 65.6267C141.602 65.6267 139.983 65.52 139.565 64.7024C139.565 64.7024 139.888 57.8591 139.683 57.4192C139.478 56.9793 132.931 48.2396 133.667 46.3748C134.403 44.5098 135.483 41.1222 135.483 41.1222Z" fill="#2B478B"/>
<path d="M107.635 44.3661L107.765 45.5346L106.355 45.2178L107.635 44.3661Z" fill="#C65447"/>
<path d="M17.8311 100.27C17.453 99.6759 16.3152 98.1344 14.7997 98.3385C13.1485 98.5607 16.6233 99.6494 17.6871 100.274C17.4509 100.278 17.2478 100.259 17.0986 100.206C16.3873 99.952 15.1693 100.438 14.7799 100.609H21.5507C21.5039 100.447 21.3819 100.182 21.0666 99.9896C20.9554 99.9217 20.7319 99.9122 20.4434 99.9341C20.846 99.4596 21.1256 97.9434 20.0048 98.3335C19.1861 98.6186 19.1883 99.5449 19.2686 100.093C19.0945 100.12 18.9178 100.148 18.7433 100.173C18.4062 98.455 17.2138 93.4198 14.7972 93.2855C12.3472 93.1495 16.8747 98.5075 18.3821 100.221C18.1893 100.244 18.0033 100.262 17.8311 100.27Z" fill="#82B378"/>
</svg>
