<svg width="187" height="131" viewBox="0 0 187 131" fill="none" xmlns="http://www.w3.org/2000/svg">
<mask id="mask0_214_229" style="mask-type:alpha" maskUnits="userSpaceOnUse" x="0" y="0" width="187" height="131">
<rect y="0.399994" width="187" height="130" rx="27" fill="#F1C991"/>
</mask>
<g mask="url(#mask0_214_229)">
<path d="M42.1479 147.678C42.1479 147.678 17.8099 121.547 38.0319 93.2561C55.9743 68.1546 76.8933 69.8704 92.2412 80.0568C98.7781 84.3954 117.625 80.5916 133.665 55.0498C155.541 20.2179 231.368 41.3435 217.543 94.9334C210.852 120.867 237.905 121.81 224.12 147.733L42.1479 147.678Z" fill="#EBF3FA"/>
<path d="M83.8864 79.5604C83.8864 79.5604 71.8462 62.422 67.1409 64.6437C62.4355 66.8655 83.8864 79.5604 83.8864 79.5604Z" fill="#A8D29F"/>
<path d="M83.1213 74.955C83.1213 74.955 81.2822 62.0686 78.3829 62.5742C75.4836 63.0798 83.1213 74.955 83.1213 74.955Z" fill="#A8D29F"/>
<path d="M72.9418 115.12C72.9418 115.12 74.099 109.386 69.6046 108.665C69.6046 108.665 66.5563 108.559 64.7614 109.708C64.7614 109.708 69.8589 112.651 69.2527 113.566C68.6466 114.481 63.8091 109.877 63.8091 109.877C63.8091 109.877 58.3446 112.271 57.1249 114.004C57.1249 114.004 63.5823 115.155 62.7697 115.892C61.957 116.629 55.1819 115.744 55.1819 115.744C55.1819 115.744 50.816 119.26 52.7176 122.06C54.6191 124.859 56.7892 124.839 57.4762 124.353C58.1631 123.866 61.5256 119.847 61.9532 120.394C62.3808 120.94 60.9011 124.334 59.1506 125.432C59.1506 125.432 64.6478 127.283 66.3035 124.937C67.9593 122.592 67.1935 120.768 68.2431 119.337C69.2926 117.906 70.4965 117.236 70.2814 118.217C70.0664 119.199 67.8725 121.261 67.863 123.137C67.8535 125.013 67.6676 126.378 69.8098 124.72C71.9521 123.061 74.7977 119.226 73.8697 117.173C72.9418 115.12 72.9418 115.12 72.9418 115.12Z" fill="#82B378"/>
<path d="M55.1324 120.815C55.1324 120.815 67.9542 112.989 72.9417 115.12C72.9417 115.12 74.6526 116.679 77.5971 117.324L78.3715 117.989C78.3715 117.989 74.7631 116.864 73.8697 117.173C73.8697 117.173 72.5465 111.82 55.1324 120.815Z" fill="#82B378"/>
<path d="M77.5973 117.324C77.5973 117.324 81.5721 117.833 83.8439 121.44L83.359 121.771C83.359 121.771 80.3137 118.43 77.8504 117.834C75.3871 117.238 77.5973 117.324 77.5973 117.324Z" fill="#82B378"/>
<path d="M76.8662 98.3883C76.8662 98.3883 86.1768 93.1744 81.8318 86.0983C81.8318 86.0983 78.3559 81.7533 74.6317 80.6361C74.6317 80.6361 76.6179 91.188 74.6317 91.4363C72.6454 91.6846 73.2661 79.5188 73.2661 79.5188C73.2661 79.5188 63.4591 74.8014 59.6106 75.1738C59.6106 75.1738 65.6936 85.4775 63.7073 85.2292C61.7211 84.9808 54.8933 74.5531 54.8933 74.5531C54.8933 74.5531 44.838 72.691 43.2241 78.6498C41.6103 84.6086 44.2173 87.5879 45.7069 87.9603C47.1966 88.3327 56.7555 88.2086 56.5071 89.45C56.2588 90.6914 49.8036 92.6776 46.2034 91.5604C46.2034 91.5604 50.176 101.367 55.3899 100.871C60.6037 100.374 62.2176 97.1467 65.4453 96.8983C68.6729 96.6501 71.0316 97.519 69.4178 98.3881C67.804 99.2571 62.3417 98.6728 59.7348 100.889C57.1278 103.105 55.0174 104.471 59.8589 105.464C64.7004 106.457 73.3903 105.836 75.1282 102.112C76.8662 98.3883 76.8662 98.3883 76.8662 98.3883Z" fill="#A8D29F"/>
<path d="M47.8174 80.5121C47.8174 80.5121 73.887 88.9537 76.8663 98.3884C76.8663 98.3884 76.7422 102.609 79.3492 107.451V109.313C79.3492 109.313 76.6181 102.982 75.1284 102.112C75.1284 102.112 80.9629 93.9193 47.8174 80.5121Z" fill="#82B378"/>
<path d="M79.3491 107.451C79.3491 107.451 83.3694 113.556 81.0775 120.987L80.0431 120.71C80.0431 120.71 81.0471 112.524 78.9437 108.407C76.8404 104.29 79.3491 107.451 79.3491 107.451Z" fill="#82B378"/>
<path d="M66.8486 54.6405L52.9182 126.659C52.6349 128.124 53.757 129.483 55.249 129.483H62.5959L66.8486 54.6405Z" fill="#2E8485"/>
<path d="M178.928 75.3814C178.928 75.3814 172.662 71.3842 175.966 66.6372C175.966 66.6372 178.557 63.7547 181.191 63.1264C181.191 63.1264 179.388 70.3845 180.76 70.6365C182.131 70.8885 182.185 62.404 182.185 62.404C182.185 62.404 189.193 59.5153 191.854 59.9278C191.854 59.9278 187.213 66.8498 188.604 66.7565C189.995 66.6631 195.159 59.6846 195.159 59.6846C195.159 59.6846 202.226 58.7911 203.11 62.999C203.994 67.207 202.062 69.1747 201.012 69.3742C199.961 69.5737 193.319 69.1058 193.442 69.9789C193.565 70.8521 197.975 72.491 200.523 71.8578C200.523 71.8578 197.369 78.5188 193.763 77.9653C190.157 77.4119 189.164 75.103 186.93 74.8016C184.695 74.5 183.02 75.0102 184.108 75.6789C185.195 76.3475 189.017 76.1593 190.741 77.8046C192.465 79.4497 193.878 80.4836 190.472 80.9808C187.066 81.4782 181.048 80.6997 179.988 78.0406C178.928 75.3814 178.928 75.3814 178.928 75.3814Z" fill="#C7DCFB"/>
<path d="M199.841 64.1104C199.841 64.1104 181.377 68.9397 178.928 75.3813C178.928 75.3813 178.846 78.3213 176.84 81.5838L176.766 82.8786C176.766 82.8786 178.918 78.5851 179.988 78.0404C179.988 78.0404 176.258 72.1102 199.841 64.1104Z" fill="#C7DCFB"/>
<path d="M176.84 81.584C176.84 81.584 173.801 85.6688 175.098 90.928L175.828 90.776C175.828 90.776 175.457 85.0442 177.084 82.2654C178.71 79.4866 176.84 81.584 176.84 81.584Z" fill="#C7DCFB"/>
<path d="M162.057 58.0313C162.057 58.0313 152.429 55.9173 154.374 48.4979C154.374 48.4979 156.282 43.7257 159.275 41.7401C159.275 41.7401 160.347 51.6 162.169 51.2872C163.992 50.9745 160.183 40.3865 160.183 40.3865C160.183 40.3865 167.588 33.5886 171.09 32.8865C171.09 32.8865 168.474 43.6247 170.163 42.8731C171.852 42.1214 175.093 31.0738 175.093 31.0738C175.093 31.0738 183.483 26.7332 186.507 31.5682C189.53 36.4032 188.024 39.7355 186.807 40.4639C185.59 41.1923 177.107 43.644 177.659 44.6748C178.211 45.7057 184.449 45.7317 187.332 43.7794C187.332 43.7794 186.449 53.5131 181.707 54.4713C176.965 55.4294 174.673 53.0087 171.753 53.6541C168.834 54.2995 166.982 55.6998 168.641 56.0355C170.3 56.3712 174.972 54.3911 177.871 55.6517C180.769 56.9123 183.001 57.5539 178.987 59.7291C174.973 61.9044 167.125 63.6843 164.591 60.8579C162.057 58.0313 162.057 58.0313 162.057 58.0313Z" fill="#DFEBFD"/>
<path d="M182.945 34.4451C182.945 34.4451 162.162 48.893 162.057 58.0313C162.057 58.0313 163.298 61.7292 162.291 66.7075L162.79 68.3535C162.79 68.3535 163.507 62.0251 164.591 60.8577C164.591 60.8578 157.238 55.1785 182.945 34.4451Z" fill="#DFEBFD"/>
<path d="M162.291 66.7074C162.291 66.7074 160.373 73.1815 164.39 79.1368L165.23 78.614C165.23 78.614 162.149 71.6473 162.905 67.4444C163.662 63.2416 162.291 66.7074 162.291 66.7074Z" fill="#DFEBFD"/>
<path d="M67.016 54.349L57.7826 125.06C57.4765 127.404 59.3018 129.483 61.6663 129.483H75.2116L67.5746 54.0936L67.016 54.349Z" fill="#78ACEA"/>
<path d="M67.0159 54.3489L62.8826 124.609C62.727 127.253 64.8297 129.483 67.479 129.483H87.6806L67.0159 54.3489Z" fill="#699DEE"/>
<path d="M66.8608 54.9225L68.8705 124.609C68.7149 127.253 70.8177 129.483 73.4668 129.483H93.6684L66.8608 54.9225Z" fill="#5288D8"/>
<path d="M163.582 129.483H83.9287C81.9398 129.483 80.2352 128.062 79.8775 126.106L67.757 59.8231C67.2067 56.8137 69.5181 54.0414 72.5773 54.0414H151.293C153.282 54.0414 154.987 55.4625 155.344 57.4189L167.634 124.624C168.096 127.154 166.153 129.483 163.582 129.483Z" fill="#D7E9FF"/>
<path d="M69.3339 68.4312H157.414L155.155 55.9168C154.959 54.8311 154.014 54.0414 152.911 54.0414H67.5957C67.1294 54.0414 66.7772 54.4639 66.8612 54.9225L69.3339 68.4312Z" fill="#1B8283"/>
<path d="M90.8739 50.4007C88.7681 50.4007 87.0552 52.1128 87.0552 54.2186H87.7888C87.7888 52.5173 89.1726 51.1335 90.874 51.1335C92.5753 51.1335 93.96 52.5173 93.96 54.2186C93.96 54.5603 93.9044 54.8885 93.8012 55.1953C93.4981 56.102 92.7851 56.8222 91.8829 57.1343C91.6192 57.2257 91.3403 57.2832 91.0497 57.2993V58.0329C91.3888 58.0177 91.7151 57.9585 92.0255 57.8598C93.2641 57.4679 94.2317 56.4589 94.5663 55.1953C94.6488 54.8832 94.6927 54.5558 94.6927 54.2186C94.6926 52.1128 92.9796 50.4007 90.8739 50.4007Z" fill="#78ACEA"/>
<path d="M92.0547 57.6393C92.0547 57.7155 92.0439 57.79 92.0251 57.8599C91.9282 58.2097 91.6081 58.4661 91.2279 58.4661C90.7714 58.4661 90.401 58.0958 90.401 57.6393C90.401 57.1828 90.7714 56.8124 91.2279 56.8124C91.4942 56.8124 91.731 56.9389 91.8826 57.1344C91.991 57.2742 92.0547 57.4491 92.0547 57.6393Z" fill="#78ACEA"/>
<path d="M104.565 50.4007C102.459 50.4007 100.746 52.1128 100.746 54.2186H101.479C101.479 52.5173 102.864 51.1335 104.565 51.1335C106.266 51.1335 107.65 52.5173 107.65 54.2186C107.65 54.5603 107.594 54.8885 107.491 55.1953C107.188 56.102 106.475 56.8222 105.574 57.1343C105.31 57.2257 105.03 57.2832 104.74 57.2993V58.0329C105.079 58.0177 105.405 57.9585 105.716 57.8598C106.955 57.4679 107.923 56.4589 108.257 55.1953C108.34 54.8832 108.384 54.5558 108.384 54.2186C108.384 52.1128 106.671 50.4007 104.565 50.4007Z" fill="#78ACEA"/>
<path d="M105.745 57.6393C105.745 57.7155 105.734 57.79 105.715 57.8599C105.619 58.2097 105.299 58.4661 104.918 58.4661C104.462 58.4661 104.091 58.0958 104.091 57.6393C104.091 57.1828 104.462 56.8124 104.918 56.8124C105.185 56.8124 105.422 56.9389 105.574 57.1344C105.681 57.2742 105.745 57.4491 105.745 57.6393Z" fill="#78ACEA"/>
<path d="M118.256 50.4007C116.15 50.4007 114.438 52.1128 114.438 54.2186H115.17C115.17 52.5173 116.554 51.1335 118.256 51.1335C119.958 51.1335 121.341 52.5173 121.341 54.2186C121.341 54.5603 121.286 54.8885 121.183 55.1953C120.88 56.102 120.167 56.8222 119.265 57.1343C119.002 57.2257 118.722 57.2832 118.431 57.2993V58.0329C118.769 58.0177 119.097 57.9585 119.407 57.8598C120.646 57.467 121.613 56.4589 121.948 55.1953C122.03 54.8832 122.074 54.5558 122.074 54.2186C122.074 52.1128 120.361 50.4007 118.256 50.4007Z" fill="#78ACEA"/>
<path d="M119.436 57.6393C119.436 57.7155 119.425 57.79 119.407 57.8599C119.31 58.2097 118.99 58.4661 118.609 58.4661C118.153 58.4661 117.782 58.0958 117.782 57.6393C117.782 57.1828 118.153 56.8124 118.609 56.8124C118.876 56.8124 119.112 56.9389 119.265 57.1344C119.373 57.2742 119.436 57.4491 119.436 57.6393Z" fill="#78ACEA"/>
<path d="M131.947 50.4007C129.841 50.4007 128.129 52.1128 128.129 54.2186H128.861C128.861 52.5173 130.245 51.1335 131.947 51.1335C133.648 51.1335 135.033 52.5173 135.033 54.2186C135.033 54.5603 134.977 54.8885 134.874 55.1953C134.571 56.102 133.858 56.8222 132.956 57.1343C132.692 57.2257 132.413 57.2832 132.122 57.2993V58.0329C132.46 58.0177 132.788 57.9585 133.098 57.8598C134.338 57.467 135.304 56.4589 135.639 55.1953C135.721 54.8832 135.765 54.5558 135.765 54.2186C135.765 52.1128 134.052 50.4007 131.947 50.4007Z" fill="#78ACEA"/>
<path d="M133.128 57.6393C133.128 57.7155 133.117 57.79 133.098 57.8599C133.001 58.2097 132.681 58.4661 132.301 58.4661C131.844 58.4661 131.474 58.0958 131.474 57.6393C131.474 57.1828 131.844 56.8124 132.301 56.8124C132.567 56.8124 132.804 56.9389 132.955 57.1344C133.064 57.2742 133.128 57.4491 133.128 57.6393Z" fill="#78ACEA"/>
<path d="M145.638 50.4007C143.532 50.4007 141.819 52.1128 141.819 54.2186H142.552C142.552 52.5173 143.937 51.1335 145.638 51.1335C147.339 51.1335 148.723 52.5173 148.723 54.2186C148.723 54.5603 148.667 54.8885 148.564 55.1953C148.261 56.102 147.548 56.8222 146.646 57.1343C146.383 57.2257 146.103 57.2832 145.813 57.2993V58.0329C146.152 58.0177 146.478 57.9585 146.788 57.8598C148.028 57.4679 148.996 56.4589 149.33 55.1953C149.413 54.8832 149.457 54.5558 149.457 54.2186C149.457 52.1128 147.744 50.4007 145.638 50.4007Z" fill="#78ACEA"/>
<path d="M146.818 57.6393C146.818 57.7155 146.807 57.79 146.788 57.8599C146.692 58.2097 146.372 58.4661 145.991 58.4661C145.535 58.4661 145.164 58.0958 145.164 57.6393C145.164 57.1828 145.535 56.8124 145.991 56.8124C146.258 56.8124 146.495 56.9389 146.646 57.1344C146.754 57.2742 146.818 57.4491 146.818 57.6393Z" fill="#78ACEA"/>
<path d="M159.329 50.4007C157.223 50.4007 155.51 52.1128 155.51 54.2186H156.243C156.243 52.5173 157.627 51.1335 159.329 51.1335C161.03 51.1335 162.414 52.5173 162.414 54.2186C162.414 54.5603 162.359 54.8885 162.256 55.1953C161.952 56.102 161.239 56.8222 160.337 57.1343C160.074 57.2257 159.795 57.2832 159.504 57.2993V58.0329C159.843 58.0177 160.169 57.9585 160.48 57.8598C161.718 57.4679 162.686 56.4589 163.021 55.1953C163.103 54.8832 163.147 54.5558 163.147 54.2186C163.147 52.1128 161.434 50.4007 159.329 50.4007Z" fill="#78ACEA"/>
<path d="M160.509 57.6393C160.509 57.7155 160.498 57.79 160.479 57.8599C160.383 58.2097 160.062 58.4661 159.682 58.4661C159.226 58.4661 158.855 58.0958 158.855 57.6393C158.855 57.1828 159.226 56.8124 159.682 56.8124C159.949 56.8124 160.185 56.9389 160.337 57.1344C160.445 57.2742 160.509 57.4491 160.509 57.6393Z" fill="#78ACEA"/>
<path d="M173.019 50.4007C170.914 50.4007 169.202 52.1128 169.202 54.2186H169.934C169.934 52.5173 171.318 51.1335 173.019 51.1335C174.721 51.1335 176.105 52.5173 176.105 54.2186C176.105 54.5603 176.05 54.8885 175.947 55.1953C175.644 56.102 174.931 56.8222 174.028 57.1343C173.765 57.2257 173.486 57.2832 173.195 57.2993V58.0329C173.534 58.0177 173.861 57.9585 174.171 57.8598C175.41 57.4679 176.377 56.4589 176.712 55.1953C176.794 54.8832 176.838 54.5558 176.838 54.2186C176.838 52.1128 175.125 50.4007 173.019 50.4007Z" fill="#78ACEA"/>
<path d="M174.2 57.6393C174.2 57.7155 174.19 57.79 174.171 57.8599C174.074 58.2097 173.754 58.4661 173.373 58.4661C172.917 58.4661 172.547 58.0958 172.547 57.6393C172.547 57.1828 172.917 56.8124 173.373 56.8124C173.64 56.8124 173.877 56.9389 174.028 57.1344C174.137 57.2742 174.2 57.4491 174.2 57.6393Z" fill="#78ACEA"/>
<path d="M120.27 91.9411H115.817C115.302 91.9411 114.8 91.52 114.701 91.0052L113.842 86.5527C113.742 86.038 114.082 85.6169 114.597 85.6169H119.05C119.564 85.6169 120.067 86.038 120.166 86.5527L121.025 91.0052C121.124 91.52 120.784 91.9411 120.27 91.9411Z" fill="#AFCDFB"/>
<path d="M131.505 91.9411H127.053C126.538 91.9411 126.035 91.52 125.936 91.0052L125.077 86.5527C124.978 86.038 125.318 85.6169 125.832 85.6169H130.285C130.8 85.6169 131.302 86.038 131.401 86.5527L132.26 91.0052C132.36 91.52 132.02 91.9411 131.505 91.9411Z" fill="#AFCDFB"/>
<path d="M142.74 91.9411H138.288C137.773 91.9411 137.271 91.52 137.171 91.0052L136.313 86.5527C136.213 86.038 136.553 85.6169 137.068 85.6169H141.52C142.035 85.6169 142.537 86.038 142.637 86.5527L143.496 91.0052C143.595 91.52 143.255 91.9411 142.74 91.9411Z" fill="#78ACEA"/>
<path d="M86.5628 91.9411H82.1102C81.5955 91.9411 81.0932 91.52 80.9938 91.0052L80.1349 86.5527C80.0356 86.038 80.3756 85.6169 80.8903 85.6169H85.3428C85.8575 85.6169 86.3599 86.038 86.4591 86.5527L87.3181 91.0052C87.4175 91.52 87.0776 91.9411 86.5628 91.9411Z" fill="#AFCDFB"/>
<path d="M81.6828 78.5734H79.7694C79.5482 78.5734 79.3323 78.3924 79.2896 78.1713L78.9205 76.2578C78.8778 76.0366 79.0239 75.8556 79.2451 75.8556H81.1585C81.3796 75.8556 81.5955 76.0366 81.6382 76.2578L82.0073 78.1713C82.0501 78.3924 81.9039 78.5734 81.6828 78.5734Z" fill="#2B478B"/>
<path d="M97.7982 91.9411H93.3456C92.8309 91.9411 92.3285 91.52 92.2293 91.0052L91.3704 86.5527C91.2711 86.038 91.611 85.6169 92.1257 85.6169H96.5782C97.0929 85.6169 97.5953 86.038 97.6946 86.5527L98.5535 91.0052C98.6528 91.52 98.313 91.9411 97.7982 91.9411Z" fill="#AFCDFB"/>
<path d="M109.034 91.9411H104.581C104.066 91.9411 103.564 91.52 103.465 91.0052L102.606 86.5527C102.506 86.038 102.846 85.6169 103.361 85.6169H107.814C108.328 85.6169 108.831 86.038 108.93 86.5527L109.789 91.0052C109.888 91.52 109.548 91.9411 109.034 91.9411Z" fill="#AFCDFB"/>
<path d="M153.976 91.9411H149.524C149.009 91.9411 148.507 91.52 148.407 91.0052L147.548 86.5527C147.449 86.038 147.789 85.6169 148.304 85.6169H152.756C153.271 85.6169 153.773 86.038 153.873 86.5527L154.732 91.0052C154.831 91.52 154.491 91.9411 153.976 91.9411Z" fill="#78ACEA"/>
<path d="M118.404 82.2705H113.952C113.437 82.2705 112.935 81.8494 112.835 81.3347L111.976 76.8821C111.877 76.3673 112.217 75.9462 112.732 75.9462H117.184C117.699 75.9462 118.201 76.3673 118.301 76.8821L119.16 81.3347C119.259 81.8493 118.919 82.2705 118.404 82.2705Z" fill="#AFCDFB"/>
<path d="M129.64 82.2705H125.187C124.672 82.2705 124.17 81.8494 124.071 81.3347L123.212 76.8821C123.112 76.3673 123.452 75.9462 123.967 75.9462H128.42C128.934 75.9462 129.437 76.3673 129.536 76.8821L130.395 81.3347C130.494 81.8493 130.154 82.2705 129.64 82.2705Z" fill="#AFCDFB"/>
<path d="M140.875 82.2705H136.423C135.908 82.2705 135.405 81.8494 135.306 81.3347L134.447 76.8821C134.348 76.3673 134.688 75.9462 135.202 75.9462H139.655C140.17 75.9462 140.672 76.3673 140.771 76.8821L141.63 81.3347C141.73 81.8493 141.39 82.2705 140.875 82.2705Z" fill="#78ACEA"/>
<path d="M152.111 82.2705H147.658C147.144 82.2705 146.641 81.8494 146.542 81.3347L145.683 76.8821C145.584 76.3673 145.924 75.9462 146.438 75.9462H150.891C151.406 75.9462 151.908 76.3673 152.007 76.8821L152.866 81.3347C152.966 81.8493 152.626 82.2705 152.111 82.2705Z" fill="#78ACEA"/>
<path d="M122.247 102.191H117.794C117.28 102.191 116.777 101.77 116.678 101.255L115.819 96.8025C115.72 96.2878 116.06 95.8667 116.574 95.8667H121.027C121.542 95.8667 122.044 96.2878 122.143 96.8025L123.002 101.255C123.101 101.77 122.762 102.191 122.247 102.191Z" fill="#AFCDFB"/>
<path d="M133.482 102.191H129.03C128.515 102.191 128.013 101.77 127.913 101.255L127.054 96.8025C126.955 96.2878 127.295 95.8667 127.81 95.8667H132.262C132.777 95.8667 133.279 96.2878 133.379 96.8025L134.238 101.255C134.337 101.77 133.997 102.191 133.482 102.191Z" fill="#AFCDFB"/>
<path d="M144.718 102.191H140.265C139.75 102.191 139.248 101.77 139.149 101.255L138.29 96.8025C138.19 96.2878 138.53 95.8667 139.045 95.8667H143.498C144.012 95.8667 144.515 96.2878 144.614 96.8025L145.473 101.255C145.572 101.77 145.232 102.191 144.718 102.191Z" fill="#78ACEA"/>
<path d="M88.5401 102.191H84.0875C83.5728 102.191 83.0704 101.77 82.9711 101.255L82.1122 96.8025C82.0129 96.2878 82.3529 95.8667 82.8676 95.8667H87.3201C87.8348 95.8667 88.3372 96.2878 88.4365 96.8025L89.2954 101.255C89.3947 101.77 89.0548 102.191 88.5401 102.191Z" fill="#AFCDFB"/>
<path d="M99.7754 102.191H95.3229C94.8082 102.191 94.3058 101.77 94.2065 101.255L93.3476 96.8025C93.2483 96.2878 93.5882 95.8667 94.1029 95.8667H98.5555C99.0702 95.8667 99.5726 96.2878 99.6719 96.8025L100.531 101.255C100.63 101.77 100.29 102.191 99.7754 102.191Z" fill="#AFCDFB"/>
<path d="M111.011 102.191H106.558C106.043 102.191 105.541 101.77 105.442 101.255L104.583 96.8025C104.484 96.2878 104.824 95.8667 105.338 95.8667H109.791C110.306 95.8667 110.808 96.2878 110.907 96.8025L111.766 101.255C111.865 101.77 111.526 102.191 111.011 102.191Z" fill="#AFCDFB"/>
<path d="M155.954 102.191H151.501C150.986 102.191 150.484 101.77 150.385 101.255L149.526 96.8025C149.426 96.2878 149.766 95.8667 150.281 95.8667H154.734C155.248 95.8667 155.751 96.2878 155.85 96.8025L156.709 101.255C156.808 101.77 156.468 102.191 155.954 102.191Z" fill="#78ACEA"/>
<path d="M124.224 112.441H119.771C119.256 112.441 118.754 112.02 118.655 111.505L117.796 107.052C117.696 106.538 118.036 106.117 118.551 106.117H123.004C123.518 106.117 124.021 106.538 124.12 107.052L124.979 111.505C125.078 112.02 124.738 112.441 124.224 112.441Z" fill="#AFCDFB"/>
<path d="M135.459 112.441H131.007C130.492 112.441 129.99 112.02 129.89 111.505L129.032 107.052C128.932 106.538 129.272 106.117 129.787 106.117H134.239C134.754 106.117 135.256 106.538 135.356 107.052L136.215 111.505C136.314 112.02 135.974 112.441 135.459 112.441Z" fill="#AFCDFB"/>
<path d="M146.695 112.441H142.242C141.727 112.441 141.225 112.02 141.126 111.505L140.267 107.052C140.168 106.538 140.508 106.117 141.022 106.117H145.475C145.99 106.117 146.492 106.538 146.591 107.052L147.45 111.505C147.549 112.02 147.21 112.441 146.695 112.441Z" fill="#78ACEA"/>
<path d="M90.5168 112.441H86.0642C85.5495 112.441 85.0471 112.02 84.9478 111.505L84.0889 107.052C83.9896 106.538 84.3296 106.117 84.8443 106.117H89.2968C89.8115 106.117 90.3139 106.538 90.4131 107.052L91.272 111.505C91.3714 112.02 91.0315 112.441 90.5168 112.441Z" fill="#AFCDFB"/>
<path d="M101.753 112.441H97.3002C96.7855 112.441 96.2831 112.02 96.1839 111.505L95.325 107.052C95.2257 106.538 95.5656 106.117 96.0803 106.117H100.533C101.048 106.117 101.55 106.538 101.649 107.052L102.508 111.505C102.607 112.02 102.267 112.441 101.753 112.441Z" fill="#E63946"/>
<path d="M112.988 112.441H108.536C108.021 112.441 107.518 112.02 107.419 111.505L106.56 107.052C106.461 106.538 106.801 106.117 107.316 106.117H111.768C112.283 106.117 112.785 106.538 112.885 107.052L113.743 111.505C113.843 112.02 113.503 112.441 112.988 112.441Z" fill="#AFCDFB"/>
<path d="M157.931 112.441H153.478C152.963 112.441 152.461 112.02 152.362 111.505L151.503 107.052C151.404 106.538 151.743 106.117 152.258 106.117H156.711C157.226 106.117 157.728 106.538 157.827 107.052L158.686 111.505C158.785 112.02 158.445 112.441 157.931 112.441Z" fill="#78ACEA"/>
<path d="M126.089 122.111H121.637C121.122 122.111 120.62 121.69 120.52 121.175L119.662 116.723C119.562 116.208 119.902 115.787 120.417 115.787H124.869C125.384 115.787 125.887 116.208 125.986 116.723L126.845 121.175C126.944 121.69 126.604 122.111 126.089 122.111Z" fill="#AFCDFB"/>
<path d="M137.325 122.111H132.872C132.358 122.111 131.855 121.69 131.756 121.175L130.897 116.723C130.798 116.208 131.138 115.787 131.652 115.787H136.105C136.62 115.787 137.122 116.208 137.221 116.723L138.08 121.175C138.179 121.69 137.84 122.111 137.325 122.111Z" fill="#AFCDFB"/>
<path d="M148.56 122.111H144.108C143.593 122.111 143.091 121.69 142.991 121.175L142.132 116.723C142.033 116.208 142.373 115.787 142.888 115.787H147.34C147.855 115.787 148.357 116.208 148.457 116.723L149.315 121.175C149.415 121.69 149.075 122.111 148.56 122.111Z" fill="#78ACEA"/>
<path d="M92.3821 122.111H87.9296C87.4148 122.111 86.9125 121.69 86.8132 121.175L85.9543 116.723C85.8549 116.208 86.1949 115.787 86.7095 115.787H91.1621C91.6768 115.787 92.1792 116.208 92.2785 116.723L93.1374 121.175C93.2367 121.69 92.8968 122.111 92.3821 122.111Z" fill="#AFCDFB"/>
<path d="M103.618 122.111H99.1657C98.6509 122.111 98.1486 121.69 98.0493 121.175L97.1903 116.723C97.091 116.208 97.431 115.787 97.9457 115.787H102.398C102.913 115.787 103.415 116.208 103.515 116.723L104.374 121.175C104.473 121.69 104.133 122.111 103.618 122.111Z" fill="#AFCDFB"/>
<path d="M114.854 122.111H110.401C109.886 122.111 109.384 121.69 109.285 121.175L108.426 116.723C108.326 116.208 108.666 115.787 109.181 115.787H113.634C114.148 115.787 114.651 116.208 114.75 116.723L115.609 121.175C115.708 121.69 115.368 122.111 114.854 122.111Z" fill="#AFCDFB"/>
<path d="M95.178 76.8165H83.382C83.2082 76.8165 83.0659 76.6742 83.0659 76.5004C83.0659 76.3266 83.2082 76.1844 83.382 76.1844H95.178C95.3518 76.1844 95.4941 76.3267 95.4941 76.5004C95.4941 76.6742 95.3519 76.8165 95.178 76.8165Z" fill="#AFCDFB"/>
<path d="M95.5368 78.2451H83.7408C83.5669 78.2451 83.4247 78.1028 83.4247 77.929C83.4247 77.7552 83.5669 77.613 83.7408 77.613H95.5368C95.7106 77.613 95.8528 77.7553 95.8528 77.929C95.8528 78.1029 95.7106 78.2451 95.5368 78.2451Z" fill="#AFCDFB"/>
<path d="M82.5267 66.1783H78.4788C78.1473 66.1783 77.876 65.907 77.876 65.5755C77.876 65.2439 78.1473 64.9726 78.4788 64.9726H82.5267C82.8583 64.9726 83.1296 65.2439 83.1296 65.5755C83.1296 65.907 82.8583 66.1783 82.5267 66.1783Z" fill="#F5F5F5"/>
<path d="M93.6339 66.1784H89.586C89.2544 66.1784 88.9832 65.9071 88.9832 65.5755C88.9832 65.2439 89.2545 64.9726 89.586 64.9726H93.6339C93.9655 64.9726 94.2368 65.2439 94.2368 65.5755C94.2369 65.9071 93.9656 66.1784 93.6339 66.1784Z" fill="#F5F5F5"/>
<path d="M104.741 66.1784H100.693C100.361 66.1784 100.09 65.9071 100.09 65.5755C100.09 65.2439 100.361 64.9726 100.693 64.9726H104.741C105.072 64.9726 105.344 65.2439 105.344 65.5755C105.344 65.9071 105.072 66.1784 104.741 66.1784Z" fill="#F5F5F5"/>
<path d="M115.848 66.1784H111.8C111.469 66.1784 111.197 65.9071 111.197 65.5755C111.197 65.2439 111.469 64.9726 111.8 64.9726H115.848C116.18 64.9726 116.451 65.2439 116.451 65.5755C116.451 65.9071 116.18 66.1784 115.848 66.1784Z" fill="#F5F5F5"/>
<path d="M126.955 66.1784H122.907C122.576 66.1784 122.305 65.9071 122.305 65.5755C122.305 65.2439 122.576 64.9726 122.907 64.9726H126.955C127.287 64.9726 127.558 65.2439 127.558 65.5755C127.558 65.9071 127.287 66.1784 126.955 66.1784Z" fill="#F5F5F5"/>
<path d="M138.063 66.1784H134.015C133.683 66.1784 133.412 65.9071 133.412 65.5755C133.412 65.2439 133.683 64.9726 134.015 64.9726H138.063C138.394 64.9726 138.666 65.2439 138.666 65.5755C138.666 65.9071 138.394 66.1784 138.063 66.1784Z" fill="#F5F5F5"/>
<path d="M149.17 66.1784H145.122C144.79 66.1784 144.519 65.9071 144.519 65.5755C144.519 65.2439 144.79 64.9726 145.122 64.9726H149.17C149.501 64.9726 149.773 65.2439 149.773 65.5755C149.773 65.9071 149.501 66.1784 149.17 66.1784Z" fill="#F5F5F5"/>
<path d="M123.569 82.3584C122.675 82.3584 122.024 82.0746 121.669 81.524C120.989 80.4682 121.514 78.9882 123.23 77.1248C124.483 75.7643 125.946 74.686 125.961 74.6752C126.018 74.633 126.099 74.6454 126.142 74.703C126.184 74.7604 126.171 74.8414 126.114 74.8836C126.057 74.9255 120.416 79.102 121.886 81.3841C122.352 82.107 123.349 82.1549 124.105 82.0675C125.502 81.9059 127.324 81.1532 128.979 80.0542C130.692 78.9167 131.898 77.6347 132.289 76.5369C132.545 75.8167 132.466 75.3066 132.053 75.0207C131.519 74.6514 130.405 74.6512 129.071 75.0197C127.794 75.3728 126.508 76.0085 125.716 76.6789C125.662 76.7249 125.58 76.718 125.534 76.6636C125.488 76.6093 125.495 76.5277 125.549 76.4816C126.368 75.7888 127.691 75.1332 129.002 74.7708C130.43 74.3762 131.595 74.3898 132.2 74.8084C132.558 75.0562 132.907 75.5725 132.532 76.6236C132.123 77.773 130.88 79.1019 129.122 80.2695C127.435 81.3901 125.57 82.1581 124.134 82.3242C123.936 82.347 123.748 82.3584 123.569 82.3584Z" fill="#C65447"/>
<path d="M146.941 75.0183L146.482 74.1514C146.482 74.1514 146.71 72.6066 144.774 71.6294C144.774 71.6294 144.067 71.3414 143.667 71.9183C143.299 72.4497 144.368 72.3537 144.311 73.2629C144.254 74.1721 144.685 74.7056 145.286 75.0017L145.782 75.5768L146.941 75.0183Z" fill="#FFB27D"/>
<path d="M165.234 72.9458C165.234 72.9458 163.572 81.1045 154.424 83.7701C151.569 84.6023 145.082 75.2013 145.082 75.2013C145.082 75.2013 145.31 74.3347 146.738 74.5337C146.738 74.5337 153.055 78.7154 153.85 79.1697C154.556 79.5728 159.196 73.9881 161.311 73.0873C163.427 72.1865 165.234 72.9458 165.234 72.9458Z" fill="#233862"/>
<path d="M138.491 72.7974L138.857 74.7768L148.814 72.9328L148.448 70.9534L138.491 72.7974Z" fill="#C65447"/>
<path d="M136.355 74.2178L138.853 74.7789L138.486 72.7996L136.355 74.2178Z" fill="#FFB27D"/>
<path d="M149.722 71.398L149.838 72.0237C149.909 72.4086 149.655 72.7785 149.27 72.8498L148.81 72.9351L148.443 70.9558L148.944 70.863C149.307 70.7958 149.655 71.0353 149.722 71.398Z" fill="#FFB27D"/>
<path d="M176.156 124.234C176.156 124.234 177.29 125.27 177.069 126.006C176.847 126.741 175.823 127.232 175.685 128.131C175.547 129.031 174.993 129.521 174.495 129.521C173.997 129.521 172.12 129.521 172.12 129.521C172.12 129.521 171.753 128.888 172.639 128.698C173.524 128.507 173.858 127.45 173.803 126.469C173.748 125.488 173.886 124.18 173.886 124.18L175.768 123.743L176.156 124.234Z" fill="#233862"/>
<path d="M162.233 126.912C162.233 126.912 162.437 129.269 161.938 129.514L155.562 129.501C155.562 129.501 155.562 128.766 156.587 128.602C157.611 128.439 159.41 127.839 159.714 126.504C160.019 125.168 162.233 126.912 162.233 126.912Z" fill="#233862"/>
<path d="M156.85 93.6193C156.85 93.6193 157.186 97.7507 157.581 102.717C158.119 109.463 158.765 117.749 158.828 119.319C158.939 122.045 159.382 126.405 159.382 126.405C159.382 126.405 160.434 127.441 162.538 127.005C162.538 127.005 164.413 120.78 164.948 114.194C164.956 114.086 164.965 113.978 164.973 113.869C165.471 107.165 166.246 93.047 166.246 93.047L156.85 93.6193Z" fill="#F99746"/>
<path d="M156.85 93.6193C156.85 93.6193 157.186 97.7507 157.581 102.717L164.948 114.194C164.956 114.086 164.965 113.978 164.973 113.869C165.471 107.165 166.246 93.047 166.246 93.047L156.85 93.6193Z" fill="#ED7D2B"/>
<path d="M158.385 94.11C158.385 94.11 164.447 109.072 168.432 116.104C172.418 123.135 173.664 125.097 173.664 125.097C173.664 125.097 175.947 124.198 176.155 123.585C176.155 123.585 174.63 110.01 171.961 106.701C170.453 104.831 168.681 99.2201 168.598 97.2578C168.515 95.2956 168.059 91.412 168.059 91.412L158.385 94.11Z" fill="#F99746"/>
<path d="M166.361 71.0522C166.361 71.0522 162.259 73.031 159.895 72.2969C159.895 72.2969 160.477 71.5626 161.495 71.0163C161.414 70.5418 161.35 70.1298 161.314 69.7807C161.214 68.9748 161.214 68.5181 161.214 68.5181L162.796 67.2736L164.296 66.0826C164.178 69.4314 166.361 71.0522 166.361 71.0522Z" fill="#FFB27D"/>
<path d="M156.591 93.9608C156.663 94.0238 156.746 94.0589 156.837 94.0589C157.728 94.0408 160.32 94.533 162.511 94.3094C164.366 94.1303 166.003 93.5933 167.758 92.8238C167.995 92.7162 168.532 92.4295 168.522 92.1791C168.513 91.8925 168.486 91.4896 168.45 90.9695C168.376 89.9465 168.273 88.494 168.24 86.7718C168.215 85.4952 168.229 84.0704 168.322 82.5615C168.327 82.4602 168.333 82.3579 168.337 82.2556C168.363 81.7025 168.376 81.1451 168.376 80.6006C168.386 78.8454 168.259 77.1713 168.004 75.6762C167.558 73.0791 166.721 71.0469 165.485 70.1422C165.321 70.0165 164.302 70.5088 163.357 70.9659C162.493 71.3868 161.629 71.4316 160.811 71.2707L159.993 71.9868C159 72.8905 157.909 74.1352 157.428 76.0161C157.028 77.6102 156.791 80.4929 156.664 83.4842C156.601 84.845 156.555 86.2059 156.537 87.5039V87.5486C156.527 87.6829 156.527 87.8182 156.527 87.9525C156.482 91.2742 156.527 93.916 156.591 93.9608Z" fill="#2B478B"/>
<path d="M164.324 67.3631C164.324 67.3631 163.287 69.2524 161.314 69.7807C161.214 68.9748 161.214 68.5181 161.214 68.5181L162.796 67.2736L164.324 67.3631Z" fill="#ED985F"/>
<path d="M160.492 68.4636C160.492 68.4636 164.404 69.1036 164.772 66.6983C165.139 64.2931 165.891 62.7558 163.409 62.2455C160.926 61.7352 160.3 62.581 159.979 63.3544C159.658 64.1278 159.484 68.2351 160.492 68.4636Z" fill="#FFB27D"/>
<path d="M166.194 61.9576C166.23 61.9169 166.311 61.8841 166.494 61.8741C166.494 61.8741 166.348 61.783 166.153 61.7782C166.115 61.5246 165.98 61.0759 165.544 60.9669C165.544 60.9669 165.778 61.0919 165.809 61.3615C165.304 60.8424 164.221 60.4647 161.222 60.7013C157.271 61.0132 158.573 63.5433 159.085 63.845C159.596 64.1466 160.884 63.3197 161.837 63.3953C162.79 63.471 162.972 64.8483 163.295 65.0373C163.618 65.2263 163.491 64.8921 163.929 64.6943C164.366 64.4965 164.408 65.2215 164.281 65.6928C164.155 66.1642 164.756 66.786 164.756 66.786C164.756 66.786 164.756 66.786 165.364 66.1317C165.971 65.4775 166.544 62.7064 166.267 62.1157C166.243 62.0636 166.219 62.0108 166.194 61.9576Z" fill="#2C3A64"/>
<path d="M146.473 74.1104C146.473 74.1104 146.608 73.5787 146.239 73.3396C145.87 73.1005 145.531 72.4505 145.375 72.5386C145.053 72.7209 145.551 73.2881 145.46 73.9956C145.428 74.2435 146.005 74.8925 146.473 74.1104Z" fill="#FFB27D"/>
<path d="M168.239 86.7718C168.215 85.4951 168.229 84.0703 168.321 82.5614C168.327 82.4601 168.332 82.3578 168.336 82.2555C167.964 80.413 167.402 78.7782 166.574 78.7249C166.574 78.7249 164.107 82.6018 168.239 86.7718Z" fill="#233862"/>
<path d="M171.503 93.4574C171.503 93.4574 171.297 95.4565 171.072 95.8347C170.846 96.2129 169.885 97.4212 169.476 97.6583C169.067 97.8955 169.726 96.0661 169.643 95.7102C169.559 95.3542 169.306 96.3598 169.125 96.3834C168.945 96.407 168.991 95.502 168.985 95.1726C168.979 94.8433 169.863 94.0302 170.174 93.3288C170.486 92.6275 171.503 93.4574 171.503 93.4574Z" fill="#FFB27D"/>
<path d="M165.483 70.1222C165.483 70.1222 167.959 71.2944 169.146 73.0966C170.987 75.892 173.121 86.0796 173.16 87.023C173.2 87.9664 171.602 94.6267 171.602 94.6267C171.602 94.6267 169.983 94.52 169.565 93.7024C169.565 93.7024 169.888 86.8591 169.683 86.4192C169.478 85.9793 162.931 77.2396 163.667 75.3748C164.403 73.5098 165.483 70.1222 165.483 70.1222Z" fill="#2B478B"/>
<path d="M137.635 73.3661L137.765 74.5346L136.355 74.2178L137.635 73.3661Z" fill="#C65447"/>
<path d="M47.8311 129.27C47.453 128.676 46.3152 127.134 44.7997 127.338C43.1485 127.561 46.6233 128.649 47.6871 129.274C47.4509 129.278 47.2478 129.259 47.0986 129.206C46.3873 128.952 45.1693 129.438 44.7799 129.609H51.5507C51.5039 129.447 51.3819 129.182 51.0666 128.99C50.9554 128.922 50.7319 128.912 50.4434 128.934C50.846 128.46 51.1256 126.943 50.0048 127.334C49.1861 127.619 49.1883 128.545 49.2686 129.093C49.0945 129.12 48.9178 129.148 48.7433 129.173C48.4062 127.455 47.2138 122.42 44.7972 122.286C42.3472 122.149 46.8747 127.507 48.3821 129.221C48.1893 129.244 48.0033 129.262 47.8311 129.27Z" fill="#82B378"/>
</g>
</svg>
